{
.appVersion = "3108";
.formatVersion = 3;
classes = (
{
automatic = 1;

glyphs = (
{
glyphname = A;
kernLeft = A;
kernRight = A;
layers = (
{
anchors = (
{
name = bottom;
pos = (373,0);
},
{
name = ogonek;
pos = (685,10);
},
{
name = top;
pos = (373,698);
}
);
layerId = "A99C00BB-606F-4263-964D-93C8B7F0BADD";
shapes = (
{
closed = 1;
nodes = (
(114,-5,o),
(130,5,o),
(138,23,cs),
(203,179,l),
(543,179,l),
(608,23,ls),
(616,5,o),
(632,-5,o),
(651,-5,cs),
(679,-5,o),
(696,15,o),
(696,40,cs),
(696,46,o),
(694,53,o),
(691,60,cs),
(436,662,ls),
(427,683,o),
(408,703,o),
(378,703,cs),
(368,703,ls),
(338,703,o),
(319,683,o),
(310,662,cs),
(55,60,ls),
(52,53,o),
(50,46,o),
(50,40,cs),
(50,15,o),
(67,-5,o),
(95,-5,cs)
);
},
{
closed = 1;
nodes = (
(373,587,l),
(508,262,l),
(238,262,l)
);
}
);
width = 746;
}
);
note = A;
unicode = 65;
},
{
color = 10;
glyphname = Aacute;
kernLeft = A;
kernRight = A;
layers = (
{
background = {
shapes = (
{
closed = 1;
nodes = (
(90,-5,o),
(106,5,o),
(114,23,cs),
(179,179,l),
(519,179,l),
(584,23,ls),
(592,5,o),
(608,-5,o),
(627,-5,cs),
(655,-5,o),
(672,15,o),
(672,40,cs),
(672,46,o),
(670,53,o),
(667,60,cs),
(412,662,ls),
(403,683,o),
(384,703,o),
(354,703,cs),
(344,703,ls),
(314,703,o),
(295,683,o),
(286,662,cs),
(31,60,ls),
(28,53,o),
(26,46,o),
(26,40,cs),
(26,15,o),
(43,-5,o),
(71,-5,cs)
);
},
{
closed = 1;
nodes = (
(349,587,l),
(484,262,l),
(214,262,l)
);
},
{
closed = 1;
nodes = (
(349,739,o),
(355,743,o),
(361,750,cs),
(430,832,ls),
(437,840,o),
(440,848,o),
(440,857,cs),
(440,879,o),
(425,894,o),
(403,894,cs),
(386,894,o),
(376,886,o),
(370,875,cs),
(319,785,l),
(317,782,o),
(312,774,o),
(312,766,cs),
(312,750,o),
(323,739,o),
(339,739,cs)
);
}
);
};
layerId = "A99C00BB-606F-4263-964D-93C8B7F0BADD";
shapes = (
{
ref = A;
},
{
pos = (173,0);
ref = acutecomb.case;
}
);
width = 746;
}
);
note = Aacute;
unicode = 193;
},
{
color = 10;
glyphname = Acircumflex;
kernLeft = A;
kernRight = A;
layers = (
{
background = {
shapes = (
{
closed = 1;
nodes = (
(90,-5,o),
(106,5,o),
(114,23,cs),
(179,179,l),
(519,179,l),
(584,23,ls),
(592,5,o),
(608,-5,o),
(627,-5,cs),
(655,-5,o),
(672,15,o),
(672,40,cs),
(672,46,o),
(670,53,o),
(667,60,cs),
(412,662,ls),
(403,683,o),
(384,703,o),
(354,703,cs),
(344,703,ls),
(314,703,o),
(295,683,o),
(286,662,cs),
(31,60,ls),
(28,53,o),
(26,46,o),
(26,40,cs),
(26,15,o),
(43,-5,o),
(71,-5,cs)
);
},
{
closed = 1;
nodes = (
(349,587,l),
(484,262,l),
(214,262,l)
);
},
{
closed = 1;
nodes = (
(250,738,o),
(258,741,o),
(262,745,c),
(349,819,l),
(436,745,l),
(440,741,o),
(448,738,o),
(454,738,cs),
(471,738,o),
(485,753,o),
(484,768,c),
(484,775,o),
(481,782,o),
(476,787,cs),
(408,857,ls),
(398,868,o),
(387,877,o),
(368,877,cs),
(330,877,ls),
(311,877,o),
(300,868,o),
(290,857,cs),
(222,787,ls),
(217,782,o),
(214,775,o),
(214,768,c),
(213,753,o),
(227,738,o),
(244,738,cs)
);
}
);
};
layerId = "A99C00BB-606F-4263-964D-93C8B7F0BADD";
shapes = (
{
ref = A;
},
{
pos = (173,0);
ref = circumflexcomb.case;
}
);
width = 746;
}
);
note = Acircumflex;
unicode = 194;
},
{
color = 10;
glyphname = Agrave;
kernLeft = A;
kernRight = A;
layers = (
{
background = {
shapes = (
{
closed = 1;
nodes = (
(90,-5,o),
(106,5,o),
(114,23,cs),
(179,179,l),
(519,179,l),
(584,23,ls),
(592,5,o),
(608,-5,o),
(627,-5,cs),
(655,-5,o),
(672,15,o),
(672,40,cs),
(672,46,o),
(670,53,o),
(667,60,cs),
(412,662,ls),
(403,683,o),
(384,703,o),
(354,703,cs),
(344,703,ls),
(314,703,o),
(295,683,o),
(286,662,cs),
(31,60,ls),
(28,53,o),
(26,46,o),
(26,40,cs),
(26,15,o),
(43,-5,o),
(71,-5,cs)
);
},
{
closed = 1;
nodes = (
(349,587,l),
(484,262,l),
(214,262,l)
);
},
{
closed = 1;
nodes = (
(374,739,o),
(385,750,o),
(385,766,cs),
(385,774,o),
(380,782,o),
(378,785,c),
(327,875,ls),
(321,886,o),
(311,894,o),
(294,894,cs),
(272,894,o),
(257,879,o),
(257,857,cs),
(257,848,o),
(260,840,o),
(267,832,cs),
(336,750,ls),
(342,743,o),
(348,739,o),
(358,739,cs)
);
}
);
};
layerId = "A99C00BB-606F-4263-964D-93C8B7F0BADD";
shapes = (
{
ref = A;
},
{
pos = (173,0);
ref = gravecomb.case;
}
);
width = 746;
}
);
note = Agrave;
unicode = 192;
},
{
color = 3;
glyphname = Aogonek;
kernLeft = A;
kernRight = A;
layers = (
{
background = {
shapes = (
{
closed = 1;
nodes = (
(114,-5,o),
(130,5,o),
(138,23,cs),
(203,179,l),
(543,179,l),
(608,23,ls),
(616,5,o),
(632,-5,o),
(651,-5,cs),
(679,-5,o),
(696,15,o),
(696,40,cs),
(696,46,o),
(694,53,o),
(691,60,cs),
(436,662,ls),
(427,683,o),
(408,703,o),
(378,703,cs),
(368,703,ls),
(338,703,o),
(319,683,o),
(310,662,cs),
(55,60,ls),
(52,53,o),
(50,46,o),
(50,40,cs),
(50,15,o),
(67,-5,o),
(95,-5,cs)
);
},
{
closed = 1;
nodes = (
(373,587,l),
(508,262,l),
(238,262,l)
);
},
{
closed = 1;
nodes = (
(630,-203,o),
(658,-194,o),
(679,-179,cs),
(686,-174,o),
(690,-168,o),
(690,-161,cs),
(690,-148,o),
(681,-139,o),
(668,-139,cs),
(665,-139,o),
(662,-140,o),
(659,-141,cs),
(649,-144,o),
(638,-147,o),
(624,-147,cs),
(588,-147,o),
(574,-129,o),
(573,-100,cs),
(572,-50,o),
(638,-12,o),
(685,10,c),
(604,10,l),
(551,-17,o),
(500,-55,o),
(500,-119,cs),
(500,-172,o),
(545,-203,o),
(593,-203,cs)
);
}
);
};
layerId = "A99C00BB-606F-4263-964D-93C8B7F0BADD";
shapes = (
{
closed = 1;
nodes = (
(630,-203,o),
(658,-194,o),
(679,-179,cs),
(686,-174,o),
(690,-168,o),
(690,-161,cs),
(690,-148,o),
(681,-139,o),
(668,-139,cs),
(665,-139,o),
(662,-140,o),
(659,-141,cs),
(649,-144,o),
(638,-147,o),
(624,-147,cs),
(588,-147,o),
(574,-129,o),
(573,-100,cs),
(572,-52,o),
(632,-18,o),
(671,-1,cs),
(686,6,o),
(696,21,o),
(696,40,cs),
(696,46,o),
(694,53,o),
(691,60,cs),
(436,662,ls),
(427,683,o),
(408,703,o),
(378,703,cs),
(368,703,ls),
(338,703,o),
(319,683,o),
(310,662,cs),
(55,60,ls),
(52,53,o),
(50,46,o),
(50,40,cs),
(50,15,o),
(67,-5,o),
(95,-5,cs),
(114,-5,o),
(130,5,o),
(138,23,cs),
(203,179,l),
(543,179,l),
(611,16,l),
(530,-21,o),
(500,-73,o),
(500,-119,cs),
(500,-172,o),
(545,-203,o),
(593,-203,cs)
);
},
{
closed = 1;
nodes = (
(373,587,l),
(508,262,l),
(238,262,l)
);
}
);
width = 746;
}
);
metricLeft = A;
metricRight = A;
unicode = 260;
},
{
color = 10;
glyphname = Aring;
kernLeft = A;
kernRight = A;
layers = (
{
background = {
shapes = (
{
closed = 1;
nodes = (
(90,-5,o),
(106,5,o),
(114,23,cs),
(179,179,l),
(519,179,l),
(584,23,ls),
(592,5,o),
(608,-5,o),
(627,-5,cs),
(655,-5,o),
(672,15,o),
(672,40,cs),
(672,46,o),
(670,53,o),
(667,60,cs),
(412,662,ls),
(403,683,o),
(384,703,o),
(354,703,cs),
(344,703,ls),
(314,703,o),
(295,683,o),
(286,662,cs),
(31,60,ls),
(28,53,o),
(26,46,o),
(26,40,cs),
(26,15,o),
(43,-5,o),
(71,-5,cs)
);
},
{
closed = 1;
nodes = (
(349,587,l),
(484,262,l),
(214,262,l)
);
},
{
closed = 1;
nodes = (
(401,730,o),
(443,772,o),
(443,824,cs),
(443,876,o),
(401,918,o),
(349,918,cs),
(297,918,o),
(255,876,o),
(255,824,cs),
(255,772,o),
(297,730,o),
(349,730,cs)
);
},
{
closed = 1;
nodes = (
(322,775,o),
(300,797,o),
(300,824,cs),
(300,851,o),
(322,873,o),
(349,873,cs),
(376,873,o),
(398,851,o),
(398,824,cs),
(398,797,o),
(376,775,o),
(349,775,cs)
);
}
);
};
layerId = "A99C00BB-606F-4263-964D-93C8B7F0BADD";
shapes = (
{
ref = A;
},
{
pos = (173,0);
ref = ringcomb.case;
}
);
width = 746;
}
);
note = Aring;
unicode = 197;
},
{
color = 3;
glyphname = Aringacute;
kernLeft = A;
kernRight = A;
layers = (
{
background = {
shapes = (
{
closed = 1;
nodes = (
(359,911,o),
(365,915,o),
(371,922,cs),
(440,1004,ls),
(447,1012,o),
(450,1020,o),
(450,1029,cs),
(450,1051,o),
(435,1066,o),
(413,1066,cs),
(396,1066,o),
(386,1058,o),
(380,1047,cs),
(329,957,l),
(327,954,o),
(322,946,o),
(322,938,cs),
(322,922,o),
(333,911,o),
(349,911,cs)
);
}
);
};
layerId = "A99C00BB-606F-4263-964D-93C8B7F0BADD";
shapes = (
{
closed = 1;
nodes = (
(114,-5,o),
(130,5,o),
(138,23,cs),
(203,179,l),
(543,179,l),
(608,23,ls),
(616,5,o),
(632,-5,o),
(651,-5,cs),
(679,-5,o),
(696,15,o),
(696,40,cs),
(696,46,o),
(694,53,o),
(691,60,cs),
(436,662,ls),
(427,683,o),
(408,703,o),
(378,703,cs),
(368,703,ls),
(338,703,o),
(319,683,o),
(310,662,cs),
(55,60,ls),
(52,53,o),
(50,46,o),
(50,40,cs),
(50,15,o),
(67,-5,o),
(95,-5,cs)
);
},
{
closed = 1;
nodes = (
(373,587,l),
(508,262,l),
(238,262,l)
);
},
{
closed = 1;
nodes = (
(425,723,o),
(467,765,o),
(467,817,cs),
(467,869,o),
(425,911,o),
(373,911,cs),
(321,911,o),
(279,869,o),
(279,817,cs),
(279,765,o),
(321,723,o),
(373,723,cs)
);
},
{
closed = 1;
nodes = (
(346,768,o),
(324,790,o),
(324,817,cs),
(324,844,o),
(346,866,o),
(373,866,cs),
(400,866,o),
(422,844,o),
(422,817,cs),
(422,790,o),
(400,768,o),
(373,768,cs)
);
},
{
closed = 1;
nodes = (
(468,894,o),
(475,896,o),
(483,904,cs),
(534,959,ls),
(543,968,o),
(547,978,o),
(547,987,cs),
(547,1007,o),
(530,1019,o),
(513,1019,cs),
(503,1019,o),
(491,1012,o),
(481,995,cs),
(445,934,ls),
(442,928,o),
(440,923,o),
(440,914,cs),
(440,904,o),
(449,894,o),
(461,894,cs)
);
}
);
width = 746;
}
);
metricLeft = A;
metricWidth = A;
unicode = 506;
},
{
color = 10;
glyphname = Atilde;
kernLeft = A;
kernRight = A;
layers = (
{
background = {
shapes = (
{
closed = 1;
nodes = (
(90,-5,o),
(106,5,o),
(114,23,cs),
(179,179,l),
(519,179,l),
(584,23,ls),
(592,5,o),
(608,-5,o),
(627,-5,cs),
(655,-5,o),
(672,15,o),
(672,40,cs),
(672,46,o),
(670,53,o),
(667,60,cs),
(412,662,ls),
(403,683,o),
(384,703,o),
(354,703,cs),
(344,703,ls),
(314,703,o),
(295,683,o),
(286,662,cs),
(31,60,ls),
(28,53,o),
(26,46,o),
(26,40,cs),
(26,15,o),
(43,-5,o),
(71,-5,cs)
);
},
{
closed = 1;
nodes = (
(349,587,l),
(484,262,l),
(214,262,l)
);
},
{
closed = 1;
nodes = (
(225,743,o),
(232,752,o),
(235,761,c),
(243,780,o),
(254,793,o),
(274,793,cs),
(326,793,o),
(369,745,o),
(428,745,cs),
(478,745,o),
(512,797,o),
(512,840,c),
(511,852,o),
(503,862,o),
(489,862,cs),
(474,862,o),
(468,852,o),
(464,841,cs),
(458,824,o),
(448,814,o),
(427,814,cs),
(373,814,o),
(331,861,o),
(273,861,cs),
(221,861,o),
(189,806,o),
(189,766,cs),
(189,753,o),
(200,743,o),
(212,743,cs)
);
}
);
};
layerId = "A99C00BB-606F-4263-964D-93C8B7F0BADD";
shapes = (
{
ref = A;
},
{
pos = (173,0);
ref = tildecomb.case;
}
);
width = 746;
}
);
note = Atilde;
unicode = 195;
},
{
glyphname = AE;
kernLeft = AE;
kernRight = E;
layers = (
{
anchors = (
{
name = bottom;
pos = (545,0);
},
{
name = top;
pos = (545,698);
}
);
layerId = "A99C00BB-606F-4263-964D-93C8B7F0BADD";
shapes = (
{
closed = 1;
nodes = (
(66,-5,o),
(80,7,o),
(89,21,cs),
(191,179,l),
(499,179,l),
(499,45,ls),
(499,20,o),
(519,0,o),
(544,0,cs),
(945,0,ls),
(969,0,o),
(988,18,o),
(988,42,cs),
(988,66,o),
(969,85,o),
(945,85,cs),
(590,85,l),
(590,307,l),
(909,307,ls),
(933,307,o),
(952,325,o),
(952,349,cs),
(952,373,o),
(933,392,o),
(909,392,cs),
(590,392,l),
(590,613,l),
(945,613,ls),
(969,613,o),
(988,631,o),
(988,655,cs),
(988,679,o),
(969,698,o),
(945,698,cs),
(457,698,ls),
(438,698,o),
(421,688,o),
(411,673,cs),
(12,68,ls),
(6,59,o),
(2,51,o),
(2,40,cs),
(2,15,o),
(22,-5,o),
(48,-5,cs)
);
},
{
closed = 1;
nodes = (
(474,613,l),
(499,613,l),
(499,262,l),
(245,262,l)
);
}
);
width = 1040;
}
);
metricRight = E;
note = AE;
unicode = 198;
},
{
glyphname = B;
kernLeft = H;
kernRight = B;
layers = (
{
anchors = (
{
name = bottom;
pos = (347,0);
},
{
name = top;
pos = (347,698);
}
);
layerId = "A99C00BB-606F-4263-964D-93C8B7F0BADD";
shapes = (
{
closed = 1;
nodes = (
(384,0,ls),
(569,0,o),
(641,79,o),
(641,196,cs),
(641,288,o),
(576,340,o),
(504,363,c),
(555,386,o),
(602,434,o),
(602,517,cs),
(602,625,o),
(524,698,o),
(378,698,cs),
(142,698,ls),
(117,698,o),
(97,677,o),
(97,652,cs),
(97,45,ls),
(97,20,o),
(117,0,o),
(142,0,cs)
);
},
{
closed = 1;
nodes = (
(188,314,l),
(376,314,ls),
(491,314,o),
(553,279,o),
(553,200,cs),
(553,132,o),
(512,85,o),
(375,85,cs),
(188,85,l)
);
},
{
closed = 1;
nodes = (
(188,613,l),
(371,613,ls),
(462,613,o),
(515,572,o),
(515,510,cs),
(515,445,o),
(480,396,o),
(354,396,cs),
(188,396,l)
);
}
);
width = 693;
}
);
metricLeft = I;
note = B;
unicode = 66;
},
{
glyphname = C;
kernLeft = O;
kernRight = C;
layers = (
{
anchors = (
{
name = bottom;
pos = (395,0);
},
{
name = top;
pos = (395,698);
}
);
layerId = "A99C00BB-606F-4263-964D-93C8B7F0BADD";
shapes = (
{
closed = 1;
nodes = (
(503,-10,o),
(571,17,o),
(633,52,cs),
(646,59,o),
(654,69,o),
(655,88,cs),
(656,109,o),
(640,128,o),
(615,128,cs),
(610,128,o),
(603,127,o),
(597,124,cs),
(544,96,o),
(492,77,o),
(414,77,cs),
(237,77,o),
(146,195,o),
(146,349,cs),
(146,503,o),
(237,621,o),
(414,621,cs),
(492,621,o),
(544,602,o),
(597,574,cs),
(603,571,o),
(610,570,o),
(615,570,cs),
(640,570,o),
(656,589,o),
(655,610,cs),
(654,629,o),
(646,639,o),
(633,646,cs),
(571,681,o),
(503,708,o),
(405,708,cs),
(206,708,o),
(55,572,o),
(55,349,cs),
(55,126,o),
(206,-10,o),
(405,-10,cs)
);
}
);
width = 695;
}
);
metricLeft = O;
note = C;
unicode = 67;
},
{
color = 10;
glyphname = Ccedilla;
kernLeft = O;
kernRight = C;
layers = (
{
background = {
shapes = (
{
closed = 1;
nodes = (
(452,-221,o),
(492,-191,o),
(492,-129,cs),
(492,-87,o),
(460,-59,o),
(415,-59,cs),
(403,-59,o),
(393,-60,o),
(381,-63,c),
(411,-10,l),
(506,-9,o),
(573,17,o),
(634,52,cs),
(647,59,o),
(655,69,o),
(656,88,cs),
(657,109,o),
(641,128,o),
(616,128,cs),
(611,128,o),
(604,127,o),
(598,124,cs),
(545,96,o),
(493,77,o),
(415,77,cs),
(238,77,o),
(147,195,o),
(147,349,cs),
(147,503,o),
(238,621,o),
(415,621,cs),
(493,621,o),
(545,602,o),
(598,574,cs),
(604,571,o),
(611,570,o),
(616,570,cs),
(641,570,o),
(657,589,o),
(656,610,cs),
(655,629,o),
(647,639,o),
(634,646,cs),
(572,681,o),
(504,708,o),
(406,708,cs),
(207,708,o),
(56,572,o),
(56,349,cs),
(56,140,o),
(188,8,o),
(369,-8,c),
(321,-85,ls),
(319,-88,o),
(317,-92,o),
(317,-99,cs),
(317,-108,o),
(326,-115,o),
(335,-115,cs),
(339,-115,o),
(343,-113,o),
(345,-112,cs),
(363,-103,o),
(375,-101,o),
(389,-101,cs),
(409,-101,o),
(425,-112,o),
(425,-132,cs),
(425,-167,o),
(400,-178,o),
(368,-178,cs),
(351,-178,o),
(331,-173,o),
(309,-161,c),
(307,-160,o),
(303,-158,o),
(299,-158,cs),
(286,-158,o),
(280,-168,o),
(280,-178,cs),
(280,-185,o),
(286,-192,o),
(291,-195,cs),
(325,-216,o),
(359,-221,o),
(381,-221,cs)
);
}
);
};
layerId = "A99C00BB-606F-4263-964D-93C8B7F0BADD";
shapes = (
{
ref = C;
},
{
pos = (195,0);
ref = cedillacomb;
}
);
width = 695;
}
);
note = Ccedilla;
unicode = 199;
},
{
glyphname = D;
kernLeft = H;
kernRight = O;
layers = (
{
anchors = (
{
name = bottom;
pos = (375,0);
},
{
name = center;
pos = (375,349);
},
{
name = top;
pos = (375,698);
}
);
layerId = "A99C00BB-606F-4263-964D-93C8B7F0BADD";
shapes = (
{
closed = 1;
nodes = (
(343,0,ls),
(582,0,o),
(696,181,o),
(696,349,cs),
(696,518,o),
(582,698,o),
(343,698,cs),
(142,698,ls),
(117,698,o),
(97,677,o),
(97,652,cs),
(97,45,ls),
(97,20,o),
(117,0,o),
(142,0,cs)
);
},
{
closed = 1;
nodes = (
(188,613,l),
(332,613,ls),
(499,613,o),
(606,505,o),
(606,349,cs),
(606,193,o),
(499,85,o),
(332,85,cs),
(188,85,l)
);
}
);
width = 751;
}
);
metricLeft = I;
metricRight = O;
note = D;
unicode = 68;
},
{
glyphname = Eth;
kernLeft = H;
kernRight = O;
layers = (
{
layerId = "A99C00BB-606F-4263-964D-93C8B7F0BADD";
shapes = (
{
closed = 1;
nodes = (
(348,0,ls),
(587,0,o),
(701,181,o),
(701,349,cs),
(701,518,o),
(587,698,o),
(348,698,cs),
(147,698,ls),
(122,698,o),
(102,677,o),
(102,652,cs),
(102,382,l),
(48,382,ls),
(29,382,o),
(15,367,o),
(15,348,cs),
(15,329,o),
(29,315,o),
(48,315,cs),
(102,315,l),
(102,45,ls),
(102,20,o),
(122,0,o),
(147,0,cs)
);
},
{
closed = 1;
nodes = (
(193,315,l),
(310,315,ls),
(329,315,o),
(344,329,o),
(344,348,cs),
(344,367,o),
(329,382,o),
(310,382,cs),
(193,382,l),
(193,613,l),
(337,613,ls),
(504,613,o),
(611,505,o),
(611,349,cs),
(611,193,o),
(504,85,o),
(337,85,cs),
(193,85,l)
);
}
);
width = 756;
}
);
metricRight = D;
metricWidth = "=D+5";
note = Eth;
unicode = 208;
},
{
glyphname = E;
kernLeft = H;
kernRight = E;
layers = (
{
anchors = (
{
name = bottom;
pos = (342,0);
},
{
name = ogonek;
pos = (571,10);
},
{
name = top;
pos = (342,698);
},
{
name = topleft;
pos = (20,698);
}
);
layerId = "A99C00BB-606F-4263-964D-93C8B7F0BADD";
shapes = (
{
closed = 1;
nodes = (
(543,0,ls),
(567,0,o),
(586,18,o),
(586,42,cs),
(586,66,o),
(567,85,o),
(543,85,cs),
(188,85,l),
(188,307,l),
(507,307,ls),
(531,307,o),
(550,325,o),
(550,349,cs),
(550,373,o),
(531,392,o),
(507,392,cs),
(188,392,l),
(188,613,l),
(543,613,ls),
(567,613,o),
(586,631,o),
(586,655,cs),
(586,679,o),
(567,698,o),
(543,698,cs),
(142,698,ls),
(117,698,o),
(97,677,o),
(97,652,cs),
(97,45,ls),
(97,20,o),
(117,0,o),
(142,0,cs)
);
}
);
width = 638;
}
);
metricLeft = I;
note = E;
unicode = 69;
},
{
color = 3;
glyphname = Eogonek;
kernLeft = H;
kernRight = E;
layers = (
{
anchors = (
{
name = top;
pos = (342,698);
}
);
background = {
shapes = (
{
closed = 1;
nodes = (
(543,0,ls),
(567,0,o),
(586,18,o),
(586,42,cs),
(586,66,o),
(567,85,o),
(543,85,cs),
(188,85,l),
(188,307,l),
(507,307,ls),
(531,307,o),
(550,325,o),
(550,349,cs),
(550,373,o),
(531,392,o),
(507,392,cs),
(188,392,l),
(188,613,l),
(543,613,ls),
(567,613,o),
(586,631,o),
(586,655,cs),
(586,679,o),
(567,698,o),
(543,698,cs),
(142,698,ls),
(117,698,o),
(97,677,o),
(97,652,cs),
(97,45,ls),
(97,20,o),
(117,0,o),
(142,0,cs)
);
},
{
closed = 1;
nodes = (
(516,-203,o),
(544,-194,o),
(565,-179,cs),
(572,-174,o),
(576,-168,o),
(576,-161,cs),
(576,-148,o),
(567,-139,o),
(554,-139,cs),
(551,-139,o),
(548,-140,o),
(545,-141,cs),
(535,-144,o),
(524,-147,o),
(510,-147,cs),
(474,-147,o),
(460,-129,o),
(459,-100,cs),
(458,-50,o),
(524,-12,o),
(559,3,c),
(490,10,l),
(437,-17,o),
(386,-55,o),
(386,-119,cs),
(386,-172,o),
(431,-203,o),
(479,-203,cs)
);
}
);
};
layerId = "A99C00BB-606F-4263-964D-93C8B7F0BADD";
shapes = (
{
closed = 1;
nodes = (
(516,-203,o),
(544,-194,o),
(565,-179,cs),
(572,-174,o),
(576,-168,o),
(576,-161,cs),
(576,-148,o),
(567,-139,o),
(554,-139,cs),
(551,-139,o),
(548,-140,o),
(545,-141,cs),
(535,-144,o),
(524,-147,o),
(510,-147,cs),
(474,-147,o),
(460,-129,o),
(459,-100,cs),
(458,-51,o),
(523,-12,o),
(558,2,cs),
(575,9,o),
(586,23,o),
(586,42,cs),
(586,66,o),
(567,85,o),
(543,85,cs),
(188,85,l),
(188,307,l),
(507,307,ls),
(531,307,o),
(550,325,o),
(550,349,cs),
(550,373,o),
(531,392,o),
(507,392,cs),
(188,392,l),
(188,613,l),
(543,613,ls),
(567,613,o),
(586,631,o),
(586,655,cs),
(586,679,o),
(567,698,o),
(543,698,cs),
(142,698,ls),
(117,698,o),
(97,677,o),
(97,652,cs),
(97,45,ls),
(97,20,o),
(117,0,o),
(142,0,cs),
(471,0,l),
(426,-26,o),
(386,-63,o),
(386,-119,cs),
(386,-172,o),
(431,-203,o),
(479,-203,cs)
);
}
);
width = 638;
}
);
metricLeft = E;
metricWidth = E;
unicode = 280;
},
{
glyphname = F;
kernLeft = H;
kernRight = F;
layers = (
{
anchors = (
{
name = bottom;
pos = (305,0);
},
{
name = top;
pos = (305,698);
}
);
layerId = "A99C00BB-606F-4263-964D-93C8B7F0BADD";
shapes = (
{
closed = 1;
nodes = (
(167,-5,o),
(188,15,o),
(188,40,cs),
(188,307,l),
(496,307,ls),
(520,307,o),
(539,325,o),
(539,349,cs),
(539,373,o),
(520,392,o),
(496,392,cs),
(188,392,l),
(188,613,l),
(531,613,ls),
(555,613,o),
(574,631,o),
(574,655,cs),
(574,679,o),
(555,698,o),
(531,698,cs),
(142,698,ls),
(117,698,o),
(97,677,o),
(97,652,cs),
(97,40,ls),
(97,15,o),
(117,-5,o),
(142,-5,cs)
);
}
);
width = 608;
}
);
metricLeft = I;
note = F;
unicode = 70;
},
{
glyphname = G;
kernLeft = O;
kernRight = G;
layers = (
{
anchors = (
{
name = bottom;
pos = (406,0);
},
{
name = top;
pos = (406,698);
}
);
layerId = "A99C00BB-606F-4263-964D-93C8B7F0BADD";
shapes = (
{
closed = 1;
nodes = (
(493,-10,o),
(569,13,o),
(635,46,cs),
(658,57,o),
(673,80,o),
(673,108,cs),
(673,335,ls),
(673,362,o),
(652,383,o),
(625,383,cs),
(428,383,ls),
(405,383,o),
(387,365,o),
(387,342,cs),
(387,319,o),
(405,301,o),
(428,301,cs),
(593,301,l),
(593,120,l),
(547,95,o),
(488,76,o),
(418,76,cs),
(246,76,o),
(146,194,o),
(146,348,cs),
(146,523,o),
(262,620,o),
(413,620,cs),
(490,620,o),
(550,599,o),
(609,564,c),
(615,561,o),
(622,559,o),
(630,559,cs),
(656,559,o),
(672,579,o),
(672,600,cs),
(672,618,o),
(661,631,o),
(652,636,c),
(589,676,o),
(516,708,o),
(403,708,cs),
(209,708,o),
(55,565,o),
(55,348,cs),
(55,139,o),
(196,-10,o),
(406,-10,cs)
);
}
);
width = 757;
}
);
metricLeft = O;
note = G;
unicode = 71;
},
{
glyphname = H;
kernLeft = H;
kernRight = H;
layers = (
{
anchors = (
{
name = bottom;
pos = (378,0);
},
{
name = center;
pos = (378,349);
},
{
name = top;
pos = (378,698);
},
{
name = topleft;
pos = (20,698);
}
);
layerId = "A99C00BB-606F-4263-964D-93C8B7F0BADD";
shapes = (
{
closed = 1;
nodes = (
(167,-5,o),
(188,15,o),
(188,40,cs),
(188,306,l),
(567,306,l),
(567,40,ls),
(567,15,o),
(587,-5,o),
(612,-5,cs),
(637,-5,o),
(658,15,o),
(658,40,cs),
(658,657,ls),
(658,682,o),
(637,703,o),
(612,703,cs),
(587,703,o),
(567,682,o),
(567,657,cs),
(567,391,l),
(188,391,l),
(188,657,ls),
(188,682,o),
(167,703,o),
(142,703,cs),
(117,703,o),
(97,682,o),
(97,657,cs),
(97,40,ls),
(97,15,o),
(117,-5,o),
(142,-5,cs)
);
}
);
width = 755;
}
);
metricLeft = I;
metricRight = I;
note = H;
unicode = 72;
},
{
color = 3;
glyphname = Hbar;
kernLeft = H;
kernRight = H;
layers = (
{
background = {
shapes = (
{
closed = 1;
nodes = (
(55,582,ls),
(36,582,o),
(22,567,o),
(22,548,cs),
(22,529,o),
(36,515,o),
(55,515,cs),
(709,515,ls),
(728,515,o),
(743,529,o),
(743,548,cs),
(743,567,o),
(728,582,o),
(709,582,cs)
);
},
{
closed = 1;
nodes = (
(172,-5,o),
(193,15,o),
(193,40,cs),
(193,306,l),
(572,306,l),
(572,40,ls),
(572,15,o),
(592,-5,o),
(617,-5,cs),
(642,-5,o),
(663,15,o),
(663,40,cs),
(663,657,ls),
(663,682,o),
(642,703,o),
(617,703,cs),
(592,703,o),
(572,682,o),
(572,657,cs),
(572,391,l),
(193,391,l),
(193,657,ls),
(193,682,o),
(172,703,o),
(147,703,cs),
(122,703,o),
(102,682,o),
(102,657,cs),
(102,40,ls),
(102,15,o),
(122,-5,o),
(147,-5,cs)
);
}
);
};
layerId = "A99C00BB-606F-4263-964D-93C8B7F0BADD";
shapes = (
{
closed = 1;
nodes = (
(172,-5,o),
(193,15,o),
(193,40,cs),
(193,306,l),
(572,306,l),
(572,40,ls),
(572,15,o),
(592,-5,o),
(617,-5,cs),
(642,-5,o),
(663,15,o),
(663,40,cs),
(663,511,l),
(707,511,ls),
(726,511,o),
(743,525,o),
(743,546,cs),
(743,567,o),
(726,582,o),
(707,582,cs),
(663,582,l),
(663,657,ls),
(663,682,o),
(642,703,o),
(617,703,cs),
(592,703,o),
(572,682,o),
(572,657,cs),
(572,582,l),
(193,582,l),
(193,657,ls),
(193,682,o),
(172,703,o),
(147,703,cs),
(122,703,o),
(102,682,o),
(102,657,cs),
(102,582,l),
(57,582,ls),
(38,582,o),
(22,567,o),
(22,546,cs),
(22,525,o),
(38,511,o),
(57,511,cs),
(102,511,l),
(102,40,ls),
(102,15,o),
(122,-5,o),
(147,-5,cs)
);
},
{
closed = 1;
nodes = (
(193,511,l),
(572,511,l),
(572,391,l),
(193,391,l)
);
}
);
width = 765;
}
);
unicode = 294;
},
{
glyphname = I;
kernLeft = H;
kernRight = H;
layers = (
{
anchors = (
{
name = bottom;
pos = (143,0);
},
{
name = ogonek;
pos = (176,10);
},
{
name = top;
pos = (143,698);
},
{
name = topleft;
pos = (20,698);
}
);
layerId = "A99C00BB-606F-4263-964D-93C8B7F0BADD";
shapes = (
{
closed = 1;
nodes = (
(167,-5,o),
(188,15,o),
(188,40,cs),
(188,657,ls),
(188,682,o),
(167,703,o),
(142,703,cs),
(117,703,o),
(97,682,o),
(97,657,cs),
(97,40,ls),
(97,15,o),
(117,-5,o),
(142,-5,cs)
);
}
);
width = 285;
}
);
note = I;
unicode = 73;
},
{
color = 3;
glyphname = Iogonek;
kernLeft = H;
kernRight = H;
layers = (
{
background = {
shapes = (
{
closed = 1;
nodes = (
(167,-5,o),
(188,15,o),
(188,40,cs),
(188,657,ls),
(188,682,o),
(167,703,o),
(142,703,cs),
(117,703,o),
(97,682,o),
(97,657,cs),
(97,40,ls),
(97,15,o),
(117,-5,o),
(142,-5,cs)
);
},
{
closed = 1;
nodes = (
(195,-203,o),
(223,-194,o),
(244,-179,cs),
(251,-174,o),
(255,-168,o),
(255,-161,cs),
(255,-148,o),
(246,-139,o),
(233,-139,cs),
(230,-139,o),
(227,-140,o),
(224,-141,cs),
(214,-144,o),
(203,-147,o),
(189,-147,cs),
(153,-147,o),
(139,-129,o),
(138,-100,cs),
(137,-50,o),
(203,-12,o),
(250,10,c),
(169,10,l),
(116,-17,o),
(65,-55,o),
(65,-119,cs),
(65,-172,o),
(110,-203,o),
(158,-203,cs)
);
}
);
};
layerId = "A99C00BB-606F-4263-964D-93C8B7F0BADD";
shapes = (
{
closed = 1;
nodes = (
(176,-203,o),
(204,-194,o),
(225,-179,cs),
(232,-174,o),
(236,-168,o),
(236,-161,cs),
(236,-148,o),
(227,-139,o),
(214,-139,cs),
(211,-139,o),
(208,-140,o),
(205,-141,cs),
(195,-144,o),
(184,-147,o),
(170,-147,cs),
(136,-147,o),
(119,-127,o),
(119,-97,cs),
(119,-40,o),
(162,-10,o),
(176,10,cs),
(185,23,o),
(188,32,o),
(188,50,cs),
(188,657,ls),
(188,682,o),
(167,703,o),
(142,703,cs),
(117,703,o),
(97,682,o),
(97,657,cs),
(97,40,ls),
(97,25,o),
(104,12,o),
(116,4,c),
(75,-23,o),
(46,-62,o),
(46,-109,cs),
(46,-167,o),
(91,-203,o),
(149,-203,cs)
);
}
);
width = 285;
}
);
unicode = 302;
},
{
glyphname = J;
kernLeft = J;
kernRight = J;
layers = (
{
anchors = (
{
name = bottom;
pos = (234,0);
},
{
name = top;
pos = (328,698);
}
);
layerId = "A99C00BB-606F-4263-964D-93C8B7F0BADD";
shapes = (
{
closed = 1;
nodes = (
(270,-10,o),
(374,39,o),
(374,230,cs),
(374,657,ls),
(374,682,o),
(353,703,o),
(328,703,cs),
(303,703,o),
(283,682,o),
(283,657,cs),
(283,224,ls),
(283,98,o),
(222,76,o),
(162,76,cs),
(127,76,o),
(96,85,o),
(69,98,cs),
(63,101,o),
(56,102,o),
(51,102,cs),
(28,102,o),
(13,82,o),
(13,61,cs),
(13,42,o),
(23,31,o),
(35,24,cs),
(72,3,o),
(117,-10,o),
(168,-10,cs)
);
}
);
width = 466;
}
);
note = J;
unicode = 74;
},
{
glyphname = K;
kernLeft = H;
kernRight = K;
layers = (
{
anchors = (
{
name = bottom;
pos = (335,0);
},
{
name = top;
pos = (335,698);
}
);
layerId = "A99C00BB-606F-4263-964D-93C8B7F0BADD";
shapes = (
{
closed = 1;
nodes = (
(167,-5,o),
(188,15,o),
(188,40,cs),
(188,227,l),
(302,342,l),
(560,13,l),
(568,2,o),
(581,-5,o),
(596,-5,cs),
(621,-5,o),
(641,15,o),
(640,39,c),
(640,50,o),
(636,59,o),
(629,68,cs),
(364,402,l),
(595,632,ls),
(602,639,o),
(605,649,o),
(606,660,cs),
(608,684,o),
(588,703,o),
(564,703,cs),
(549,703,o),
(537,695,o),
(530,687,c),
(188,339,l),
(188,657,ls),
(188,682,o),
(167,703,o),
(142,703,cs),
(117,703,o),
(97,682,o),
(97,657,cs),
(97,40,ls),
(97,15,o),
(117,-5,o),
(142,-5,cs)
);
}
);
width = 670;
}
);
metricLeft = I;
note = K;
unicode = 75;
},
{
glyphname = L;
kernLeft = H;
kernRight = L;
layers = (
{
anchors = (
{
name = bottom;
pos = (329,0);
},
{
name = center;
pos = (288,349);
},
{
name = top;
pos = (142,698);
},
{
name = topright;
pos = (301,698);
}
);
layerId = "A99C00BB-606F-4263-964D-93C8B7F0BADD";
shapes = (
{
closed = 1;
nodes = (
(515,0,ls),
(540,0,o),
(561,20,o),
(561,45,cs),
(561,70,o),
(540,91,o),
(515,91,cs),
(188,91,l),
(188,657,ls),
(188,682,o),
(167,703,o),
(142,703,cs),
(117,703,o),
(97,682,o),
(97,657,cs),
(97,63,ls),
(97,28,o),
(125,0,o),
(160,0,cs)
);
}
);
width = 576;
}
);
metricLeft = I;
note = L;
unicode = 76;
},
{
color = 3;
glyphname = Ldot;
kernLeft = H;
kernRight = L;
layers = (
{
layerId = "A99C00BB-606F-4263-964D-93C8B7F0BADD";
shapes = (
{
closed = 1;
nodes = (
(515,0,ls),
(540,0,o),
(561,20,o),
(561,45,cs),
(561,70,o),
(540,91,o),
(515,91,cs),
(188,91,l),
(188,657,ls),
(188,682,o),
(167,703,o),
(142,703,cs),
(117,703,o),
(97,682,o),
(97,657,cs),
(97,63,ls),
(97,28,o),
(125,0,o),
(160,0,cs)
);
},
{
closed = 1;
nodes = (
(427,336,ls),
(458,336,o),
(483,361,o),
(483,392,cs),
(483,398,ls),
(483,429,o),
(458,454,o),
(427,454,cs),
(417,454,ls),
(386,454,o),
(361,429,o),
(361,398,cs),
(361,392,ls),
(361,361,o),
(386,336,o),
(417,336,cs)
);
}
);
width = 576;
}
);
metricLeft = L;
metricWidth = L;
unicode = 319;
},
{
color = 3;
glyphname = Lslash;
kernLeft = Hbar;
kernRight = L;
layers = (
{
background = {
shapes = (
{
closed = 1;
nodes = (
(520,0,ls),
(545,0,o),
(566,20,o),
(566,45,cs),
(566,70,o),
(545,91,o),
(520,91,cs),
(193,91,l),
(193,657,ls),
(193,682,o),
(172,703,o),
(147,703,cs),
(122,703,o),
(102,682,o),
(102,657,cs),
(102,63,ls),
(102,28,o),
(130,0,o),
(165,0,cs)
);
},
{
closed = 1;
nodes = (
(301,501,ls),
(339,539,o),
(289,589,o),
(253,553,cs),
(35,334,ls),
(-5,294,o),
(48,248,o),
(85,285,cs)
);
}
);
};
guides = (
{
angle = 90;
pos = (22,360);
}
);
layerId = "A99C00BB-606F-4263-964D-93C8B7F0BADD";
shapes = (
{
closed = 1;
nodes = (
(520,0,ls),
(545,0,o),
(566,20,o),
(566,45,cs),
(566,70,o),
(545,91,o),
(520,91,cs),
(193,91,l),
(193,393,l),
(301,501,ls),
(311,511,o),
(315,521,o),
(315,530,cs),
(315,549,o),
(299,565,o),
(280,565,cs),
(271,565,o),
(262,562,o),
(253,553,cs),
(193,493,l),
(193,657,ls),
(193,682,o),
(172,703,o),
(147,703,cs),
(122,703,o),
(102,682,o),
(102,657,cs),
(102,401,l),
(35,334,ls),
(25,324,o),
(21,313,o),
(21,304,cs),
(21,285,o),
(37,271,o),
(55,271,cs),
(65,271,o),
(75,275,o),
(85,285,cs),
(102,302,l),
(102,63,ls),
(102,28,o),
(130,0,o),
(165,0,cs)
);
}
);
width = 581;
}
);
metricRight = L;
metricWidth = "=L+5";
unicode = 321;
},
{
glyphname = M;
kernLeft = H;
kernRight = H;
layers = (
{
anchors = (
{
name = bottom;
pos = (483,0);
},
{
name = top;
pos = (483,698);
}
);
layerId = "A99C00BB-606F-4263-964D-93C8B7F0BADD";
shapes = (
{
closed = 1;
nodes = (
(167,-5,o),
(188,15,o),
(188,40,cs),
(188,608,l),
(419,37,ls),
(430,12,o),
(454,-5,o),
(483,-5,cs),
(512,-5,o),
(536,12,o),
(547,37,cs),
(778,608,l),
(778,40,ls),
(778,15,o),
(799,-5,o),
(824,-5,cs),
(849,-5,o),
(869,15,o),
(869,40,cs),
(869,637,ls),
(869,673,o),
(840,703,o),
(804,703,cs),
(771,703,ls),
(744,703,o),
(720,685,o),
(710,661,cs),
(483,95,l),
(256,661,ls),
(246,685,o),
(222,703,o),
(195,703,cs),
(162,703,ls),
(126,703,o),
(97,673,o),
(97,637,cs),
(97,40,ls),
(97,15,o),
(117,-5,o),
(142,-5,cs)
);
}
);
width = 966;
}
);
metricLeft = I;
metricRight = I;
note = M;
unicode = 77;
},
{
glyphname = N;
kernLeft = H;
kernRight = H;
layers = (
{
anchors = (
{
name = bottom;
pos = (402,0);
},
{
name = top;
pos = (402,698);
}
);
layerId = "A99C00BB-606F-4263-964D-93C8B7F0BADD";
shapes = (
{
closed = 1;
nodes = (
(167,-5,o),
(188,15,o),
(188,40,cs),
(188,581,l),
(575,22,l),
(587,6,o),
(606,-5,o),
(628,-5,cs),
(640,-5,ls),
(676,-5,o),
(706,24,o),
(706,60,cs),
(706,657,ls),
(706,682,o),
(685,703,o),
(660,703,cs),
(635,703,o),
(615,682,o),
(615,657,cs),
(615,117,l),
(230,673,l),
(216,691,o),
(197,703,o),
(175,703,cs),
(162,703,ls),
(126,703,o),
(97,673,o),
(97,637,cs),
(97,40,ls),
(97,15,o),
(117,-5,o),
(142,-5,cs)
);
}
);
width = 803;
}
);
metricLeft = I;
metricRight = I;
note = N;
unicode = 78;
},
{
color = 3;
glyphname = Eng;
kernLeft = H;
kernRight = H;
layers = (
{
background = {
shapes = (
{
closed = 1;
nodes = (
(167,-5,o),
(188,15,o),
(188,40,cs),
(188,581,l),
(575,22,l),
(587,6,o),
(606,-5,o),
(628,-5,cs),
(640,-5,ls),
(676,-5,o),
(706,24,o),
(706,60,cs),
(706,657,ls),
(706,682,o),
(685,703,o),
(660,703,cs),
(635,703,o),
(615,682,o),
(615,657,cs),
(615,117,l),
(230,673,l),
(216,691,o),
(197,703,o),
(175,703,cs),
(162,703,ls),
(126,703,o),
(97,673,o),
(97,637,cs),
(97,40,ls),
(97,15,o),
(117,-5,o),
(142,-5,cs)
);
},
{
closed = 1;
nodes = (
(671,-240,o),
(706,-180,o),
(706,-103,cs),
(706,468,ls),
(706,494,o),
(686,514,o),
(660,514,cs),
(635,514,o),
(615,494,o),
(615,468,cs),
(615,-101,ls),
(615,-155,o),
(589,-160,o),
(554,-160,cs),
(542,-160,o),
(533,-157,o),
(524,-157,cs),
(502,-157,o),
(486,-175,o),
(486,-195,cs),
(486,-212,o),
(496,-226,o),
(512,-231,cs),
(530,-237,o),
(551,-240,o),
(575,-240,cs)
);
}
);
};
layerId = "A99C00BB-606F-4263-964D-93C8B7F0BADD";
shapes = (
{
closed = 1;
nodes = (
(671,-240,o),
(706,-170,o),
(706,-83,cs),
(706,657,ls),
(706,682,o),
(685,703,o),
(660,703,cs),
(635,703,o),
(615,682,o),
(615,657,cs),
(615,137,l),
(230,673,l),
(216,691,o),
(197,703,o),
(175,703,cs),
(162,703,ls),
(126,703,o),
(97,673,o),
(97,637,cs),
(97,40,ls),
(97,15,o),
(117,-5,o),
(142,-5,cs),
(167,-5,o),
(188,15,o),
(188,40,cs),
(188,581,l),
(615,-16,l),
(615,-81,ls),
(615,-145,o),
(589,-160,o),
(554,-160,cs),
(542,-160,o),
(533,-157,o),
(524,-157,cs),
(502,-157,o),
(486,-175,o),
(486,-195,cs),
(486,-212,o),
(496,-226,o),
(512,-231,cs),
(530,-237,o),
(551,-240,o),
(575,-240,cs)
);
}
);
width = 803;
}
);
metricLeft = N;
metricRight = N;
unicode = 330;
},
{
glyphname = O;
kernLeft = O;
kernRight = O;
layers = (
{
anchors = (
{
name = bottom;
pos = (406,0);
},
{
name = center;
pos = (406,349);
},
{
name = ogonek;
pos = (531,10);
},
{
name = top;
pos = (406,698);
},
{
name = topleft;
pos = (20,698);
},
{
name = topright;
pos = (537,698);
}
);
background = {
shapes = (
{
closed = 1;
nodes = (
(619,-10,o),
(753,140,o),
(757,349,c),
(753,558,o),
(619,708,o),
(406,708,cs),
(192,708,o),
(59,558,o),
(55,349,c),
(59,140,o),
(192,-10,o),
(406,-10,cs)
);
},
{
closed = 1;
nodes = (
(240,75,o),
(146,195,o),
(146,349,cs),
(146,503,o),
(240,623,o),
(406,623,cs),
(571,623,o),
(666,503,o),
(666,349,cs),
(666,195,o),
(571,75,o),
(406,75,cs)
);
}
);
};
layerId = "A99C00BB-606F-4263-964D-93C8B7F0BADD";
shapes = (
{
closed = 1;
nodes = (
(619,-10,o),
(753,140,o),
(757,349,c),
(753,558,o),
(619,708,o),
(406,708,cs),
(192,708,o),
(59,558,o),
(55,349,c),
(59,140,o),
(192,-10,o),
(406,-10,cs)
);
},
{
closed = 1;
nodes = (
(240,75,o),
(146,195,o),
(146,349,cs),
(146,503,o),
(240,623,o),
(406,623,cs),
(571,623,o),
(666,503,o),
(666,349,cs),
(666,195,o),
(571,75,o),
(406,75,cs)
);
}
);
width = 812;
}
);
note = O;
unicode = 79;
},
{
color = 3;
glyphname = Ohorn;
kernLeft = O;
kernRight = O;
layers = (
{
anchors = (
{
name = bottom;
pos = (406,0);
},
{
name = top;
pos = (406,698);
}
);
background = {
shapes = (
{
closed = 1;
nodes = (
(619,-10,o),
(753,140,o),
(757,349,c),
(753,558,o),
(619,708,o),
(406,708,cs),
(192,708,o),
(59,558,o),
(55,349,c),
(59,140,o),
(192,-10,o),
(406,-10,cs)
);
},
{
closed = 1;
nodes = (
(240,75,o),
(146,195,o),
(146,349,cs),
(146,503,o),
(240,623,o),
(406,623,cs),
(571,623,o),
(666,503,o),
(666,349,cs),
(666,195,o),
(571,75,o),
(406,75,cs)
);
},
{
closed = 1;
nodes = (
(696,626,o),
(738,687,o),
(738,753,cs),
(738,816,o),
(718,853,o),
(688,853,cs),
(670,853,o),
(655,839,o),
(655,820,cs),
(655,805,o),
(662,791,o),
(662,769,cs),
(662,724,o),
(637,698,o),
(586,698,cs),
(569,698,o),
(556,698,o),
(537,698,c),
(537,634,l),
(564,628,o),
(580,626,o),
(596,626,cs)
);
}
);
};
layerId = "A99C00BB-606F-4263-964D-93C8B7F0BADD";
shapes = (
{
closed = 1;
nodes = (
(619,-10,o),
(753,140,o),
(757,349,c),
(755,468,o),
(711,567,o),
(634,631,c),
(726,644,o),
(757,696,o),
(757,753,cs),
(757,816,o),
(737,853,o),
(707,853,cs),
(689,853,o),
(674,839,o),
(674,820,cs),
(674,805,o),
(681,791,o),
(681,769,cs),
(681,724,o),
(656,696,o),
(587,696,cs),
(506,696,o),
(476,708,o),
(414,708,cs),
(190,708,o),
(59,558,o),
(55,349,c),
(59,140,o),
(192,-10,o),
(406,-10,cs)
);
},
{
closed = 1;
nodes = (
(240,75,o),
(146,195,o),
(146,349,cs),
(146,503,o),
(240,623,o),
(406,623,cs),
(571,623,o),
(666,503,o),
(666,349,cs),
(666,195,o),
(571,75,o),
(406,75,cs)
);
}
);
width = 811;
}
);
unicode = 416;
},
{
color = 3;
glyphname = Oogonek;
kernLeft = O;
kernRight = O;
layers = (
{
anchors = (
{
name = top;
pos = (406,698);
}
);
background = {
shapes = (
{
closed = 1;
nodes = (
(619,-10,o),
(753,140,o),
(757,349,c),
(753,558,o),
(619,708,o),
(406,708,cs),
(192,708,o),
(59,558,o),
(55,349,c),
(59,140,o),
(192,-10,o),
(406,-10,cs)
);
},
{
closed = 1;
nodes = (
(240,75,o),
(146,195,o),
(146,349,cs),
(146,503,o),
(240,623,o),
(406,623,cs),
(571,623,o),
(666,503,o),
(666,349,cs),
(666,195,o),
(571,75,o),
(406,75,cs)
);
},
{
closed = 1;
nodes = (
(476,-203,o),
(504,-194,o),
(525,-179,cs),
(532,-174,o),
(536,-168,o),
(536,-161,cs),
(536,-148,o),
(527,-139,o),
(514,-139,cs),
(511,-139,o),
(508,-140,o),
(505,-141,cs),
(495,-144,o),
(484,-147,o),
(470,-147,cs),
(434,-147,o),
(419,-129,o),
(419,-100,cs),
(419,-50,o),
(484,-12,o),
(531,10,c),
(450,10,l),
(397,-17,o),
(346,-55,o),
(346,-119,cs),
(346,-172,o),
(391,-203,o),
(439,-203,cs)
);
}
);
};
layerId = "A99C00BB-606F-4263-964D-93C8B7F0BADD";
shapes = (
{
closed = 1;
nodes = (
(476,-203,o),
(504,-194,o),
(525,-179,cs),
(532,-174,o),
(536,-168,o),
(536,-161,cs),
(536,-148,o),
(527,-139,o),
(514,-139,cs),
(511,-139,o),
(508,-140,o),
(505,-141,cs),
(495,-144,o),
(484,-147,o),
(470,-147,cs),
(434,-147,o),
(419,-129,o),
(419,-100,cs),
(419,-54,o),
(482,-11,o),
(532,9,cs),
(674,65,o),
(754,183,o),
(757,349,c),
(753,558,o),
(619,708,o),
(406,708,cs),
(192,708,o),
(59,558,o),
(55,349,c),
(59,140,o),
(192,-10,o),
(406,-10,cs),
(415,-10,l),
(377,-35,o),
(346,-69,o),
(346,-119,cs),
(346,-172,o),
(391,-203,o),
(439,-203,cs)
);
},
{
closed = 1;
nodes = (
(240,75,o),
(146,195,o),
(146,349,cs),
(146,503,o),
(240,623,o),
(406,623,cs),
(571,623,o),
(666,503,o),
(666,349,cs),
(666,195,o),
(571,75,o),
(406,75,cs)
);
}
);
width = 811;
}
);
unicode = 490;
},
{
glyphname = Oslash;
kernLeft = O;
kernRight = O;
layers = (
{
anchors = (
{
name = bottom;
pos = (406,0);
},
{
name = top;
pos = (406,698);
}
);
layerId = "A99C00BB-606F-4263-964D-93C8B7F0BADD";
shapes = (
{
closed = 1;
nodes = (
(166,-30,o),
(174,-27,o),
(179,-20,cs),
(219,37,l),
(271,7,o),
(334,-10,o),
(406,-10,cs),
(619,-10,o),
(753,140,o),
(757,349,c),
(754,467,o),
(711,566,o),
(635,630,c),
(674,686,ls),
(678,692,o),
(680,697,o),
(680,703,cs),
(680,716,o),
(670,727,o),
(655,727,cs),
(647,727,o),
(639,724,o),
(634,717,cs),
(594,659,l),
(542,690,o),
(478,708,o),
(406,708,cs),
(192,708,o),
(59,558,o),
(55,349,c),
(57,230,o),
(101,130,o),
(178,66,c),
(139,11,ls),
(135,5,o),
(133,0,o),
(133,-6,cs),
(133,-19,o),
(143,-30,o),
(158,-30,cs)
);
},
{
closed = 1;
nodes = (
(175,189,o),
(146,263,o),
(146,349,cs),
(146,503,o),
(240,623,o),
(406,623,cs),
(459,623,o),
(505,610,o),
(543,588,c),
(229,139,l)
);
},
{
closed = 1;
nodes = (
(353,75,o),
(307,87,o),
(269,109,c),
(584,558,l),
(637,508,o),
(666,433,o),
(666,349,cs),
(666,195,o),
(571,75,o),
(406,75,cs)
);
}
);
width = 812;
}
);
metricLeft = O;
metricRight = O;
note = Oslash;
unicode = 216;
},
{
color = 3;
glyphname = OE;
kernLeft = O;
kernRight = E;
layers = (
{
anchors = (
{
name = bottom;
pos = (604,0);
},
{
name = top;
pos = (604,698);
}
);
background = {
shapes = (
{
closed = 1;
nodes = (
(619,-10,o),
(753,140,o),
(757,349,c),
(753,558,o),
(619,708,o),
(406,708,cs),
(192,708,o),
(59,558,o),
(55,349,c),
(59,140,o),
(192,-10,o),
(406,-10,cs)
);
},
{
closed = 1;
nodes = (
(240,75,o),
(146,195,o),
(146,349,cs),
(146,503,o),
(240,623,o),
(406,623,cs),
(571,623,o),
(666,503,o),
(666,349,cs),
(666,195,o),
(571,75,o),
(406,75,cs)
);
},
{
closed = 1;
nodes = (
(1112,0,ls),
(1136,0,o),
(1155,18,o),
(1155,42,cs),
(1155,66,o),
(1136,85,o),
(1112,85,cs),
(757,85,l),
(757,307,l),
(1076,307,ls),
(1100,307,o),
(1119,325,o),
(1119,349,cs),
(1119,373,o),
(1100,392,o),
(1076,392,cs),
(757,392,l),
(757,613,l),
(1112,613,ls),
(1136,613,o),
(1155,631,o),
(1155,655,cs),
(1155,679,o),
(1136,698,o),
(1112,698,cs),
(711,698,ls),
(686,698,o),
(666,677,o),
(666,652,cs),
(666,45,ls),
(666,20,o),
(686,0,o),
(711,0,cs)
);
}
);
};
layerId = "A99C00BB-606F-4263-964D-93C8B7F0BADD";
shapes = (
{
closed = 1;
nodes = (
(521,-10,o),
(610,38,o),
(666,119,c),
(666,45,ls),
(666,20,o),
(686,0,o),
(711,0,cs),
(1112,0,ls),
(1136,0,o),
(1155,18,o),
(1155,42,cs),
(1155,66,o),
(1136,85,o),
(1112,85,cs),
(757,85,l),
(757,307,l),
(1076,307,ls),
(1100,307,o),
(1119,325,o),
(1119,349,cs),
(1119,373,o),
(1100,392,o),
(1076,392,cs),
(757,392,l),
(757,613,l),
(1112,613,ls),
(1136,613,o),
(1155,631,o),
(1155,655,cs),
(1155,679,o),
(1136,698,o),
(1112,698,cs),
(711,698,ls),
(686,698,o),
(666,677,o),
(666,652,cs),
(666,579,l),
(610,660,o),
(521,708,o),
(406,708,cs),
(192,708,o),
(59,558,o),
(55,349,c),
(59,140,o),
(192,-10,o),
(406,-10,cs)
);
},
{
closed = 1;
nodes = (
(240,75,o),
(146,195,o),
(146,349,cs),
(146,503,o),
(240,623,o),
(406,623,cs),
(571,623,o),
(666,503,o),
(666,349,cs),
(666,195,o),
(571,75,o),
(406,75,cs)
);
}
);
width = 1207;
}
);
metricLeft = O;
metricRight = E;
unicode = 338;
},
{
glyphname = P;
kernLeft = H;
kernRight = P;
layers = (
{
anchors = (
{
name = bottom;
pos = (335,0);
},
{
name = top;
pos = (335,698);
}
);
layerId = "A99C00BB-606F-4263-964D-93C8B7F0BADD";
shapes = (
{
closed = 1;
nodes = (
(167,-5,o),
(188,15,o),
(188,40,cs),
(188,254,l),
(370,254,ls),
(572,254,o),
(637,370,o),
(637,476,cs),
(637,582,o),
(572,698,o),
(370,698,cs),
(142,698,ls),
(117,698,o),
(97,677,o),
(97,652,cs),
(97,40,ls),
(97,15,o),
(117,-5,o),
(142,-5,cs)
);
},
{
closed = 1;
nodes = (
(188,612,l),
(361,612,ls),
(510,612,o),
(546,541,o),
(546,476,cs),
(546,411,o),
(510,340,o),
(361,340,cs),
(188,340,l)
);
}
);
width = 672;
}
);
metricLeft = I;
note = P;
unicode = 80;
},
{
glyphname = Thorn;
kernLeft = H;
kernRight = Thorn;
layers = (
{
anchors = (
{
name = bottom;
pos = (336,0);
},
{
name = top;
pos = (336,698);
}
);
layerId = "A99C00BB-606F-4263-964D-93C8B7F0BADD";
shapes = (
{
closed = 1;
nodes = (
(167,-5,o),
(188,15,o),
(188,40,cs),
(188,142,l),
(370,142,ls),
(572,142,o),
(637,258,o),
(637,364,cs),
(637,470,o),
(572,586,o),
(370,586,cs),
(188,586,l),
(188,657,ls),
(188,682,o),
(167,703,o),
(142,703,cs),
(117,703,o),
(97,682,o),
(97,657,cs),
(97,40,ls),
(97,15,o),
(117,-5,o),
(142,-5,cs)
);
},
{
closed = 1;
nodes = (
(188,500,l),
(361,500,ls),
(510,500,o),
(546,429,o),
(546,364,cs),
(546,299,o),
(510,228,o),
(361,228,cs),
(188,228,l)
);
}
);
width = 672;
}
);
metricLeft = I;
note = Thorn;
unicode = 222;
},
{
glyphname = Q;
kernLeft = O;
kernRight = O;
layers = (
{
anchors = (
{
name = bottom;
pos = (406,0);
},
{
name = top;
pos = (406,698);
}
);
layerId = "A99C00BB-606F-4263-964D-93C8B7F0BADD";
shapes = (
{
closed = 1;
nodes = (
(631,-152,o),
(651,-132,o),
(650,-109,c),
(650,-98,o),
(645,-87,o),
(638,-80,c),
(550,17,l),
(678,70,o),
(754,193,o),
(757,349,c),
(753,558,o),
(619,708,o),
(406,708,cs),
(192,708,o),
(59,558,o),
(55,349,c),
(59,140,o),
(192,-10,o),
(406,-10,cs),
(427,-10,o),
(447,-9,o),
(466,-6,c),
(575,-136,ls),
(583,-146,o),
(594,-152,o),
(607,-152,cs)
);
},
{
closed = 1;
nodes = (
(240,75,o),
(146,195,o),
(146,349,cs),
(146,503,o),
(240,623,o),
(406,623,cs),
(571,623,o),
(666,503,o),
(666,349,cs),
(666,195,o),
(571,75,o),
(406,75,cs)
);
}
);
width = 812;
}
);
metricLeft = O;
metricRight = O;
note = Q;
unicode = 81;
},
{
glyphname = R;
kernLeft = H;
kernRight = R;
layers = (
{
anchors = (
{
name = bottom;
pos = (356,0);
},
{
name = top;
pos = (356,698);
}
);
layerId = "A99C00BB-606F-4263-964D-93C8B7F0BADD";
shapes = (
{
closed = 1;
nodes = (
(167,-5,o),
(188,15,o),
(188,40,cs),
(188,272,l),
(395,272,ls),
(546,272,o),
(550,136,o),
(550,70,cs),
(550,40,ls),
(550,13,o),
(568,-5,o),
(596,-5,cs),
(621,-5,o),
(641,15,o),
(641,40,cs),
(641,86,ls),
(641,142,o),
(627,285,o),
(516,314,c),
(604,344,o),
(647,418,o),
(647,495,cs),
(647,610,o),
(565,698,o),
(375,698,cs),
(142,698,ls),
(117,698,o),
(97,677,o),
(97,652,cs),
(97,40,ls),
(97,15,o),
(117,-5,o),
(142,-5,cs)
);
},
{
closed = 1;
nodes = (
(188,612,l),
(364,612,ls),
(512,612,o),
(556,562,o),
(556,488,cs),
(556,403,o),
(481,358,o),
(369,358,cs),
(188,358,l)
);
}
);
width = 712;
}
);
metricLeft = I;
note = R;
unicode = 82;
},
{
glyphname = S;
kernLeft = S;
kernRight = S;
layers = (
{
anchors = (
{
name = bottom;
pos = (308,0);
},
{
name = top;
pos = (308,698);
}
);
layerId = "A99C00BB-606F-4263-964D-93C8B7F0BADD";
shapes = (
{
closed = 1;
nodes = (
(472,-10,o),
(573,72,o),
(573,185,cs),
(573,449,o),
(149,337,o),
(149,510,cs),
(149,585,o),
(226,624,o),
(327,624,cs),
(388,624,o),
(442,613,o),
(488,597,c),
(493,595,o),
(499,593,o),
(504,593,cs),
(529,593,o),
(544,615,o),
(544,635,cs),
(544,659,o),
(530,670,o),
(516,675,cs),
(462,695,o),
(395,708,o),
(317,708,cs),
(148,708,o),
(58,614,o),
(58,503,cs),
(58,257,o),
(483,339,o),
(483,191,cs),
(483,104,o),
(407,76,o),
(308,76,cs),
(222,76,o),
(156,97,o),
(111,117,cs),
(104,120,o),
(98,121,o),
(92,121,cs),
(67,121,o),
(51,101,o),
(51,79,cs),
(51,61,o),
(64,44,o),
(79,38,cs),
(137,13,o),
(217,-10,o),
(317,-10,cs)
);
}
);
width = 616;
}
);
note = S;
unicode = 83;
},
{
color = 3;
glyphname = Germandbls;
kernLeft = H;
kernRight = B;
layers = (
{
background = {
shapes = (
{
closed = 1;
nodes = (
(561,-10,o),
(636,79,o),
(636,206,cs),
(636,328,o),
(564,410,o),
(425,410,c),
(429,375,l),
(552,510,ls),
(615,580,o),
(589,698,o),
(463,698,cs),
(222,698,ls),
(137,698,o),
(97,647,o),
(97,572,cs),
(97,40,ls),
(97,15,o),
(117,-5,o),
(142,-5,cs),
(167,-5,o),
(188,15,o),
(188,40,cs),
(188,577,ls),
(188,597,o),
(205,613,o),
(224,613,cs),
(439,613,ls),
(483,613,o),
(495,577,o),
(460,538,cs),
(349,415,ls),
(314,376,o),
(330,334,o),
(371,334,cs),
(486,334,o),
(548,299,o),
(548,210,cs),
(548,132,o),
(507,75,o),
(424,75,cs),
(363,75,o),
(334,88,o),
(300,107,cs),
(291,112,o),
(286,113,o),
(278,113,cs),
(257,113,o),
(240,92,o),
(240,73,cs),
(240,58,o),
(248,46,o),
(260,38,cs),
(294,16,o),
(344,-10,o),
(424,-10,cs)
);
}
);
};
layerId = "A99C00BB-606F-4263-964D-93C8B7F0BADD";
shapes = (
{
closed = 1;
nodes = (
(561,-10,o),
(636,79,o),
(636,206,cs),
(636,328,o),
(564,410,o),
(425,410,c),
(429,375,l),
(552,510,ls),
(574,534,o),
(585,564,o),
(585,593,cs),
(585,648,o),
(545,698,o),
(463,698,cs),
(222,698,ls),
(137,698,o),
(97,647,o),
(97,572,cs),
(97,40,ls),
(97,15,o),
(117,-5,o),
(142,-5,cs),
(167,-5,o),
(188,15,o),
(188,40,cs),
(188,577,ls),
(188,597,o),
(205,613,o),
(224,613,cs),
(439,613,ls),
(466,613,o),
(480,600,o),
(480,581,cs),
(480,569,o),
(474,554,o),
(460,538,cs),
(349,415,ls),
(336,400,o),
(330,385,o),
(330,372,cs),
(330,350,o),
(346,334,o),
(371,334,cs),
(486,334,o),
(548,299,o),
(548,210,cs),
(548,132,o),
(507,75,o),
(424,75,cs),
(363,75,o),
(334,88,o),
(300,107,cs),
(291,112,o),
(286,113,o),
(278,113,cs),
(257,113,o),
(240,92,o),
(240,73,cs),
(240,58,o),
(248,46,o),
(260,38,cs),
(294,16,o),
(344,-10,o),
(424,-10,cs)
);
}
);
width = 688;
}
);
metricLeft = I;
metricRight = B;
unicode = 7838;
},
{
color = 3;
glyphname = Schwa;
kernLeft = O;
kernRight = O;
layers = (
{
background = {
shapes = (
{
closed = 1;
nodes = (
(288,708,o),
(221,680,o),
(158,646,cs),
(145,639,o),
(137,629,o),
(136,610,cs),
(135,589,o),
(151,570,o),
(176,570,cs),
(181,570,o),
(188,571,o),
(194,574,cs),
(248,601,o),
(299,621,o),
(377,621,cs),
(554,621,o),
(645,503,o),
(645,349,cs),
(645,195,o),
(554,77,o),
(377,77,cs),
(299,77,o),
(248,97,o),
(194,124,cs),
(188,127,o),
(181,128,o),
(176,128,cs),
(151,128,o),
(135,109,o),
(136,88,cs),
(137,69,o),
(145,59,o),
(158,52,cs),
(221,18,o),
(288,-10,o),
(386,-10,cs),
(585,-10,o),
(736,126,o),
(736,349,cs),
(736,572,o),
(585,708,o),
(386,708,cs)
);
},
{
closed = 1;
nodes = (
(1399,-10,o),
(1533,140,o),
(1537,349,c),
(1533,558,o),
(1399,708,o),
(1186,708,cs),
(972,708,o),
(839,558,o),
(835,349,c),
(839,140,o),
(972,-10,o),
(1186,-10,cs)
);
},
{
closed = 1;
nodes = (
(1020,75,o),
(926,195,o),
(926,349,cs),
(926,503,o),
(1020,623,o),
(1186,623,cs),
(1351,623,o),
(1446,503,o),
(1446,349,cs),
(1446,195,o),
(1351,75,o),
(1186,75,cs)
);
}
);
};
layerId = "A99C00BB-606F-4263-964D-93C8B7F0BADD";
shapes = (
{
closed = 1;
nodes = (
(599,-10,o),
(733,140,o),
(737,349,cs),
(737,572,o),
(586,708,o),
(384,708,cs),
(279,708,o),
(202,682,o),
(139,646,cs),
(126,639,o),
(118,629,o),
(117,610,cs),
(116,589,o),
(132,570,o),
(157,570,cs),
(162,570,o),
(169,571,o),
(175,574,cs),
(229,603,o),
(290,621,o),
(376,621,cs),
(555,621,o),
(646,503,o),
(646,349,cs),
(646,195,o),
(551,75,o),
(396,75,cs),
(256,75,o),
(166,172,o),
(158,309,c),
(675,309,l),
(675,391,l),
(102,391,ls),
(77,391,o),
(55,370,o),
(55,339,cs),
(55,132,o),
(192,-10,o),
(396,-10,cs)
);
}
);
width = 792;
}
);
metricLeft = O;
metricRight = O;
unicode = 399;
},
{
glyphname = T;
kernLeft = T;
kernRight = T;
layers = (
{
anchors = (
{
name = bottom;
pos = (305,0);
},
{
name = center;
pos = (305,349);
},
{
name = top;
pos = (305,698);
}
);
layerId = "A99C00BB-606F-4263-964D-93C8B7F0BADD";
shapes = (
{
closed = 1;
nodes = (
(329,-5,o),
(350,15,o),
(350,40,cs),
(350,613,l),
(553,613,ls),
(577,613,o),
(596,631,o),
(596,655,cs),
(596,679,o),
(577,698,o),
(553,698,cs),
(55,698,ls),
(31,698,o),
(13,679,o),
(13,655,cs),
(13,631,o),
(31,613,o),
(55,613,cs),
(259,613,l),
(259,40,ls),
(259,15,o),
(279,-5,o),
(304,-5,cs)
);
}
);
width = 609;
}
);
note = T;
unicode = 84;
},
{
color = 3;
glyphname = Tbar;
kernLeft = T;
kernRight = T;
layers = (
{
background = {
shapes = (
{
closed = 1;
nodes = (
(464,313,ls),
(483,313,o),
(500,327,o),
(500,348,cs),
(500,369,o),
(483,384,o),
(464,384,cs),
(144,384,ls),
(125,384,o),
(109,369,o),
(109,348,cs),
(109,327,o),
(125,313,o),
(144,313,cs)
);
},
{
closed = 1;
nodes = (
(329,-5,o),
(350,15,o),
(350,40,cs),
(350,613,l),
(553,613,ls),
(577,613,o),
(596,631,o),
(596,655,cs),
(596,679,o),
(577,698,o),
(553,698,cs),
(55,698,ls),
(31,698,o),
(13,679,o),
(13,655,cs),
(13,631,o),
(31,613,o),
(55,613,cs),
(259,613,l),
(259,40,ls),
(259,15,o),
(279,-5,o),
(304,-5,cs)
);
}
);
};
layerId = "A99C00BB-606F-4263-964D-93C8B7F0BADD";
shapes = (
{
closed = 1;
nodes = (
(329,-5,o),
(350,15,o),
(350,40,cs),
(350,313,l),
(464,313,ls),
(483,313,o),
(500,327,o),
(500,348,cs),
(500,369,o),
(483,384,o),
(464,384,cs),
(350,384,l),
(350,613,l),
(553,613,ls),
(577,613,o),
(596,631,o),
(596,655,cs),
(596,679,o),
(577,698,o),
(553,698,cs),
(55,698,ls),
(31,698,o),
(13,679,o),
(13,655,cs),
(13,631,o),
(31,613,o),
(55,613,cs),
(259,613,l),
(259,384,l),
(144,384,ls),
(125,384,o),
(109,369,o),
(109,348,cs),
(109,327,o),
(125,313,o),
(144,313,cs),
(259,313,l),
(259,40,ls),
(259,15,o),
(279,-5,o),
(304,-5,cs)
);
}
);
width = 609;
}
);
metricLeft = T;
metricRight = T;
unicode = 358;
},
{
color = 10;
glyphname = Tcommaaccent;
kernLeft = T;
kernRight = T;
layers = (
{
background = {
shapes = (
{
closed = 1;
nodes = (
(329,-5,o),
(350,15,o),
(350,40,cs),
(350,613,l),
(553,613,ls),
(577,613,o),
(596,631,o),
(596,655,cs),
(596,679,o),
(577,698,o),
(553,698,cs),
(55,698,ls),
(31,698,o),
(13,679,o),
(13,655,cs),
(13,631,o),
(31,613,o),
(55,613,cs),
(259,613,l),
(259,40,ls),
(259,15,o),
(279,-5,o),
(304,-5,cs)
);
},
{
closed = 1;
nodes = (
(276,-286,o),
(283,-283,o),
(285,-281,c),
(320,-260,o),
(359,-222,o),
(359,-150,cs),
(359,-103,l),
(359,-98,ls),
(359,-70,o),
(336,-47,o),
(309,-47,cs),
(300,-47,ls),
(272,-47,o),
(249,-70,o),
(249,-98,cs),
(249,-103,ls),
(249,-131,o),
(272,-153,o),
(300,-153,cs),
(303,-153,l),
(303,-202,o),
(284,-221,o),
(258,-236,c),
(249,-242,o),
(244,-249,o),
(244,-259,cs),
(244,-273,o),
(255,-286,o),
(270,-286,cs)
);
}
);
};
layerId = "A99C00BB-606F-4263-964D-93C8B7F0BADD";
shapes = (
{
ref = T;
},
{
pos = (105,0);
ref = commaaccentcomb;
}
);
width = 609;
}
);
note = uni021A;
unicode = 538;
},
{
glyphname = U;
kernLeft = U;
kernRight = U;
layers = (
{
anchors = (
{
name = bottom;
pos = (379,0);
},
{
name = ogonek;
pos = (490,10);
},
{
name = top;
pos = (379,698);
},
{
name = topright;
pos = (620,698);
}
);
layerId = "A99C00BB-606F-4263-964D-93C8B7F0BADD";
shapes = (
{
closed = 1;
nodes = (
(513,-10,o),
(666,74,o),
(666,262,cs),
(666,657,ls),
(666,682,o),
(645,703,o),
(620,703,cs),
(595,703,o),
(575,682,o),
(575,657,cs),
(575,259,ls),
(575,134,o),
(477,73,o),
(379,73,cs),
(281,73,o),
(183,134,o),
(183,259,cs),
(183,657,ls),
(183,682,o),
(162,703,o),
(137,703,cs),
(112,703,o),
(92,682,o),
(92,657,cs),
(92,262,ls),
(92,74,o),
(245,-10,o),
(379,-10,cs)
);
}
);
width = 758;
}
);
metricLeft = "=I-5";
metricRight = "=I-5";
note = U;
unicode = 85;
},
{
color = 3;
glyphname = Uhorn;
kernLeft = U;
kernRight = Uhorn;
layers = (
{
anchors = (
{
name = bottom;
pos = (379,0);
},
{
name = top;
pos = (379,698);
}
);
background = {
shapes = (
{
closed = 1;
nodes = (
(513,-10,o),
(666,74,o),
(666,262,cs),
(666,657,l),
(620,703,l),
(595,703,o),
(575,682,o),
(575,657,cs),
(575,259,ls),
(575,134,o),
(477,73,o),
(379,73,cs),
(281,73,o),
(183,134,o),
(183,259,cs),
(183,657,ls),
(183,682,o),
(162,703,o),
(137,703,cs),
(112,703,o),
(92,682,o),
(92,657,cs),
(92,262,ls),
(92,74,o),
(245,-10,o),
(379,-10,cs)
);
},
{
closed = 1;
nodes = (
(776,626,o),
(819,687,o),
(819,753,cs),
(819,816,o),
(799,853,o),
(769,853,cs),
(751,853,o),
(736,839,o),
(736,820,cs),
(736,805,o),
(743,791,o),
(743,769,cs),
(743,724,o),
(718,698,o),
(676,698,cs),
(652,698,o),
(639,703,o),
(620,703,c),
(620,634,l),
(647,628,o),
(662,626,o),
(678,626,cs)
);
}
);
};
layerId = "A99C00BB-606F-4263-964D-93C8B7F0BADD";
shapes = (
{
closed = 1;
nodes = (
(513,-10,o),
(666,74,o),
(666,262,cs),
(666,626,l),
(678,626,ls),
(776,626,o),
(819,687,o),
(819,753,cs),
(819,816,o),
(799,853,o),
(769,853,cs),
(751,853,o),
(736,839,o),
(736,820,cs),
(736,805,o),
(743,791,o),
(743,769,cs),
(743,724,o),
(718,698,o),
(676,698,cs),
(652,698,o),
(639,703,o),
(620,703,cs),
(595,703,o),
(575,682,o),
(575,657,cs),
(575,259,ls),
(575,134,o),
(477,73,o),
(379,73,cs),
(281,73,o),
(183,134,o),
(183,259,cs),
(183,657,ls),
(183,682,o),
(162,703,o),
(137,703,cs),
(112,703,o),
(92,682,o),
(92,657,cs),
(92,262,ls),
(92,74,o),
(245,-10,o),
(379,-10,cs)
);
}
);
width = 763;
}
);
metricLeft = U;
metricWidth = "=U+5";
unicode = 431;
},
{
color = 3;
glyphname = Uogonek;
kernLeft = U;
kernRight = U;
layers = (
{
background = {
shapes = (
{
closed = 1;
nodes = (
(513,-10,o),
(666,74,o),
(666,262,cs),
(666,657,ls),
(666,682,o),
(645,703,o),
(620,703,cs),
(595,703,o),
(575,682,o),
(575,657,cs),
(575,259,ls),
(575,134,o),
(477,73,o),
(379,73,cs),
(281,73,o),
(183,134,o),
(183,259,cs),
(183,657,ls),
(183,682,o),
(162,703,o),
(137,703,cs),
(112,703,o),
(92,682,o),
(92,657,cs),
(92,262,ls),
(92,74,o),
(245,-10,o),
(379,-10,cs)
);
},
{
closed = 1;
nodes = (
(435,-203,o),
(463,-194,o),
(484,-179,cs),
(491,-174,o),
(495,-168,o),
(495,-161,cs),
(495,-148,o),
(486,-139,o),
(473,-139,cs),
(470,-139,o),
(467,-140,o),
(464,-141,cs),
(454,-144,o),
(443,-147,o),
(429,-147,cs),
(393,-147,o),
(379,-129,o),
(378,-100,cs),
(377,-50,o),
(443,-12,o),
(490,10,c),
(409,10,l),
(356,-17,o),
(305,-55,o),
(305,-119,cs),
(305,-172,o),
(350,-203,o),
(398,-203,cs)
);
}
);
};
layerId = "A99C00BB-606F-4263-964D-93C8B7F0BADD";
shapes = (
{
closed = 1;
nodes = (
(435,-203,o),
(463,-194,o),
(484,-179,cs),
(491,-174,o),
(495,-168,o),
(495,-161,cs),
(495,-148,o),
(486,-139,o),
(473,-139,cs),
(470,-139,o),
(467,-140,o),
(464,-141,cs),
(454,-144,o),
(443,-147,o),
(429,-147,cs),
(393,-147,o),
(379,-129,o),
(378,-100,cs),
(377,-54,o),
(442,-8,o),
(494,11,cs),
(588,46,o),
(666,128,o),
(666,262,cs),
(666,657,ls),
(666,682,o),
(645,703,o),
(620,703,cs),
(595,703,o),
(575,682,o),
(575,657,cs),
(575,259,ls),
(575,134,o),
(477,73,o),
(379,73,cs),
(281,73,o),
(183,134,o),
(183,259,cs),
(183,657,ls),
(183,682,o),
(162,703,o),
(137,703,cs),
(112,703,o),
(92,682,o),
(92,657,cs),
(92,262,ls),
(92,76,o),
(241,-8,o),
(374,-10,c),
(336,-35,o),
(305,-69,o),
(305,-119,cs),
(305,-172,o),
(350,-203,o),
(398,-203,cs)
);
}
);
width = 758;
}
);
unicode = 370;
},
{
glyphname = V;
kernLeft = V;
kernRight = V;
layers = (
{
anchors = (
{
name = bottom;
pos = (347,0);
},
{
name = top;
pos = (347,698);
}
);
layerId = "A99C00BB-606F-4263-964D-93C8B7F0BADD";
shapes = (
{
closed = 1;
nodes = (
(358,-5,ls),
(386,-5,o),
(407,12,o),
(420,41,cs),
(667,640,ls),
(669,645,o),
(670,652,o),
(670,657,cs),
(670,684,o),
(653,703,o),
(625,703,cs),
(607,703,o),
(590,691,o),
(582,672,cs),
(347,86,l),
(112,672,ls),
(104,691,o),
(87,703,o),
(69,703,cs),
(41,703,o),
(24,684,o),
(24,657,cs),
(24,652,o),
(25,645,o),
(27,640,cs),
(274,41,ls),
(287,12,o),
(308,-5,o),
(336,-5,cs)
);
}
);
width = 694;
}
);
note = V;
unicode = 86;
},
{
glyphname = W;
kernLeft = W;
kernRight = W;
layers = (
{
anchors = (
{
name = bottom;
pos = (506,0);
},
{
name = top;
pos = (506,698);
}
);
layerId = "A99C00BB-606F-4263-964D-93C8B7F0BADD";
shapes = (
{
closed = 1;
nodes = (
(313,-5,o),
(337,14,o),
(345,40,cs),
(506,550,l),
(667,40,ls),
(675,14,o),
(699,-5,o),
(726,-5,cs),
(751,-5,o),
(774,9,o),
(785,40,cs),
(981,642,l),
(983,649,o),
(984,654,o),
(984,659,c),
(986,684,o),
(966,703,o),
(940,703,cs),
(918,703,o),
(901,688,o),
(895,667,cs),
(727,115,l),
(558,665,ls),
(551,687,o),
(530,703,o),
(506,703,cs),
(482,703,o),
(461,687,o),
(454,665,cs),
(285,115,l),
(117,667,ls),
(111,688,o),
(94,703,o),
(72,703,cs),
(46,703,o),
(26,684,o),
(28,659,c),
(28,654,o),
(29,649,o),
(31,642,c),
(227,40,ls),
(238,9,o),
(261,-5,o),
(286,-5,cs)
);
}
);
width = 1011;
}
);
note = W;
unicode = 87;
},
{
glyphname = X;
kernLeft = X;
kernRight = X;
layers = (
{
anchors = (
{
name = bottom;
pos = (336,0);
},
{
name = top;
pos = (336,698);
}
);
layerId = "A99C00BB-606F-4263-964D-93C8B7F0BADD";
shapes = (
{
closed = 1;
nodes = (
(101,-5,o),
(112,2,o),
(121,13,cs),
(332,283,l),
(546,14,l),
(554,3,o),
(567,-5,o),
(582,-5,cs),
(610,-5,o),
(627,16,o),
(627,40,cs),
(627,50,o),
(624,59,o),
(618,66,cs),
(387,350,l),
(618,635,l),
(623,642,o),
(626,651,o),
(626,660,cs),
(626,684,o),
(606,703,o),
(582,703,cs),
(568,703,o),
(556,697,o),
(549,687,c),
(338,417,l),
(127,685,l),
(119,696,o),
(105,703,o),
(90,703,cs),
(65,703,o),
(46,684,o),
(46,659,cs),
(46,648,o),
(49,639,o),
(55,631,c),
(284,349,l),
(53,65,l),
(47,57,o),
(44,47,o),
(44,37,cs),
(44,14,o),
(63,-5,o),
(86,-5,cs)
);
}
);
width = 671;
}
);
note = X;
unicode = 88;
},
{
glyphname = Y;
kernLeft = Y;
kernRight = Y;
layers = (
{
anchors = (
{
name = bottom;
pos = (320,0);
},
{
name = top;
pos = (320,698);
},
{
name = topleft;
pos = (17,698);
}
);
layerId = "A99C00BB-606F-4263-964D-93C8B7F0BADD";
shapes = (
{
closed = 1;
nodes = (
(345,-5,o),
(365,15,o),
(365,40,cs),
(365,295,l),
(605,630,l),
(610,638,o),
(613,647,o),
(613,657,c),
(614,682,o),
(595,703,o),
(569,703,cs),
(552,703,o),
(539,695,o),
(529,680,cs),
(320,376,l),
(111,680,ls),
(101,695,o),
(88,703,o),
(71,703,cs),
(45,703,o),
(27,682,o),
(27,657,c),
(27,647,o),
(30,638,o),
(35,630,c),
(274,295,l),
(274,40,ls),
(274,15,o),
(295,-5,o),
(320,-5,cs)
);
}
);
width = 639;
}
);
note = Y;
unicode = 89;
},
{
glyphname = Z;
kernLeft = Z;
kernRight = Z;
layers = (
{
anchors = (
{
name = bottom;
pos = (319,0);
},
{
name = top;
pos = (319,698);
}
);
layerId = "A99C00BB-606F-4263-964D-93C8B7F0BADD";
shapes = (
{
closed = 1;
nodes = (
(550,0,ls),
(574,0,o),
(593,18,o),
(593,42,cs),
(593,66,o),
(574,85,o),
(550,85,cs),
(158,85,l),
(571,596,l),
(581,607,o),
(587,623,o),
(587,636,cs),
(587,669,o),
(564,698,o),
(526,698,cs),
(92,698,ls),
(68,698,o),
(49,678,o),
(49,654,cs),
(49,630,o),
(68,611,o),
(92,611,cs),
(477,611,l),
(59,95,ls),
(51,85,o),
(47,72,o),
(47,58,cs),
(47,26,o),
(73,0,o),
(105,0,cs)
);
}
);
width = 638;
}
);
note = Z;
unicode = 90;
},
{
color = 10;
glyphname = Iacute_J.loclNLD;
kernLeft = H;
kernRight = J;
layers = (
{
background = {
shapes = (
{
closed = 1;
nodes = (
(519,-10,o),
(672,74,o),
(672,262,cs),
(672,657,ls),
(672,682,o),
(651,703,o),
(626,703,cs),
(601,703,o),
(581,682,o),
(581,657,cs),
(581,259,ls),
(581,134,o),
(483,73,o),
(385,73,cs),
(287,73,o),
(189,134,o),
(189,259,cs),
(189,657,ls),
(189,682,o),
(168,703,o),
(143,703,cs),
(118,703,o),
(98,682,o),
(98,657,cs),
(98,262,ls),
(98,74,o),
(251,-10,o),
(385,-10,cs)
);
}
);
};
layerId = "A99C00BB-606F-4263-964D-93C8B7F0BADD";
shapes = (
{
ref = I;
},
{
pos = (-57,0);
ref = acutecomb.case;
},
{
pos = (285,0);
ref = J;
},
{
pos = (413,0);
ref = acutecomb.case;
}
);
width = 751;
}
);
},
{
glyphname = a;
kernLeft = a;
kernRight = n;
layers = (
{
anchors = (
{
name = bottom;
pos = (285,0);
},
{
name = ogonek;
pos = (475,10);
},
{
name = top;
pos = (279,510);
}
);
layerId = "A99C00BB-606F-4263-964D-93C8B7F0BADD";
shapes = (
{
closed = 1;
nodes = (
(303,-10,o),
(361,29,o),
(397,66,c),
(397,40,ls),
(397,15,o),
(417,-5,o),
(442,-5,cs),
(467,-5,o),
(488,15,o),
(488,40,cs),
(488,323,ls),
(488,421,o),
(425,520,o),
(279,520,cs),
(208,520,o),
(153,504,o),
(106,484,cs),
(89,477,o),
(80,463,o),
(80,446,cs),
(80,424,o),
(97,408,o),
(117,408,cs),
(121,408,o),
(126,409,o),
(130,410,c),
(167,422,o),
(207,434,o),
(263,434,cs),
(353,434,o),
(397,399,o),
(397,310,cs),
(397,302,l),
(276,302,ls),
(120,302,o),
(46,234,o),
(46,140,cs),
(46,46,o),
(122,-10,o),
(209,-10,cs)
);
},
{
closed = 1;
nodes = (
(162,70,o),
(137,107,o),
(137,150,cs),
(137,207,o),
(194,229,o),
(288,229,cs),
(397,229,l),
(397,145,l),
(363,106,o),
(305,70,o),
(243,70,cs)
);
}
);
width = 562;
}
);
metricRight = n;
note = a;
unicode = 97;
},
{
color = 10;
glyphname = aacute;
kernLeft = a;
kernRight = n;
layers = (
{
background = {
shapes = (
{
closed = 1;
nodes = (
(295,-10,o),
(353,29,o),
(389,66,c),
(389,40,ls),
(389,15,o),
(409,-5,o),
(434,-5,cs),
(459,-5,o),
(480,15,o),
(480,40,cs),
(480,323,ls),
(480,421,o),
(417,520,o),
(271,520,cs),
(200,520,o),
(145,504,o),
(98,484,cs),
(81,477,o),
(72,463,o),
(72,446,cs),
(72,424,o),
(89,408,o),
(109,408,cs),
(113,408,o),
(118,409,o),
(122,410,c),
(159,422,o),
(199,434,o),
(255,434,cs),
(345,434,o),
(389,399,o),
(389,310,cs),
(389,302,l),
(268,302,ls),
(112,302,o),
(38,234,o),
(38,140,cs),
(38,46,o),
(114,-10,o),
(201,-10,cs)
);
},
{
closed = 1;
nodes = (
(154,70,o),
(129,107,o),
(129,150,cs),
(129,207,o),
(186,229,o),
(280,229,cs),
(389,229,l),
(389,145,l),
(355,106,o),
(297,70,o),
(235,70,cs)
);
},
{
closed = 1;
nodes = (
(261,567,o),
(267,571,o),
(273,578,cs),
(342,660,ls),
(349,668,o),
(352,676,o),
(352,685,cs),
(352,707,o),
(337,722,o),
(315,722,cs),
(298,722,o),
(288,714,o),
(282,703,cs),
(231,613,l),
(229,610,o),
(224,602,o),
(224,594,cs),
(224,578,o),
(235,567,o),
(251,567,cs)
);
}
);
};
layerId = "A99C00BB-606F-4263-964D-93C8B7F0BADD";
shapes = (
{
ref = a;
},
{
pos = (79,0);
ref = acutecomb;
}
);
width = 562;
}
);
note = aacute;
unicode = 225;
},
{
color = 3;
glyphname = aogonek;
kernLeft = a;
kernRight = n;
layers = (
{
background = {
shapes = (
{
closed = 1;
nodes = (
(295,-10,o),
(353,29,o),
(389,66,c),
(389,40,ls),
(389,15,o),
(409,-5,o),
(434,-5,cs),
(459,-5,o),
(480,15,o),
(480,40,cs),
(480,323,ls),
(480,421,o),
(417,520,o),
(271,520,cs),
(200,520,o),
(145,504,o),
(98,484,cs),
(81,477,o),
(72,463,o),
(72,446,cs),
(72,424,o),
(89,408,o),
(109,408,cs),
(113,408,o),
(118,409,o),
(122,410,c),
(159,422,o),
(199,434,o),
(255,434,cs),
(345,434,o),
(389,399,o),
(389,310,cs),
(389,302,l),
(268,302,ls),
(112,302,o),
(38,234,o),
(38,140,cs),
(38,46,o),
(114,-10,o),
(201,-10,cs)
);
},
{
closed = 1;
nodes = (
(154,70,o),
(129,107,o),
(129,150,cs),
(129,207,o),
(186,229,o),
(280,229,cs),
(389,229,l),
(389,145,l),
(355,106,o),
(297,70,o),
(235,70,cs)
);
},
{
closed = 1;
nodes = (
(412,-203,o),
(440,-194,o),
(461,-179,cs),
(468,-174,o),
(472,-168,o),
(472,-161,cs),
(472,-148,o),
(463,-139,o),
(450,-139,cs),
(447,-139,o),
(444,-140,o),
(441,-141,cs),
(431,-144,o),
(420,-147,o),
(406,-147,cs),
(370,-147,o),
(356,-129,o),
(355,-100,cs),
(354,-50,o),
(420,-12,o),
(467,10,c),
(386,10,l),
(333,-17,o),
(282,-55,o),
(282,-119,cs),
(282,-172,o),
(327,-203,o),
(375,-203,cs)
);
}
);
};
layerId = "A99C00BB-606F-4263-964D-93C8B7F0BADD";
shapes = (
{
closed = 1;
nodes = (
(412,-203,o),
(440,-194,o),
(461,-179,cs),
(468,-174,o),
(472,-168,o),
(472,-161,cs),
(472,-148,o),
(463,-139,o),
(450,-139,cs),
(447,-139,o),
(444,-140,o),
(441,-141,cs),
(431,-144,o),
(420,-147,o),
(406,-147,cs),
(370,-147,o),
(355,-129,o),
(355,-100,cs),
(355,-66,o),
(387,-27,o),
(446,-4,cs),
(467,4,o),
(480,20,o),
(480,40,cs),
(480,323,ls),
(480,421,o),
(417,520,o),
(271,520,cs),
(200,520,o),
(145,504,o),
(98,484,cs),
(81,477,o),
(72,463,o),
(72,446,cs),
(72,424,o),
(89,408,o),
(109,408,cs),
(113,408,o),
(118,409,o),
(122,410,c),
(159,422,o),
(199,434,o),
(255,434,cs),
(345,434,o),
(389,399,o),
(389,310,cs),
(389,302,l),
(268,302,ls),
(112,302,o),
(38,234,o),
(38,140,cs),
(38,46,o),
(114,-10,o),
(201,-10,cs),
(295,-10,o),
(353,29,o),
(389,66,c),
(389,15,l),
(332,-15,o),
(282,-58,o),
(282,-119,cs),
(282,-172,o),
(327,-203,o),
(375,-203,cs)
);
},
{
closed = 1;
nodes = (
(154,70,o),
(129,107,o),
(129,150,cs),
(129,207,o),
(186,229,o),
(280,229,cs),
(389,229,l),
(389,145,l),
(355,106,o),
(297,70,o),
(235,70,cs)
);
}
);
width = 554;
}
);
unicode = 261;
},
{
color = 10;
glyphname = aring;
kernLeft = a;
kernRight = n;
layers = (
{
background = {
shapes = (
{
closed = 1;
nodes = (
(295,-10,o),
(353,29,o),
(389,66,c),
(389,40,ls),
(389,15,o),
(409,-5,o),
(434,-5,cs),
(459,-5,o),
(480,15,o),
(480,40,cs),
(480,323,ls),
(480,421,o),
(417,520,o),
(271,520,cs),
(200,520,o),
(145,504,o),
(98,484,cs),
(81,477,o),
(72,463,o),
(72,446,cs),
(72,424,o),
(89,408,o),
(109,408,cs),
(113,408,o),
(118,409,o),
(122,410,c),
(159,422,o),
(199,434,o),
(255,434,cs),
(345,434,o),
(389,399,o),
(389,310,cs),
(389,302,l),
(268,302,ls),
(112,302,o),
(38,234,o),
(38,140,cs),
(38,46,o),
(114,-10,o),
(201,-10,cs)
);
},
{
closed = 1;
nodes = (
(154,70,o),
(129,107,o),
(129,150,cs),
(129,207,o),
(186,229,o),
(280,229,cs),
(389,229,l),
(389,145,l),
(355,106,o),
(297,70,o),
(235,70,cs)
);
},
{
closed = 1;
nodes = (
(321,551,o),
(363,593,o),
(363,645,cs),
(363,697,o),
(321,739,o),
(269,739,cs),
(217,739,o),
(175,697,o),
(175,645,cs),
(175,593,o),
(217,551,o),
(269,551,cs)
);
},
{
closed = 1;
nodes = (
(242,596,o),
(220,618,o),
(220,645,cs),
(220,672,o),
(242,694,o),
(269,694,cs),
(296,694,o),
(318,672,o),
(318,645,cs),
(318,618,o),
(296,596,o),
(269,596,cs)
);
}
);
};
layerId = "A99C00BB-606F-4263-964D-93C8B7F0BADD";
shapes = (
{
ref = a;
},
{
pos = (79,0);
ref = ringcomb;
}
);
width = 562;
}
);
note = aring;
unicode = 229;
},
{
color = 3;
glyphname = aringacute;
kernLeft = a;
kernRight = n;
layers = (
{
background = {
shapes = (
{
closed = 1;
nodes = (
(323,551,o),
(365,593,o),
(365,645,cs),
(365,697,o),
(323,739,o),
(271,739,cs),
(219,739,o),
(177,697,o),
(177,645,cs),
(177,593,o),
(219,551,o),
(271,551,cs)
);
},
{
closed = 1;
nodes = (
(244,596,o),
(222,618,o),
(222,645,cs),
(222,672,o),
(244,694,o),
(271,694,cs),
(298,694,o),
(320,672,o),
(320,645,cs),
(320,618,o),
(298,596,o),
(271,596,cs)
);
},
{
closed = 1;
nodes = (
(281,755,o),
(287,759,o),
(293,766,cs),
(362,848,ls),
(369,856,o),
(372,864,o),
(372,873,cs),
(372,895,o),
(357,910,o),
(335,910,cs),
(318,910,o),
(308,902,o),
(302,891,cs),
(251,801,l),
(249,798,o),
(244,790,o),
(244,782,cs),
(244,766,o),
(255,755,o),
(271,755,cs)
);
}
);
};
layerId = "A99C00BB-606F-4263-964D-93C8B7F0BADD";
shapes = (
{
closed = 1;
nodes = (
(323,551,o),
(365,593,o),
(365,645,cs),
(365,697,o),
(323,739,o),
(271,739,cs),
(219,739,o),
(177,697,o),
(177,645,cs),
(177,593,o),
(219,551,o),
(271,551,cs)
);
},
{
closed = 1;
nodes = (
(244,596,o),
(222,618,o),
(222,645,cs),
(222,672,o),
(244,694,o),
(271,694,cs),
(298,694,o),
(320,672,o),
(320,645,cs),
(320,618,o),
(298,596,o),
(271,596,cs)
);
},
{
closed = 1;
nodes = (
(366,722,o),
(373,724,o),
(381,732,cs),
(432,787,ls),
(441,796,o),
(445,806,o),
(445,815,cs),
(445,835,o),
(428,847,o),
(411,847,cs),
(401,847,o),
(389,840,o),
(379,823,cs),
(343,762,ls),
(340,756,o),
(338,751,o),
(338,742,cs),
(338,732,o),
(347,722,o),
(359,722,cs)
);
},
{
ref = a;
}
);
width = 562;
}
);
metricLeft = a;
metricWidth = a;
unicode = 507;
},
{
color = 10;
glyphname = atilde;
kernLeft = a;
kernRight = n;
layers = (
{
background = {
shapes = (
{
closed = 1;
nodes = (
(295,-10,o),
(353,29,o),
(389,66,c),
(389,40,ls),
(389,15,o),
(409,-5,o),
(434,-5,cs),
(459,-5,o),
(480,15,o),
(480,40,cs),
(480,323,ls),
(480,421,o),
(417,520,o),
(271,520,cs),
(200,520,o),
(145,504,o),
(98,484,cs),
(81,477,o),
(72,463,o),
(72,446,cs),
(72,424,o),
(89,408,o),
(109,408,cs),
(113,408,o),
(118,409,o),
(122,410,c),
(159,422,o),
(199,434,o),
(255,434,cs),
(345,434,o),
(389,399,o),
(389,310,cs),
(389,302,l),
(268,302,ls),
(112,302,o),
(38,234,o),
(38,140,cs),
(38,46,o),
(114,-10,o),
(201,-10,cs)
);
},
{
closed = 1;
nodes = (
(154,70,o),
(129,107,o),
(129,150,cs),
(129,207,o),
(186,229,o),
(280,229,cs),
(389,229,l),
(389,145,l),
(355,106,o),
(297,70,o),
(235,70,cs)
);
},
{
closed = 1;
nodes = (
(145,571,o),
(152,580,o),
(155,589,c),
(163,608,o),
(174,621,o),
(194,621,cs),
(246,621,o),
(289,573,o),
(348,573,cs),
(398,573,o),
(432,625,o),
(432,668,c),
(431,680,o),
(423,690,o),
(409,690,cs),
(394,690,o),
(388,680,o),
(384,669,cs),
(378,652,o),
(368,642,o),
(347,642,cs),
(293,642,o),
(251,689,o),
(193,689,cs),
(141,689,o),
(109,634,o),
(109,594,cs),
(109,581,o),
(120,571,o),
(132,571,cs)
);
}
);
};
layerId = "A99C00BB-606F-4263-964D-93C8B7F0BADD";
shapes = (
{
ref = a;
},
{
pos = (79,0);
ref = tildecomb;
}
);
width = 562;
}
);
note = atilde;
unicode = 227;
},
{
glyphname = ae;
kernLeft = a;
kernRight = e;
layers = (
{
anchors = (
{
name = bottom;
pos = (461,0);
},
{
name = top;
pos = (455,510);
}
);
background = {
shapes = (
{
closed = 1;
nodes = (
(209,520,o),
(154,504,o),
(107,484,cs),
(90,477,o),
(81,463,o),
(81,446,cs),
(81,424,o),
(98,408,o),
(118,408,cs),
(122,408,o),
(127,409,o),
(131,410,c),
(168,422,o),
(208,434,o),
(264,434,cs),
(354,434,o),
(398,399,o),
(398,310,cs),
(398,302,l),
(277,302,ls),
(121,302,o),
(47,234,o),
(47,140,cs),
(47,46,o),
(123,-10,o),
(210,-10,cs),
(304,-10,o),
(362,29,o),
(398,66,c),
(398,40,ls),
(398,15,o),
(418,-5,o),
(443,-5,cs),
(468,-5,o),
(489,15,o),
(489,40,cs),
(489,323,ls),
(489,421,o),
(426,520,o),
(280,520,cs)
);
},
{
closed = 1;
nodes = (
(163,70,o),
(138,107,o),
(138,150,cs),
(138,207,o),
(195,229,o),
(289,229,cs),
(398,229,l),
(398,145,l),
(364,106,o),
(306,70,o),
(244,70,cs)
);
}
);
};
layerId = "A99C00BB-606F-4263-964D-93C8B7F0BADD";
shapes = (
{
closed = 1;
nodes = (
(310,-10,o),
(401,5,o),
(448,77,c),
(491,21,o),
(560,-10,o),
(651,-10,cs),
(738,-10,o),
(782,9,o),
(826,34,cs),
(840,42,o),
(852,55,o),
(852,71,cs),
(852,94,o),
(833,110,o),
(812,110,cs),
(805,110,o),
(800,109,o),
(794,106,cs),
(757,87,o),
(719,75,o),
(659,75,cs),
(543,75,o),
(492,136,o),
(482,226,c),
(826,226,ls),
(854,226,o),
(870,247,o),
(870,269,cs),
(870,413,o),
(780,520,o),
(631,520,cs),
(547,520,o),
(488,487,o),
(450,436,c),
(420,485,o),
(366,520,o),
(279,520,cs),
(208,520,o),
(153,504,o),
(106,484,cs),
(89,477,o),
(80,463,o),
(80,446,cs),
(80,424,o),
(97,408,o),
(117,408,cs),
(121,408,o),
(126,409,o),
(130,410,c),
(167,422,o),
(207,434,o),
(263,434,cs),
(353,434,o),
(397,399,o),
(397,310,cs),
(397,299,l),
(276,299,ls),
(120,299,o),
(46,234,o),
(46,140,cs),
(46,46,o),
(136,-10,o),
(242,-10,cs)
);
},
{
closed = 1;
nodes = (
(179,70,o),
(137,107,o),
(137,150,cs),
(137,207,o),
(194,226,o),
(288,226,cs),
(397,226,l),
(397,169,ls),
(397,88,o),
(322,70,o),
(260,70,cs)
);
},
{
closed = 1;
nodes = (
(488,403,o),
(567,443,o),
(631,443,cs),
(695,443,o),
(774,403,o),
(780,299,c),
(482,299,l)
);
}
);
width = 911;
}
);
metricLeft = a;
metricRight = e;
note = ae;
unicode = 230;
},
{
glyphname = b;
kernLeft = h;
kernRight = o;
layers = (
{
anchors = (
{
name = bottom;
pos = (331,0);
},
{
name = top;
pos = (341,510);
}
);
layerId = "A99C00BB-606F-4263-964D-93C8B7F0BADD";
shapes = (
{
closed = 1;
nodes = (
(462,-10,o),
(583,85,o),
(583,255,cs),
(583,425,o),
(462,520,o),
(341,520,cs),
(271,520,o),
(216,492,o),
(170,444,c),
(170,689,ls),
(170,715,o),
(150,735,o),
(124,735,cs),
(99,735,o),
(79,715,o),
(79,689,cs),
(79,40,ls),
(79,15,o),
(99,-5,o),
(124,-5,cs),
(150,-5,o),
(170,15,o),
(170,40,cs),
(170,66,l),
(216,18,o),
(271,-10,o),
(341,-10,cs)
);
},
{
closed = 1;
nodes = (
(263,75,o),
(209,107,o),
(170,150,c),
(170,360,l),
(209,403,o),
(263,435,o),
(328,435,cs),
(423,435,o),
(492,373,o),
(492,255,cs),
(492,137,o),
(423,75,o),
(328,75,cs)
);
}
);
width = 631;
}
);
metricLeft = l;
metricRight = o;
note = b;
unicode = 98;
},
{
glyphname = c;
kernLeft = o;
kernRight = c;
layers = (
{
anchors = (
{
name = bottom;
pos = (298,0);
},
{
name = top;
pos = (298,510);
}
);
layerId = "A99C00BB-606F-4263-964D-93C8B7F0BADD";
shapes = (
{
closed = 1;
nodes = (
(394,-10,o),
(444,16,o),
(478,38,cs),
(490,46,o),
(498,58,o),
(498,73,cs),
(498,92,o),
(481,113,o),
(460,113,cs),
(452,113,o),
(447,112,o),
(438,107,cs),
(403,89,o),
(375,75,o),
(323,75,cs),
(207,75,o),
(139,148,o),
(139,255,cs),
(139,362,o),
(207,435,o),
(323,435,cs),
(375,435,o),
(403,421,o),
(438,403,cs),
(447,398,o),
(452,397,o),
(460,397,cs),
(481,397,o),
(498,418,o),
(498,437,cs),
(498,452,o),
(490,464,o),
(478,472,cs),
(444,494,o),
(394,520,o),
(315,520,cs),
(173,520,o),
(48,422,o),
(48,255,cs),
(48,88,o),
(173,-10,o),
(315,-10,cs)
);
}
);
width = 533;
}
);
metricLeft = o;
note = c;
unicode = 99;
},
{
color = 10;
glyphname = ccedilla;
kernLeft = o;
kernRight = c;
layers = (
{
background = {
shapes = (
{
closed = 1;
nodes = (
(356,-221,o),
(396,-191,o),
(396,-129,cs),
(396,-87,o),
(364,-59,o),
(319,-59,cs),
(307,-59,o),
(297,-60,o),
(285,-63,c),
(315,-10,l),
(393,-9,o),
(442,16,o),
(476,38,cs),
(488,46,o),
(496,58,o),
(496,73,cs),
(496,92,o),
(479,113,o),
(458,113,cs),
(450,113,o),
(445,112,o),
(436,107,cs),
(401,89,o),
(373,75,o),
(321,75,cs),
(205,75,o),
(137,148,o),
(137,255,cs),
(137,362,o),
(205,435,o),
(321,435,cs),
(373,435,o),
(401,421,o),
(436,403,cs),
(445,398,o),
(450,397,o),
(458,397,cs),
(479,397,o),
(496,418,o),
(496,437,cs),
(496,452,o),
(488,464,o),
(476,472,cs),
(442,494,o),
(392,520,o),
(313,520,cs),
(171,520,o),
(46,422,o),
(46,255,cs),
(46,103,o),
(148,9,o),
(273,-7,c),
(225,-85,l),
(223,-88,o),
(221,-92,o),
(221,-99,cs),
(221,-108,o),
(230,-115,o),
(239,-115,cs),
(243,-115,o),
(247,-113,o),
(249,-112,cs),
(267,-103,o),
(279,-101,o),
(293,-101,cs),
(313,-101,o),
(329,-112,o),
(329,-132,cs),
(329,-167,o),
(304,-178,o),
(272,-178,cs),
(255,-178,o),
(235,-173,o),
(213,-161,c),
(211,-160,o),
(207,-158,o),
(203,-158,cs),
(190,-158,o),
(184,-168,o),
(184,-178,cs),
(184,-185,o),
(190,-192,o),
(195,-195,cs),
(229,-216,o),
(263,-221,o),
(285,-221,cs)
);
}
);
};
layerId = "A99C00BB-606F-4263-964D-93C8B7F0BADD";
shapes = (
{
ref = c;
},
{
pos = (98,0);
ref = cedillacomb;
}
);
width = 533;
}
);
note = ccedilla;
unicode = 231;
},
{
glyphname = d;
kernLeft = o;
kernRight = l;
layers = (
{
anchors = (
{
name = bottom;
pos = (316,0);
},
{
name = center;
pos = (316,255);
},
{
name = top;
pos = (316,510);
},
{
name = topright;
pos = (582,732);
}
);
layerId = "A99C00BB-606F-4263-964D-93C8B7F0BADD";
shapes = (
{
closed = 1;
nodes = (
(360,-10,o),
(415,18,o),
(461,66,c),
(461,40,ls),
(461,15,o),
(481,-5,o),
(507,-5,cs),
(532,-5,o),
(552,15,o),
(552,40,cs),
(552,689,ls),
(552,715,o),
(532,735,o),
(507,735,cs),
(481,735,o),
(461,715,o),
(461,689,cs),
(461,444,l),
(415,492,o),
(360,520,o),
(290,520,cs),
(169,520,o),
(48,425,o),
(48,255,cs),
(48,85,o),
(169,-10,o),
(290,-10,cs)
);
},
{
closed = 1;
nodes = (
(208,75,o),
(139,137,o),
(139,255,cs),
(139,373,o),
(208,435,o),
(303,435,cs),
(368,435,o),
(422,403,o),
(461,360,c),
(461,150,l),
(422,107,o),
(368,75,o),
(303,75,cs)
);
}
);
width = 631;
}
);
metricLeft = o;
metricRight = l;
note = d;
unicode = 100;
},
{
glyphname = eth;
kernLeft = o;
kernRight = o;
layers = (
{
layerId = "A99C00BB-606F-4263-964D-93C8B7F0BADD";
shapes = (
{
closed = 1;
nodes = (
(475,-10,o),
(545,120,o),
(545,274,cs),
(545,430,o),
(454,553,o),
(361,637,c),
(417,670,ls),
(425,675,o),
(429,683,o),
(429,692,cs),
(429,706,o),
(418,717,o),
(404,717,cs),
(398,717,o),
(394,715,o),
(389,712,cs),
(321,671,l),
(280,704,o),
(241,729,o),
(213,746,cs),
(206,750,o),
(199,752,o),
(191,752,cs),
(168,752,o),
(149,734,o),
(149,710,cs),
(149,696,o),
(157,681,o),
(169,675,cs),
(195,661,o),
(220,644,o),
(245,627,c),
(177,587,ls),
(168,582,o),
(162,574,o),
(162,564,cs),
(162,550,o),
(173,539,o),
(187,539,cs),
(193,539,o),
(199,542,o),
(204,545,cs),
(288,594,l),
(328,560,o),
(366,520,o),
(395,477,c),
(364,493,o),
(327,505,o),
(282,505,cs),
(132,505,o),
(48,381,o),
(48,248,cs),
(48,94,o),
(146,-10,o),
(296,-10,cs)
);
},
{
closed = 1;
nodes = (
(222,70,o),
(136,120,o),
(136,252,cs),
(136,382,o),
(222,431,o),
(296,431,cs),
(370,431,o),
(457,382,o),
(457,252,cs),
(457,120,o),
(370,70,o),
(296,70,cs)
);
}
);
width = 593;
}
);
metricLeft = o;
metricRight = o;
note = eth;
unicode = 240;
},
{
color = 3;
glyphname = dcroat;
kernLeft = o;
kernRight = hbar;
layers = (
{
background = {
shapes = (
{
closed = 1;
nodes = (
(360,-10,o),
(415,18,o),
(461,66,c),
(461,40,ls),
(461,15,o),
(481,-5,o),
(507,-5,cs),
(532,-5,o),
(552,15,o),
(552,40,cs),
(552,689,ls),
(552,715,o),
(532,735,o),
(507,735,cs),
(481,735,o),
(461,715,o),
(461,689,cs),
(461,444,l),
(415,492,o),
(360,520,o),
(290,520,cs),
(169,520,o),
(48,425,o),
(48,255,cs),
(48,85,o),
(169,-10,o),
(290,-10,cs)
);
},
{
closed = 1;
nodes = (
(208,75,o),
(139,137,o),
(139,255,cs),
(139,373,o),
(208,435,o),
(303,435,cs),
(368,435,o),
(422,403,o),
(461,360,c),
(461,150,l),
(422,107,o),
(368,75,o),
(303,75,cs)
);
},
{
closed = 1;
nodes = (
(461,573,l),
(345,573,ls),
(326,573,o),
(311,587,o),
(311,606,cs),
(311,625,o),
(326,640,o),
(345,640,cs),
(461,640,l)
);
},
{
closed = 1;
nodes = (
(552,640,l),
(599,640,ls),
(618,640,o),
(632,625,o),
(632,606,cs),
(632,587,o),
(618,573,o),
(599,573,cs),
(552,573,l)
);
}
);
};
layerId = "A99C00BB-606F-4263-964D-93C8B7F0BADD";
shapes = (
{
closed = 1;
nodes = (
(360,-10,o),
(415,18,o),
(461,66,c),
(461,40,ls),
(461,15,o),
(481,-5,o),
(507,-5,cs),
(532,-5,o),
(552,15,o),
(552,40,cs),
(552,573,l),
(599,573,ls),
(618,573,o),
(632,587,o),
(632,606,cs),
(632,625,o),
(618,640,o),
(599,640,cs),
(552,640,l),
(552,689,ls),
(552,715,o),
(532,735,o),
(507,735,cs),
(481,735,o),
(461,715,o),
(461,689,cs),
(461,640,l),
(345,640,ls),
(326,640,o),
(311,625,o),
(311,606,cs),
(311,587,o),
(326,573,o),
(345,573,cs),
(461,573,l),
(461,444,l),
(415,492,o),
(360,520,o),
(290,520,cs),
(169,520,o),
(48,425,o),
(48,255,cs),
(48,85,o),
(169,-10,o),
(290,-10,cs)
);
},
{
closed = 1;
nodes = (
(208,75,o),
(139,137,o),
(139,255,cs),
(139,373,o),
(208,435,o),
(303,435,cs),
(368,435,o),
(422,403,o),
(461,360,c),
(461,150,l),
(422,107,o),
(368,75,o),
(303,75,cs)
);
}
);
width = 636;
}
);
metricLeft = d;
metricWidth = "=d+5";
unicode = 273;
},
{
glyphname = e;
kernLeft = o;
kernRight = e;
layers = (
{
anchors = (
{
name = bottom;
pos = (285,0);
},
{
name = ogonek;
pos = (430,10);
},
{
name = top;
pos = (285,510);
}
);
layerId = "A99C00BB-606F-4263-964D-93C8B7F0BADD";
shapes = (
{
closed = 1;
nodes = (
(394,-10,o),
(438,9,o),
(482,34,cs),
(496,42,o),
(508,55,o),
(508,71,cs),
(508,94,o),
(489,110,o),
(468,110,cs),
(461,110,o),
(456,109,o),
(450,106,cs),
(413,87,o),
(375,75,o),
(315,75,cs),
(207,75,o),
(150,133,o),
(140,223,c),
(479,223,ls),
(507,223,o),
(525,243,o),
(525,268,cs),
(525,401,o),
(441,520,o),
(287,520,cs),
(121,520,o),
(48,390,o),
(48,255,cs),
(48,87,o),
(144,-10,o),
(307,-10,cs)
);
},
{
closed = 1;
nodes = (
(146,401,o),
(223,443,o),
(287,443,cs),
(351,443,o),
(429,401,o),
(435,297,c),
(140,297,l)
);
}
);
width = 566;
}
);
metricLeft = o;
note = e;
unicode = 101;
},
{
color = 10;
glyphname = eacute;
kernLeft = o;
kernRight = e;
layers = (
{
background = {
shapes = (
{
closed = 1;
nodes = (
(395,-10,o),
(439,9,o),
(483,34,cs),
(497,42,o),
(509,55,o),
(509,71,cs),
(509,94,o),
(490,110,o),
(469,110,cs),
(462,110,o),
(457,109,o),
(451,106,cs),
(414,87,o),
(376,75,o),
(316,75,cs),
(208,75,o),
(151,133,o),
(141,223,c),
(480,223,ls),
(508,223,o),
(526,243,o),
(526,268,cs),
(526,401,o),
(442,520,o),
(288,520,cs),
(122,520,o),
(49,390,o),
(49,255,cs),
(49,87,o),
(145,-10,o),
(308,-10,cs)
);
},
{
closed = 1;
nodes = (
(147,401,o),
(224,443,o),
(288,443,cs),
(352,443,o),
(430,401,o),
(436,297,c),
(141,297,l)
);
},
{
closed = 1;
nodes = (
(275,567,o),
(281,571,o),
(287,578,cs),
(356,660,ls),
(363,668,o),
(366,676,o),
(366,685,cs),
(366,707,o),
(351,722,o),
(329,722,cs),
(312,722,o),
(302,714,o),
(296,703,cs),
(245,613,l),
(243,610,o),
(238,602,o),
(238,594,cs),
(238,578,o),
(249,567,o),
(265,567,cs)
);
}
);
};
layerId = "A99C00BB-606F-4263-964D-93C8B7F0BADD";
shapes = (
{
ref = e;
},
{
pos = (85,0);
ref = acutecomb;
}
);
width = 566;
}
);
note = eacute;
unicode = 233;
},
{
color = 10;
glyphname = edieresis;
kernLeft = o;
kernRight = e;
layers = (
{
background = {
shapes = (
{
closed = 1;
nodes = (
(395,-10,o),
(439,9,o),
(483,34,cs),
(497,42,o),
(509,55,o),
(509,71,cs),
(509,94,o),
(490,110,o),
(469,110,cs),
(462,110,o),
(457,109,o),
(451,106,cs),
(414,87,o),
(376,75,o),
(316,75,cs),
(208,75,o),
(151,133,o),
(141,223,c),
(480,223,ls),
(508,223,o),
(526,243,o),
(526,268,cs),
(526,401,o),
(442,520,o),
(288,520,cs),
(122,520,o),
(49,390,o),
(49,255,cs),
(49,87,o),
(145,-10,o),
(308,-10,cs)
);
},
{
closed = 1;
nodes = (
(147,401,o),
(224,443,o),
(288,443,cs),
(352,443,o),
(430,401,o),
(436,297,c),
(141,297,l)
);
},
{
closed = 1;
nodes = (
(231,575,o),
(254,598,o),
(254,626,cs),
(254,654,o),
(231,677,o),
(203,677,cs),
(175,677,o),
(152,654,o),
(152,626,cs),
(152,598,o),
(175,575,o),
(203,575,cs)
);
},
{
closed = 1;
nodes = (
(400,575,o),
(423,598,o),
(423,626,cs),
(423,654,o),
(400,677,o),
(372,677,cs),
(344,677,o),
(321,654,o),
(321,626,cs),
(321,598,o),
(344,575,o),
(372,575,cs)
);
}
);
};
layerId = "A99C00BB-606F-4263-964D-93C8B7F0BADD";
shapes = (
{
ref = e;
},
{
pos = (85,0);
ref = dieresiscomb;
}
);
width = 566;
}
);
note = edieresis;
unicode = 235;
},
{
color = 3;
glyphname = eogonek;
kernLeft = o;
kernRight = e;
layers = (
{
anchors = (
{
name = top;
pos = (285,510);
}
);
background = {
shapes = (
{
closed = 1;
nodes = (
(394,-10,o),
(438,9,o),
(482,34,cs),
(496,42,o),
(508,55,o),
(508,71,cs),
(508,94,o),
(489,110,o),
(468,110,cs),
(461,110,o),
(456,109,o),
(450,106,cs),
(413,87,o),
(375,75,o),
(315,75,cs),
(207,75,o),
(150,133,o),
(140,223,c),
(479,223,ls),
(507,223,o),
(525,243,o),
(525,268,cs),
(525,401,o),
(441,520,o),
(287,520,cs),
(121,520,o),
(48,390,o),
(48,255,cs),
(48,87,o),
(144,-10,o),
(307,-10,cs)
);
},
{
closed = 1;
nodes = (
(146,401,o),
(223,443,o),
(287,443,cs),
(351,443,o),
(429,401,o),
(435,297,c),
(140,297,l)
);
},
{
closed = 1;
nodes = (
(375,-203,o),
(403,-194,o),
(424,-179,cs),
(431,-174,o),
(435,-168,o),
(435,-161,cs),
(435,-148,o),
(426,-139,o),
(413,-139,cs),
(410,-139,o),
(407,-140,o),
(404,-141,cs),
(394,-144,o),
(383,-147,o),
(369,-147,cs),
(333,-147,o),
(318,-129,o),
(318,-100,cs),
(318,-50,o),
(383,-12,o),
(430,10,c),
(349,10,l),
(296,-17,o),
(245,-55,o),
(245,-119,cs),
(245,-172,o),
(290,-203,o),
(338,-203,cs)
);
}
);
};
layerId = "A99C00BB-606F-4263-964D-93C8B7F0BADD";
shapes = (
{
closed = 1;
nodes = (
(412,-203,o),
(440,-194,o),
(461,-179,cs),
(468,-174,o),
(472,-168,o),
(472,-161,cs),
(472,-148,o),
(463,-139,o),
(450,-139,cs),
(447,-139,o),
(444,-140,o),
(441,-141,cs),
(431,-144,o),
(420,-147,o),
(406,-147,cs),
(370,-147,o),
(355,-129,o),
(355,-100,cs),
(355,-53,o),
(410,-13,o),
(478,31,cs),
(492,40,o),
(508,55,o),
(508,71,cs),
(508,94,o),
(489,110,o),
(468,110,cs),
(461,110,o),
(456,109,o),
(450,106,cs),
(413,87,o),
(375,75,o),
(315,75,cs),
(207,75,o),
(150,133,o),
(140,223,c),
(479,223,ls),
(507,223,o),
(525,243,o),
(525,268,cs),
(525,401,o),
(441,520,o),
(287,520,cs),
(121,520,o),
(48,390,o),
(48,255,cs),
(48,87,o),
(144,-10,o),
(307,-10,cs),
(351,-10,l),
(313,-35,o),
(282,-69,o),
(282,-119,cs),
(282,-172,o),
(327,-203,o),
(375,-203,cs)
);
},
{
closed = 1;
nodes = (
(146,401,o),
(223,443,o),
(287,443,cs),
(351,443,o),
(429,401,o),
(435,297,c),
(140,297,l)
);
}
);
width = 566;
}
);
metricLeft = e;
metricWidth = e;
unicode = 281;
},
{
color = 3;
glyphname = schwa;
kernLeft = o;
kernRight = o;
layers = (
{
background = {
shapes = (
{
closed = 1;
nodes = (
(172,520,o),
(128,501,o),
(84,476,cs),
(70,468,o),
(58,455,o),
(58,439,cs),
(58,416,o),
(77,400,o),
(98,400,cs),
(105,400,o),
(110,401,o),
(116,404,cs),
(153,423,o),
(191,435,o),
(251,435,cs),
(359,435,o),
(416,377,o),
(426,287,c),
(87,287,ls),
(59,287,o),
(41,267,o),
(41,242,cs),
(41,109,o),
(125,-10,o),
(279,-10,cs),
(445,-10,o),
(518,120,o),
(518,255,cs),
(518,423,o),
(422,520,o),
(259,520,cs)
);
},
{
closed = 1;
nodes = (
(420,109,o),
(343,67,o),
(279,67,cs),
(215,67,o),
(137,109,o),
(131,213,c),
(426,213,l)
);
}
);
};
layerId = "A99C00BB-606F-4263-964D-93C8B7F0BADD";
shapes = (
{
closed = 1;
nodes = (
(443,-10,o),
(518,120,o),
(518,255,cs),
(518,423,o),
(424,520,o),
(261,520,cs),
(198,520,o),
(135,502,o),
(90,476,cs),
(76,468,o),
(64,455,o),
(64,439,cs),
(64,416,o),
(83,400,o),
(104,400,cs),
(111,400,o),
(116,401,o),
(122,404,cs),
(159,423,o),
(197,435,o),
(258,435,cs),
(359,435,o),
(418,378,o),
(426,287,c),
(87,287,ls),
(59,287,o),
(41,267,o),
(41,242,cs),
(41,104,o),
(123,-10,o),
(277,-10,cs)
);
},
{
closed = 1;
nodes = (
(210,67,o),
(140,109,o),
(137,213,c),
(426,213,l),
(420,109,o),
(343,67,o),
(279,67,cs)
);
}
);
width = 566;
}
);
metricLeft = "=|e";
metricRight = o;
unicode = 601;
},
{
glyphname = f;
kernLeft = f;
kernRight = f;
layers = (
{
anchors = (
{
name = bottom;
pos = (163,0);
},
{
name = top;
pos = (190,510);
}
);
layerId = "A99C00BB-606F-4263-964D-93C8B7F0BADD";
shapes = (
{
closed = 1;
nodes = (
(188,-5,o),
(208,15,o),
(208,40,cs),
(208,432,l),
(333,432,ls),
(355,432,o),
(372,449,o),
(372,471,cs),
(372,493,o),
(355,510,o),
(333,510,cs),
(208,510,l),
(208,565,ls),
(208,636,o),
(240,653,o),
(290,653,cs),
(309,653,o),
(324,647,o),
(340,647,cs),
(361,647,o),
(377,666,o),
(377,685,cs),
(377,701,o),
(366,714,o),
(354,720,cs),
(330,732,o),
(300,740,o),
(267,740,cs),
(196,740,o),
(117,694,o),
(117,568,cs),
(117,510,l),
(58,510,ls),
(36,510,o),
(19,493,o),
(19,471,cs),
(19,449,o),
(36,432,o),
(58,432,cs),
(117,432,l),
(117,40,ls),
(117,15,o),
(137,-5,o),
(162,-5,cs)
);
}
);
width = 382;
}
);
note = f;
unicode = 102;
},
{
glyphname = g;
kernLeft = o;
kernRight = u;
layers = (
{
anchors = (
{
name = bottom;
pos = (316,0);
},
{
name = top;
pos = (316,510);
}
);
layerId = "A99C00BB-606F-4263-964D-93C8B7F0BADD";
shapes = (
{
closed = 1;
nodes = (
(467,-240,o),
(552,-146,o),
(552,22,cs),
(552,469,ls),
(552,494,o),
(531,515,o),
(506,515,cs),
(481,515,o),
(461,494,o),
(461,469,cs),
(461,444,l),
(420,488,o),
(365,520,o),
(290,520,cs),
(179,520,o),
(48,437,o),
(48,260,cs),
(48,83,o),
(179,0,o),
(290,0,cs),
(365,0,o),
(420,32,o),
(461,76,c),
(461,9,ls),
(461,-99,o),
(410,-154,o),
(308,-154,cs),
(240,-154,o),
(185,-137,o),
(143,-116,c),
(138,-114,o),
(132,-112,o),
(125,-112,cs),
(102,-112,o),
(85,-133,o),
(85,-153,cs),
(85,-172,o),
(93,-182,o),
(103,-188,cs),
(150,-215,o),
(236,-240,o),
(317,-240,cs)
);
},
{
closed = 1;
nodes = (
(214,83,o),
(139,140,o),
(139,260,cs),
(139,380,o),
(214,437,o),
(309,437,cs),
(378,437,o),
(424,401,o),
(461,363,c),
(461,157,l),
(424,119,o),
(378,83,o),
(309,83,cs)
);
}
);
width = 631;
}
);
metricLeft = o;
metricRight = "=|n";
note = g;
unicode = 103;
},
{
glyphname = h;
kernLeft = h;
kernRight = n;
layers = (
{
anchors = (
{
name = bottom;
pos = (305,0);
},
{
name = center;
pos = (305,255);
},
{
name = top;
pos = (307,732);
}
);
layerId = "A99C00BB-606F-4263-964D-93C8B7F0BADD";
shapes = (
{
closed = 1;
nodes = (
(149,-5,o),
(170,15,o),
(170,40,cs),
(170,340,l),
(210,390,o),
(262,436,o),
(334,436,cs),
(412,436,o),
(444,390,o),
(444,314,cs),
(444,40,ls),
(444,15,o),
(464,-5,o),
(489,-5,cs),
(514,-5,o),
(535,15,o),
(535,40,cs),
(535,324,ls),
(535,431,o),
(470,520,o),
(356,520,cs),
(267,520,o),
(212,474,o),
(170,428,c),
(170,689,ls),
(170,715,o),
(149,735,o),
(124,735,cs),
(99,735,o),
(79,715,o),
(79,689,cs),
(79,40,ls),
(79,15,o),
(99,-5,o),
(124,-5,cs)
);
}
);
width = 609;
}
);
metricLeft = l;
metricRight = n;
note = h;
unicode = 104;
},
{
color = 3;
glyphname = hbar;
kernLeft = hbar;
kernRight = hbar;
layers = (
{
background = {
shapes = (
{
closed = 1;
nodes = (
(283,573,ls),
(302,573,o),
(317,587,o),
(317,606,cs),
(317,625,o),
(302,640,o),
(283,640,cs),
(37,640,ls),
(18,640,o),
(4,625,o),
(4,606,cs),
(4,587,o),
(18,573,o),
(37,573,cs)
);
},
{
closed = 1;
nodes = (
(154,-5,o),
(175,15,o),
(175,40,cs),
(175,340,l),
(215,390,o),
(267,436,o),
(339,436,cs),
(417,436,o),
(449,390,o),
(449,314,cs),
(449,40,ls),
(449,15,o),
(469,-5,o),
(494,-5,cs),
(519,-5,o),
(540,15,o),
(540,40,cs),
(540,324,ls),
(540,431,o),
(475,520,o),
(361,520,cs),
(272,520,o),
(217,474,o),
(175,428,c),
(175,689,ls),
(175,715,o),
(154,735,o),
(129,735,cs),
(104,735,o),
(84,715,o),
(84,689,cs),
(84,40,ls),
(84,15,o),
(104,-5,o),
(129,-5,cs)
);
}
);
};
layerId = "A99C00BB-606F-4263-964D-93C8B7F0BADD";
shapes = (
{
closed = 1;
nodes = (
(154,-5,o),
(175,15,o),
(175,40,cs),
(175,340,l),
(215,390,o),
(267,436,o),
(339,436,cs),
(417,436,o),
(449,390,o),
(449,314,cs),
(449,40,ls),
(449,15,o),
(469,-5,o),
(494,-5,cs),
(519,-5,o),
(540,15,o),
(540,40,cs),
(540,324,ls),
(540,431,o),
(475,520,o),
(361,520,cs),
(272,520,o),
(217,474,o),
(175,428,c),
(175,573,l),
(291,573,ls),
(310,573,o),
(325,587,o),
(325,606,cs),
(325,625,o),
(310,640,o),
(291,640,cs),
(175,640,l),
(175,689,ls),
(175,715,o),
(154,735,o),
(129,735,cs),
(104,735,o),
(84,715,o),
(84,689,cs),
(84,640,l),
(37,640,ls),
(18,640,o),
(4,625,o),
(4,606,cs),
(4,587,o),
(18,573,o),
(37,573,cs),
(84,573,l),
(84,40,ls),
(84,15,o),
(104,-5,o),
(129,-5,cs)
);
}
);
width = 614;
}
);
metricRight = n;
metricWidth = "=h+5";
unicode = 295;
},
{
glyphname = i;
kernLeft = i;
kernRight = i;
layers = (
{
anchors = (
{
name = bottom;
pos = (125,0);
}
);
layerId = "A99C00BB-606F-4263-964D-93C8B7F0BADD";
shapes = (
{
closed = 1;
nodes = (
(150,-5,o),
(170,15,o),
(170,40,cs),
(170,469,ls),
(170,495,o),
(150,515,o),
(124,515,cs),
(99,515,o),
(79,495,o),
(79,469,cs),
(79,40,ls),
(79,15,o),
(99,-5,o),
(124,-5,cs)
);
},
{
closed = 1;
nodes = (
(128,614,ls),
(156,614,o),
(179,637,o),
(179,665,cs),
(179,669,ls),
(179,697,o),
(156,720,o),
(128,720,cs),
(122,720,ls),
(94,720,o),
(71,697,o),
(71,669,cs),
(71,665,ls),
(71,637,o),
(94,614,o),
(122,614,cs)
);
}
);
width = 249;
}
);
note = i;
unicode = 105;
},
{
glyphname = idotless;
kernLeft = n;
kernRight = u;
layers = (
{
anchors = (
{
name = bottom;
pos = (125,0);
},
{
name = ogonek;
pos = (158,10);
},
{
name = top;
pos = (125,510);
}
);
layerId = "A99C00BB-606F-4263-964D-93C8B7F0BADD";
shapes = (
{
closed = 1;
nodes = (
(150,-5,o),
(170,15,o),
(170,40,cs),
(170,469,ls),
(170,495,o),
(150,515,o),
(124,515,cs),
(99,515,o),
(79,495,o),
(79,469,cs),
(79,40,ls),
(79,15,o),
(99,-5,o),
(124,-5,cs)
);
}
);
width = 249;
}
);
metricLeft = n;
metricRight = "=|n";
unicode = 305;
},
{
color = 10;
glyphname = iacute;
kernLeft = i;
kernRight = i;
layers = (
{
background = {
shapes = (
{
closed = 1;
nodes = (
(154,-5,o),
(174,15,o),
(174,40,cs),
(174,469,ls),
(174,495,o),
(154,515,o),
(128,515,cs),
(103,515,o),
(83,495,o),
(83,469,cs),
(83,40,ls),
(83,15,o),
(103,-5,o),
(128,-5,cs)
);
},
{
closed = 1;
nodes = (
(124,567,o),
(130,571,o),
(136,578,cs),
(205,660,ls),
(212,668,o),
(215,676,o),
(215,685,cs),
(215,707,o),
(200,722,o),
(178,722,cs),
(161,722,o),
(151,714,o),
(145,703,cs),
(94,613,l),
(92,610,o),
(87,602,o),
(87,594,cs),
(87,578,o),
(98,567,o),
(114,567,cs)
);
}
);
};
layerId = "A99C00BB-606F-4263-964D-93C8B7F0BADD";
shapes = (
{
ref = idotless;
},
{
pos = (-75,0);
ref = acutecomb;
}
);
width = 249;
}
);
note = iacute;
unicode = 237;
},
{
color = 10;
glyphname = icircumflex;
kernLeft = i;
kernRight = i;
layers = (
{
background = {
shapes = (
{
closed = 1;
nodes = (
(154,-5,o),
(174,15,o),
(174,40,cs),
(174,469,ls),
(174,495,o),
(154,515,o),
(128,515,cs),
(103,515,o),
(83,495,o),
(83,469,cs),
(83,40,ls),
(83,15,o),
(103,-5,o),
(128,-5,cs)
);
},
{
closed = 1;
nodes = (
(29,566,o),
(37,569,o),
(41,573,c),
(128,647,l),
(215,573,l),
(219,569,o),
(227,566,o),
(233,566,cs),
(250,566,o),
(264,581,o),
(263,596,c),
(263,603,o),
(260,610,o),
(255,615,cs),
(187,685,ls),
(177,696,o),
(166,705,o),
(147,705,cs),
(109,705,ls),
(90,705,o),
(79,696,o),
(69,685,cs),
(1,615,ls),
(-4,610,o),
(-7,603,o),
(-7,596,c),
(-8,581,o),
(6,566,o),
(23,566,cs)
);
}
);
};
layerId = "A99C00BB-606F-4263-964D-93C8B7F0BADD";
shapes = (
{
ref = idotless;
},
{
pos = (-75,0);
ref = circumflexcomb;
}
);
width = 249;
}
);
note = icircumflex;
unicode = 238;
},
{
color = 10;
glyphname = idieresis;
kernLeft = i;
kernRight = i;
layers = (
{
background = {
shapes = (
{
closed = 1;
nodes = (
(154,-5,o),
(174,15,o),
(174,40,cs),
(174,469,ls),
(174,495,o),
(154,515,o),
(128,515,cs),
(103,515,o),
(83,495,o),
(83,469,cs),
(83,40,ls),
(83,15,o),
(103,-5,o),
(128,-5,cs)
);
},
{
closed = 1;
nodes = (
(72,575,o),
(95,598,o),
(95,626,cs),
(95,654,o),
(72,677,o),
(44,677,cs),
(16,677,o),
(-7,654,o),
(-7,626,cs),
(-7,598,o),
(16,575,o),
(44,575,cs)
);
},
{
closed = 1;
nodes = (
(241,575,o),
(264,598,o),
(264,626,cs),
(264,654,o),
(241,677,o),
(213,677,cs),
(185,677,o),
(162,654,o),
(162,626,cs),
(162,598,o),
(185,575,o),
(213,575,cs)
);
}
);
};
layerId = "A99C00BB-606F-4263-964D-93C8B7F0BADD";
shapes = (
{
ref = idotless;
},
{
pos = (-75,0);
ref = dieresiscomb;
}
);
width = 249;
}
);
note = idieresis;
unicode = 239;
},
{
color = 10;
glyphname = igrave;
kernLeft = i;
kernRight = i;
layers = (
{
background = {
shapes = (
{
closed = 1;
nodes = (
(154,-5,o),
(174,15,o),
(174,40,cs),
(174,469,ls),
(174,495,o),
(154,515,o),
(128,515,cs),
(103,515,o),
(83,495,o),
(83,469,cs),
(83,40,ls),
(83,15,o),
(103,-5,o),
(128,-5,cs)
);
},
{
closed = 1;
nodes = (
(159,567,o),
(170,578,o),
(170,594,cs),
(170,602,o),
(165,610,o),
(163,613,c),
(112,703,ls),
(106,714,o),
(96,722,o),
(79,722,cs),
(57,722,o),
(42,707,o),
(42,685,cs),
(42,676,o),
(45,668,o),
(52,660,cs),
(121,578,ls),
(127,571,o),
(133,567,o),
(143,567,cs)
);
}
);
};
layerId = "A99C00BB-606F-4263-964D-93C8B7F0BADD";
shapes = (
{
ref = idotless;
},
{
pos = (-75,0);
ref = gravecomb;
}
);
width = 249;
}
);
note = igrave;
unicode = 236;
},
{
color = 3;
glyphname = iogonek;
kernLeft = idotless;
kernRight = idotless;
layers = (
{
background = {
shapes = (
{
closed = 1;
nodes = (
(150,-5,o),
(170,15,o),
(170,40,cs),
(170,469,ls),
(170,495,o),
(150,515,o),
(124,515,cs),
(99,515,o),
(79,495,o),
(79,469,cs),
(79,40,ls),
(79,15,o),
(99,-5,o),
(124,-5,cs)
);
},
{
closed = 1;
nodes = (
(153,575,o),
(176,598,o),
(176,626,cs),
(176,654,o),
(153,677,o),
(125,677,cs),
(97,677,o),
(74,654,o),
(74,626,cs),
(74,598,o),
(97,575,o),
(125,575,cs)
);
},
{
closed = 1;
nodes = (
(103,-203,o),
(131,-194,o),
(152,-179,cs),
(159,-174,o),
(163,-168,o),
(163,-161,cs),
(163,-148,o),
(154,-139,o),
(141,-139,cs),
(138,-139,o),
(135,-140,o),
(132,-141,cs),
(122,-144,o),
(111,-147,o),
(97,-147,cs),
(61,-147,o),
(46,-129,o),
(46,-100,cs),
(46,-50,o),
(111,-12,o),
(158,10,c),
(77,10,l),
(24,-17,o),
(-27,-55,o),
(-27,-119,cs),
(-27,-172,o),
(18,-203,o),
(66,-203,cs)
);
}
);
};
layerId = "A99C00BB-606F-4263-964D-93C8B7F0BADD";
shapes = (
{
closed = 1;
nodes = (
(158,-203,o),
(186,-194,o),
(207,-179,cs),
(214,-174,o),
(218,-168,o),
(218,-161,cs),
(218,-148,o),
(209,-139,o),
(196,-139,cs),
(193,-139,o),
(190,-140,o),
(187,-141,cs),
(177,-144,o),
(166,-147,o),
(152,-147,cs),
(118,-147,o),
(101,-127,o),
(101,-97,cs),
(101,-40,o),
(144,-10,o),
(158,10,cs),
(167,23,o),
(170,32,o),
(170,50,cs),
(170,469,ls),
(170,494,o),
(149,515,o),
(124,515,cs),
(99,515,o),
(79,494,o),
(79,469,cs),
(79,40,ls),
(79,25,o),
(86,12,o),
(98,4,c),
(57,-23,o),
(28,-62,o),
(28,-109,cs),
(28,-167,o),
(73,-203,o),
(131,-203,cs)
);
},
{
closed = 1;
nodes = (
(153,575,o),
(176,598,o),
(176,626,cs),
(176,654,o),
(153,677,o),
(125,677,cs),
(97,677,o),
(74,654,o),
(74,626,cs),
(74,598,o),
(97,575,o),
(125,575,cs)
);
}
);
width = 249;
}
);
unicode = 303;
},
{
glyphname = j;
kernLeft = i;
kernRight = i;
layers = (
{
layerId = "A99C00BB-606F-4263-964D-93C8B7F0BADD";
shapes = (
{
closed = 1;
nodes = (
(140,-240,o),
(175,-180,o),
(175,-103,cs),
(175,468,ls),
(175,494,o),
(155,514,o),
(129,514,cs),
(104,514,o),
(84,494,o),
(84,468,cs),
(84,-101,ls),
(84,-155,o),
(58,-160,o),
(23,-160,cs),
(11,-160,o),
(2,-157,o),
(-7,-157,cs),
(-29,-157,o),
(-45,-175,o),
(-45,-195,cs),
(-45,-212,o),
(-35,-226,o),
(-19,-231,cs),
(-1,-237,o),
(20,-240,o),
(44,-240,cs)
);
},
{
closed = 1;
nodes = (
(133,614,ls),
(161,614,o),
(184,637,o),
(184,665,cs),
(184,669,ls),
(184,697,o),
(161,720,o),
(133,720,cs),
(127,720,ls),
(99,720,o),
(76,697,o),
(76,669,cs),
(76,665,ls),
(76,637,o),
(99,614,o),
(127,614,cs)
);
}
);
width = 254;
}
);
note = j;
unicode = 106;
},
{
glyphname = jdotless;
kernLeft = i;
kernRight = i;
layers = (
{
anchors = (
{
name = bottom;
pos = (130,0);
},
{
name = top;
pos = (130,510);
}
);
layerId = "A99C00BB-606F-4263-964D-93C8B7F0BADD";
shapes = (
{
closed = 1;
nodes = (
(140,-240,o),
(175,-180,o),
(175,-103,cs),
(175,468,ls),
(175,494,o),
(155,514,o),
(129,514,cs),
(104,514,o),
(84,494,o),
(84,468,cs),
(84,-101,ls),
(84,-155,o),
(58,-160,o),
(23,-160,cs),
(11,-160,o),
(2,-157,o),
(-7,-157,cs),
(-29,-157,o),
(-45,-175,o),
(-45,-195,cs),
(-45,-212,o),
(-35,-226,o),
(-19,-231,cs),
(-1,-237,o),
(20,-240,o),
(44,-240,cs)
);
}
);
width = 254;
}
);
metricRight = "=|n";
note = dotlessj;
unicode = 567;
},
{
glyphname = k;
kernLeft = h;
kernRight = k;
layers = (
{
anchors = (
{
name = bottom;
pos = (273,0);
},
{
name = top;
pos = (273,510);
}
);
layerId = "A99C00BB-606F-4263-964D-93C8B7F0BADD";
shapes = (
{
closed = 1;
nodes = (
(149,-5,o),
(170,15,o),
(170,40,cs),
(170,169,l),
(257,248,l),
(429,14,l),
(438,3,o),
(452,-5,o),
(466,-5,cs),
(493,-5,o),
(512,12,o),
(512,39,cs),
(512,49,o),
(508,58,o),
(502,66,cs),
(321,306,l),
(465,435,l),
(479,449,o),
(482,461,o),
(482,469,cs),
(482,489,o),
(472,513,o),
(438,513,cs),
(426,513,o),
(416,507,o),
(408,500,cs),
(170,280,l),
(170,689,ls),
(170,714,o),
(149,735,o),
(124,735,cs),
(99,735,o),
(79,714,o),
(79,689,cs),
(79,40,ls),
(79,15,o),
(99,-5,o),
(124,-5,cs)
);
}
);
width = 545;
}
);
metricLeft = l;
note = k;
unicode = 107;
},
{
color = 3;
glyphname = kgreenlandic;
kernLeft = n;
kernRight = k;
layers = (
{
anchors = (
{
name = bottom;
pos = (273,0);
},
{
name = top;
pos = (273,510);
}
);
layerId = "A99C00BB-606F-4263-964D-93C8B7F0BADD";
shapes = (
{
closed = 1;
nodes = (
(149,-5,o),
(170,15,o),
(170,40,cs),
(170,169,l),
(257,248,l),
(429,14,l),
(438,3,o),
(452,-5,o),
(466,-5,cs),
(493,-5,o),
(512,12,o),
(512,39,cs),
(512,49,o),
(508,58,o),
(502,66,cs),
(321,306,l),
(465,435,l),
(479,449,o),
(482,461,o),
(482,469,cs),
(482,489,o),
(472,513,o),
(438,513,cs),
(426,513,o),
(416,507,o),
(408,500,cs),
(170,280,l),
(170,469,ls),
(170,494,o),
(149,515,o),
(124,515,cs),
(99,515,o),
(79,494,o),
(79,469,cs),
(79,40,ls),
(79,15,o),
(99,-5,o),
(124,-5,cs)
);
}
);
width = 545;
}
);
metricLeft = n;
metricRight = k;
unicode = 312;
},
{
glyphname = l;
kernLeft = h;
kernRight = l;
layers = (
{
anchors = (
{
name = bottom;
pos = (125,0);
},
{
name = center;
pos = (125,255);
},
{
name = top;
pos = (125,732);
},
{
name = topright;
pos = (200,732);
}
);
layerId = "A99C00BB-606F-4263-964D-93C8B7F0BADD";
shapes = (
{
closed = 1;
nodes = (
(150,-5,o),
(170,15,o),
(170,40,cs),
(170,689,ls),
(170,715,o),
(150,735,o),
(124,735,cs),
(99,735,o),
(79,715,o),
(79,689,cs),
(79,40,ls),
(79,15,o),
(99,-5,o),
(124,-5,cs)
);
}
);
width = 249;
}
);
note = l;
unicode = 108;
},
{
color = 3;
glyphname = ldot;
kernLeft = h;
kernRight = l;
layers = (
{
layerId = "A99C00BB-606F-4263-964D-93C8B7F0BADD";
shapes = (
{
closed = 1;
nodes = (
(150,-5,o),
(170,15,o),
(170,40,cs),
(170,689,ls),
(170,715,o),
(150,735,o),
(124,735,cs),
(99,735,o),
(79,715,o),
(79,689,cs),
(79,40,ls),
(79,15,o),
(99,-5,o),
(124,-5,cs)
);
},
{
closed = 1;
nodes = (
(288,316,o),
(311,339,o),
(311,367,cs),
(311,395,o),
(288,418,o),
(260,418,cs),
(232,418,o),
(209,395,o),
(209,367,cs),
(209,339,o),
(232,316,o),
(260,316,cs)
);
}
);
width = 269;
}
);
metricLeft = l;
metricWidth = "=l+20";
unicode = 320;
},
{
color = 3;
glyphname = lslash;
kernLeft = hbar;
kernRight = l;
layers = (
{
background = {
shapes = (
{
closed = 1;
nodes = (
(283,573,ls),
(302,573,o),
(317,587,o),
(317,606,cs),
(317,625,o),
(302,640,o),
(283,640,cs),
(37,640,ls),
(18,640,o),
(4,625,o),
(4,606,cs),
(4,587,o),
(18,573,o),
(37,573,cs)
);
},
{
closed = 1;
nodes = (
(244,461,ls),
(277,494,o),
(227,540,o),
(196,509,cs),
(14,326,ls),
(-17,295,o),
(30,247,o),
(61,278,cs)
);
}
);
};
guides = (
{
angle = 90;
pos = (4,228);
},
{
angle = 90;
pos = (255,365);
}
);
layerId = "A99C00BB-606F-4263-964D-93C8B7F0BADD";
shapes = (
{
closed = 1;
nodes = (
(155,-5,o),
(175,15,o),
(175,40,cs),
(175,392,l),
(244,461,ls),
(252,469,o),
(255,477,o),
(255,485,cs),
(255,503,o),
(238,519,o),
(219,519,cs),
(211,519,o),
(203,516,o),
(196,509,cs),
(175,488,l),
(175,689,ls),
(175,715,o),
(155,735,o),
(129,735,cs),
(104,735,o),
(84,715,o),
(84,689,cs),
(84,396,l),
(14,326,ls),
(7,319,o),
(4,311,o),
(4,303,cs),
(4,285,o),
(20,268,o),
(38,268,cs),
(46,268,o),
(54,271,o),
(61,278,cs),
(84,301,l),
(84,40,ls),
(84,15,o),
(104,-5,o),
(129,-5,cs)
);
}
);
width = 259;
}
);
unicode = 322;
},
{
glyphname = m;
kernLeft = n;
kernRight = n;
layers = (
{
anchors = (
{
name = bottom;
pos = (459,0);
},
{
name = top;
pos = (459,510);
}
);
layerId = "A99C00BB-606F-4263-964D-93C8B7F0BADD";
shapes = (
{
closed = 1;
nodes = (
(149,-5,o),
(170,15,o),
(170,40,cs),
(170,340,l),
(197,385,o),
(238,436,o),
(314,436,cs),
(390,436,o),
(416,394,o),
(416,310,cs),
(416,40,ls),
(416,15,o),
(436,-5,o),
(461,-5,cs),
(486,-5,o),
(507,15,o),
(507,40,cs),
(507,340,l),
(534,385,o),
(575,436,o),
(651,436,cs),
(727,436,o),
(753,394,o),
(753,310,cs),
(753,40,ls),
(753,15,o),
(773,-5,o),
(798,-5,cs),
(823,-5,o),
(844,15,o),
(844,40,cs),
(844,328,ls),
(844,417,o),
(795,520,o),
(677,520,cs),
(567,520,o),
(516,455,o),
(493,417,c),
(472,469,o),
(420,520,o),
(340,520,cs),
(245,520,o),
(198,467,o),
(170,428,c),
(170,469,ls),
(170,494,o),
(149,515,o),
(124,515,cs),
(99,515,o),
(79,494,o),
(79,469,cs),
(79,40,ls),
(79,15,o),
(99,-5,o),
(124,-5,cs)
);
}
);
width = 918;
}
);
metricLeft = n;
metricRight = n;
note = m;
unicode = 109;
},
{
glyphname = n;
kernLeft = n;
kernRight = n;
layers = (
{
anchors = (
{
name = bottom;
pos = (305,0);
},
{
name = top;
pos = (305,510);
}
);
layerId = "A99C00BB-606F-4263-964D-93C8B7F0BADD";
shapes = (
{
closed = 1;
nodes = (
(149,-5,o),
(170,15,o),
(170,40,cs),
(170,340,l),
(210,390,o),
(262,436,o),
(334,436,cs),
(412,436,o),
(444,390,o),
(444,314,cs),
(444,40,ls),
(444,15,o),
(464,-5,o),
(489,-5,cs),
(514,-5,o),
(535,15,o),
(535,40,cs),
(535,324,ls),
(535,431,o),
(470,520,o),
(356,520,cs),
(267,520,o),
(212,474,o),
(170,428,c),
(170,469,ls),
(170,495,o),
(149,515,o),
(124,515,cs),
(99,515,o),
(79,495,o),
(79,469,cs),
(79,40,ls),
(79,15,o),
(99,-5,o),
(124,-5,cs)
);
}
);
width = 609;
}
);
note = n;
unicode = 110;
},
{
color = 3;
glyphname = napostrophe;
kernLeft = napostrophe;
kernRight = napostrophe;
layers = (
{
layerId = "A99C00BB-606F-4263-964D-93C8B7F0BADD";
shapes = (
{
closed = 1;
nodes = (
(4,554,o),
(11,556,o),
(15,560,cs),
(52,587,o),
(73,612,o),
(73,655,cs),
(73,686,ls),
(73,713,o),
(55,735,o),
(27,735,cs),
(0,735,o),
(-20,713,o),
(-20,687,cs),
(-20,661,o),
(-1,643,o),
(26,643,c),
(26,619,o),
(8,606,o),
(-7,595,cs),
(-14,590,o),
(-20,585,o),
(-20,576,cs),
(-20,562,o),
(-10,554,o),
(-1,554,cs)
);
},
{
ref = n;
}
);
width = 609;
}
);
metricRight = n;
metricWidth = n;
unicode = 329;
},
{
color = 3;
glyphname = eng;
kernLeft = n;
kernRight = j;
layers = (
{
background = {
shapes = (
{
closed = 1;
nodes = (
(500,-240,o),
(535,-180,o),
(535,-103,cs),
(535,168,ls),
(535,194,o),
(515,214,o),
(489,214,cs),
(464,214,o),
(444,194,o),
(444,168,cs),
(444,-101,ls),
(444,-155,o),
(418,-160,o),
(383,-160,cs),
(371,-160,o),
(362,-157,o),
(353,-157,cs),
(331,-157,o),
(315,-175,o),
(315,-195,cs),
(315,-212,o),
(325,-226,o),
(341,-231,cs),
(359,-237,o),
(380,-240,o),
(404,-240,cs)
);
},
{
closed = 1;
nodes = (
(149,-5,o),
(170,15,o),
(170,40,cs),
(170,340,l),
(210,390,o),
(262,436,o),
(334,436,cs),
(412,436,o),
(444,390,o),
(444,314,cs),
(444,40,ls),
(444,15,o),
(464,-5,o),
(489,-5,cs),
(514,-5,o),
(535,15,o),
(535,40,cs),
(535,324,ls),
(535,431,o),
(470,520,o),
(356,520,cs),
(267,520,o),
(212,474,o),
(170,428,c),
(170,469,ls),
(170,495,o),
(149,515,o),
(124,515,cs),
(99,515,o),
(79,495,o),
(79,469,cs),
(79,40,ls),
(79,15,o),
(99,-5,o),
(124,-5,cs)
);
}
);
};
layerId = "A99C00BB-606F-4263-964D-93C8B7F0BADD";
shapes = (
{
closed = 1;
nodes = (
(500,-240,o),
(535,-170,o),
(535,-83,cs),
(535,324,ls),
(535,431,o),
(470,520,o),
(356,520,cs),
(267,520,o),
(212,474,o),
(170,428,c),
(170,469,ls),
(170,495,o),
(149,515,o),
(124,515,cs),
(99,515,o),
(79,495,o),
(79,469,cs),
(79,40,ls),
(79,15,o),
(99,-5,o),
(124,-5,cs),
(149,-5,o),
(170,15,o),
(170,40,cs),
(170,340,l),
(210,390,o),
(262,436,o),
(334,436,cs),
(412,436,o),
(444,390,o),
(444,314,cs),
(444,-81,ls),
(444,-145,o),
(418,-160,o),
(383,-160,cs),
(371,-160,o),
(362,-157,o),
(353,-157,cs),
(331,-157,o),
(315,-175,o),
(315,-195,cs),
(315,-212,o),
(325,-226,o),
(341,-231,cs),
(359,-237,o),
(380,-240,o),
(404,-240,cs)
);
}
);
width = 609;
}
);
metricLeft = n;
metricWidth = n;
unicode = 331;
},
{
glyphname = o;
kernLeft = o;
kernRight = o;
layers = (
{
anchors = (
{
name = bottom;
pos = (304,0);
},
{
name = center;
pos = (304,255);
},
{
name = ogonek;
pos = (410,10);
},
{
name = top;
pos = (304,510);
},
{
name = topright;
pos = (378,510);
}
);
layerId = "A99C00BB-606F-4263-964D-93C8B7F0BADD";
shapes = (
{
closed = 1;
nodes = (
(458,-10,o),
(560,97,o),
(560,255,cs),
(560,413,o),
(458,520,o),
(304,520,cs),
(149,520,o),
(48,413,o),
(48,255,cs),
(48,97,o),
(149,-10,o),
(304,-10,cs)
);
},
{
closed = 1;
nodes = (
(227,73,o),
(139,123,o),
(139,256,cs),
(139,388,o),
(227,437,o),
(304,437,cs),
(380,437,o),
(469,388,o),
(469,256,cs),
(469,123,o),
(380,73,o),
(304,73,cs)
);
}
);
width = 608;
}
);
note = o;
unicode = 111;
},
{
color = 3;
glyphname = ohorn;
kernLeft = o;
kernRight = o;
layers = (
{
anchors = (
{
name = bottom;
pos = (304,0);
},
{
name = top;
pos = (304,510);
}
);
background = {
shapes = (
{
closed = 1;
nodes = (
(458,-10,o),
(560,97,o),
(560,255,cs),
(560,358,o),
(516,440,o),
(443,484,c),
(304,520,l),
(149,520,o),
(48,413,o),
(48,255,cs),
(48,97,o),
(149,-10,o),
(304,-10,cs)
);
},
{
closed = 1;
nodes = (
(227,73,o),
(139,123,o),
(139,256,cs),
(139,388,o),
(227,437,o),
(304,437,cs),
(380,437,o),
(469,388,o),
(469,256,cs),
(469,123,o),
(380,73,o),
(304,73,cs)
);
},
{
closed = 1;
nodes = (
(518,438,o),
(560,499,o),
(560,565,cs),
(560,628,o),
(540,665,o),
(510,665,cs),
(492,665,o),
(477,651,o),
(477,632,cs),
(477,617,o),
(484,603,o),
(484,581,cs),
(484,536,o),
(459,510,o),
(412,510,cs),
(381,510,o),
(348,520,o),
(304,520,c),
(359,446,l),
(386,440,o),
(402,438,o),
(418,438,cs)
);
}
);
};
layerId = "A99C00BB-606F-4263-964D-93C8B7F0BADD";
shapes = (
{
closed = 1;
nodes = (
(458,-10,o),
(560,97,o),
(560,255,cs),
(560,336,o),
(533,403,o),
(486,450,c),
(538,471,o),
(560,517,o),
(560,565,cs),
(560,628,o),
(540,665,o),
(510,665,cs),
(492,665,o),
(477,651,o),
(477,632,cs),
(477,617,o),
(484,603,o),
(484,581,cs),
(484,536,o),
(459,510,o),
(412,510,cs),
(381,510,o),
(348,520,o),
(304,520,cs),
(149,520,o),
(48,413,o),
(48,255,cs),
(48,97,o),
(149,-10,o),
(304,-10,cs)
);
},
{
closed = 1;
nodes = (
(227,73,o),
(139,123,o),
(139,256,cs),
(139,388,o),
(227,437,o),
(304,437,cs),
(380,437,o),
(469,388,o),
(469,256,cs),
(469,123,o),
(380,73,o),
(304,73,cs)
);
}
);
width = 608;
}
);
metricLeft = o;
metricWidth = o;
unicode = 417;
},
{
color = 3;
glyphname = oogonek;
kernLeft = o;
kernRight = o;
layers = (
{
anchors = (
{
name = top;
pos = (304,510);
}
);
background = {
shapes = (
{
closed = 1;
nodes = (
(458,-10,o),
(560,97,o),
(560,255,cs),
(560,413,o),
(458,520,o),
(304,520,cs),
(149,520,o),
(48,413,o),
(48,255,cs),
(48,97,o),
(149,-10,o),
(304,-10,cs)
);
},
{
closed = 1;
nodes = (
(227,73,o),
(139,123,o),
(139,256,cs),
(139,388,o),
(227,437,o),
(304,437,cs),
(380,437,o),
(469,388,o),
(469,256,cs),
(469,123,o),
(380,73,o),
(304,73,cs)
);
},
{
closed = 1;
nodes = (
(355,-203,o),
(383,-194,o),
(404,-179,cs),
(411,-174,o),
(415,-168,o),
(415,-161,cs),
(415,-148,o),
(406,-139,o),
(393,-139,cs),
(390,-139,o),
(387,-140,o),
(384,-141,cs),
(374,-144,o),
(363,-147,o),
(349,-147,cs),
(313,-147,o),
(298,-129,o),
(298,-100,cs),
(298,-50,o),
(363,-12,o),
(410,10,c),
(329,10,l),
(276,-17,o),
(225,-55,o),
(225,-119,cs),
(225,-172,o),
(270,-203,o),
(318,-203,cs)
);
}
);
};
layerId = "A99C00BB-606F-4263-964D-93C8B7F0BADD";
shapes = (
{
closed = 1;
nodes = (
(355,-203,o),
(383,-194,o),
(404,-179,cs),
(411,-174,o),
(415,-168,o),
(415,-161,cs),
(415,-148,o),
(406,-139,o),
(393,-139,cs),
(390,-139,o),
(387,-140,o),
(384,-141,cs),
(374,-144,o),
(363,-147,o),
(349,-147,cs),
(313,-147,o),
(298,-129,o),
(298,-100,cs),
(298,-55,o),
(357,-11,o),
(411,11,cs),
(500,47,o),
(560,135,o),
(560,255,cs),
(560,413,o),
(458,520,o),
(304,520,cs),
(149,520,o),
(48,413,o),
(48,255,cs),
(48,100,o),
(145,-6,o),
(294,-10,c),
(256,-35,o),
(225,-69,o),
(225,-119,cs),
(225,-172,o),
(270,-203,o),
(318,-203,cs)
);
},
{
closed = 1;
nodes = (
(227,73,o),
(139,123,o),
(139,256,cs),
(139,388,o),
(227,437,o),
(304,437,cs),
(380,437,o),
(469,388,o),
(469,256,cs),
(469,123,o),
(380,73,o),
(304,73,cs)
);
}
);
width = 608;
}
);
metricLeft = o;
metricWidth = o;
unicode = 491;
},
{
glyphname = oslash;
kernLeft = o;
kernRight = o;
layers = (
{
anchors = (
{
name = top;
pos = (304,510);
}
);
layerId = "A99C00BB-606F-4263-964D-93C8B7F0BADD";
shapes = (
{
closed = 1;
nodes = (
(128,-31,o),
(136,-28,o),
(141,-21,cs),
(171,22,l),
(209,1,o),
(253,-10,o),
(304,-10,cs),
(458,-10,o),
(560,97,o),
(560,255,cs),
(560,341,o),
(530,412,o),
(477,458,c),
(505,498,ls),
(509,504,o),
(511,509,o),
(511,515,cs),
(511,528,o),
(501,539,o),
(486,539,cs),
(478,539,o),
(470,536,o),
(465,529,cs),
(436,488,l),
(398,508,o),
(354,520,o),
(304,520,cs),
(149,520,o),
(48,413,o),
(48,255,cs),
(48,169,o),
(78,98,o),
(130,51,c),
(101,10,ls),
(97,4,o),
(95,-1,o),
(95,-7,cs),
(95,-20,o),
(105,-31,o),
(120,-31,cs)
);
},
{
closed = 1;
nodes = (
(156,154,o),
(139,197,o),
(139,256,cs),
(139,388,o),
(227,437,o),
(304,437,cs),
(331,437,o),
(360,430,o),
(386,416,c),
(182,125,l)
);
},
{
closed = 1;
nodes = (
(276,73,o),
(248,79,o),
(222,94,c),
(426,385,l),
(451,356,o),
(469,314,o),
(469,256,cs),
(469,123,o),
(380,73,o),
(304,73,cs)
);
}
);
width = 608;
}
);
metricLeft = o;
metricRight = o;
note = oslash;
unicode = 248;
},
{
color = 3;
glyphname = oe;
kernLeft = o;
kernRight = e;
layers = (
{
anchors = (
{
name = bottom;
pos = (515,0);
},
{
name = top;
pos = (515,510);
}
);
background = {
shapes = (
{
closed = 1;
nodes = (
(458,-10,o),
(560,97,o),
(560,255,cs),
(560,413,o),
(458,520,o),
(304,520,cs),
(149,520,o),
(48,413,o),
(48,255,cs),
(48,97,o),
(149,-10,o),
(304,-10,cs)
);
},
{
closed = 1;
nodes = (
(227,73,o),
(139,123,o),
(139,256,cs),
(139,388,o),
(227,437,o),
(304,437,cs),
(380,437,o),
(469,388,o),
(469,256,cs),
(469,123,o),
(380,73,o),
(304,73,cs)
);
},
{
closed = 1;
nodes = (
(815,-10,o),
(859,9,o),
(903,34,cs),
(917,42,o),
(929,55,o),
(929,71,cs),
(929,94,o),
(910,110,o),
(889,110,cs),
(882,110,o),
(877,109,o),
(871,106,cs),
(834,87,o),
(796,75,o),
(736,75,cs),
(628,75,o),
(571,133,o),
(561,223,c),
(900,223,ls),
(928,223,o),
(946,243,o),
(946,268,cs),
(946,401,o),
(862,520,o),
(708,520,cs),
(542,520,o),
(469,390,o),
(469,255,cs),
(469,87,o),
(565,-10,o),
(728,-10,cs)
);
},
{
closed = 1;
nodes = (
(567,401,o),
(644,443,o),
(708,443,cs),
(772,443,o),
(850,401,o),
(856,297,c),
(561,297,l)
);
}
);
};
layerId = "A99C00BB-606F-4263-964D-93C8B7F0BADD";
shapes = (
{
closed = 1;
nodes = (
(448,-10,o),
(550,97,o),
(550,255,cs),
(550,413,o),
(448,520,o),
(304,520,cs),
(149,520,o),
(48,413,o),
(48,255,cs),
(48,97,o),
(149,-10,o),
(304,-10,cs)
);
},
{
closed = 1;
nodes = (
(227,73,o),
(139,123,o),
(139,256,cs),
(139,388,o),
(227,437,o),
(304,437,cs),
(380,437,o),
(469,388,o),
(469,256,cs),
(469,123,o),
(380,73,o),
(304,73,cs)
);
},
{
closed = 1;
nodes = (
(815,-10,o),
(859,9,o),
(903,34,cs),
(917,42,o),
(929,55,o),
(929,71,cs),
(929,94,o),
(910,110,o),
(889,110,cs),
(882,110,o),
(877,109,o),
(871,106,cs),
(834,87,o),
(796,75,o),
(736,75,cs),
(628,75,o),
(571,133,o),
(561,223,c),
(900,223,ls),
(928,223,o),
(946,243,o),
(946,268,cs),
(946,401,o),
(862,520,o),
(708,520,cs),
(549,520,o),
(479,390,o),
(479,255,cs),
(479,87,o),
(572,-10,o),
(728,-10,cs)
);
},
{
closed = 1;
nodes = (
(567,401,o),
(644,443,o),
(708,443,cs),
(772,443,o),
(850,401,o),
(856,297,c),
(561,297,l)
);
}
);
width = 987;
}
);
metricLeft = o;
metricRight = e;
unicode = 339;
},
{
glyphname = p;
kernLeft = n;
kernRight = o;
layers = (
{
anchors = (
{
name = bottom;
pos = (316,0);
},
{
name = top;
pos = (316,510);
}
);
layerId = "A99C00BB-606F-4263-964D-93C8B7F0BADD";
shapes = (
{
closed = 1;
nodes = (
(150,-235,o),
(170,-215,o),
(170,-189,cs),
(170,66,l),
(216,18,o),
(271,-10,o),
(341,-10,cs),
(462,-10,o),
(583,85,o),
(583,255,cs),
(583,425,o),
(462,520,o),
(341,520,cs),
(271,520,o),
(216,492,o),
(170,444,c),
(170,470,ls),
(170,495,o),
(150,515,o),
(124,515,cs),
(99,515,o),
(79,495,o),
(79,470,cs),
(79,-189,ls),
(79,-215,o),
(99,-235,o),
(124,-235,cs)
);
},
{
closed = 1;
nodes = (
(263,75,o),
(209,107,o),
(170,150,c),
(170,360,l),
(209,403,o),
(263,435,o),
(328,435,cs),
(423,435,o),
(492,373,o),
(492,255,cs),
(492,137,o),
(423,75,o),
(328,75,cs)
);
}
);
width = 631;
}
);
metricLeft = n;
metricRight = o;
note = p;
unicode = 112;
},
{
glyphname = thorn;
kernLeft = h;
kernRight = o;
layers = (
{
anchors = (
{
name = bottom;
pos = (316,0);
},
{
name = top;
pos = (316,510);
}
);
layerId = "A99C00BB-606F-4263-964D-93C8B7F0BADD";
shapes = (
{
closed = 1;
nodes = (
(150,-235,o),
(170,-215,o),
(170,-189,cs),
(170,66,l),
(216,18,o),
(271,-10,o),
(341,-10,cs),
(462,-10,o),
(583,85,o),
(583,255,cs),
(583,425,o),
(462,520,o),
(341,520,cs),
(271,520,o),
(216,492,o),
(170,444,c),
(170,689,ls),
(170,715,o),
(150,735,o),
(124,735,cs),
(99,735,o),
(79,715,o),
(79,689,cs),
(79,-189,ls),
(79,-215,o),
(99,-235,o),
(124,-235,cs)
);
},
{
closed = 1;
nodes = (
(263,75,o),
(209,107,o),
(170,150,c),
(170,360,l),
(209,403,o),
(263,435,o),
(328,435,cs),
(423,435,o),
(492,373,o),
(492,255,cs),
(492,137,o),
(423,75,o),
(328,75,cs)
);
}
);
width = 631;
}
);
metricRight = o;
note = thorn;
unicode = 254;
},
{
glyphname = q;
kernLeft = o;
kernRight = u;
layers = (
{
anchors = (
{
name = bottom;
pos = (316,0);
},
{
name = top;
pos = (316,510);
}
);
layerId = "A99C00BB-606F-4263-964D-93C8B7F0BADD";
shapes = (
{
closed = 1;
nodes = (
(532,-235,o),
(552,-215,o),
(552,-189,cs),
(552,470,ls),
(552,495,o),
(532,515,o),
(507,515,cs),
(481,515,o),
(461,495,o),
(461,470,cs),
(461,444,l),
(415,492,o),
(360,520,o),
(290,520,cs),
(169,520,o),
(48,425,o),
(48,255,cs),
(48,85,o),
(169,-10,o),
(290,-10,cs),
(360,-10,o),
(415,18,o),
(461,66,c),
(461,-189,ls),
(461,-215,o),
(481,-235,o),
(507,-235,cs)
);
},
{
closed = 1;
nodes = (
(208,75,o),
(139,137,o),
(139,255,cs),
(139,373,o),
(208,435,o),
(303,435,cs),
(368,435,o),
(422,403,o),
(461,360,c),
(461,150,l),
(422,107,o),
(368,75,o),
(303,75,cs)
);
}
);
width = 631;
}
);
metricLeft = o;
note = q;
unicode = 113;
},
{
glyphname = r;
kernLeft = n;
kernRight = r;
layers = (
{
anchors = (
{
name = bottom;
pos = (124,0);
},
{
name = top;
pos = (208,510);
}
);
layerId = "A99C00BB-606F-4263-964D-93C8B7F0BADD";
shapes = (
{
closed = 1;
nodes = (
(149,-5,o),
(170,15,o),
(170,40,cs),
(170,344,l),
(205,396,o),
(259,432,o),
(325,432,cs),
(330,432,ls),
(356,432,o),
(376,449,o),
(376,475,cs),
(376,500,o),
(357,520,o),
(332,520,cs),
(327,520,ls),
(258,520,o),
(206,474,o),
(170,426,c),
(170,469,ls),
(170,494,o),
(149,515,o),
(124,515,cs),
(99,515,o),
(79,494,o),
(79,469,cs),
(79,40,ls),
(79,15,o),
(99,-5,o),
(124,-5,cs)
);
}
);
width = 383;
}
);
metricLeft = n;
note = r;
unicode = 114;
},
{
glyphname = s;
kernLeft = s;
kernRight = s;
layers = (
{
anchors = (
{
name = bottom;
pos = (237,0);
},
{
name = top;
pos = (237,510);
}
);
layerId = "A99C00BB-606F-4263-964D-93C8B7F0BADD";
shapes = (
{
closed = 1;
nodes = (
(372,-10,o),
(437,57,o),
(437,138,cs),
(437,334,o),
(136,263,o),
(136,367,cs),
(136,407,o),
(177,437,o),
(251,437,cs),
(295,437,o),
(333,429,o),
(365,419,c),
(369,418,o),
(373,417,o),
(378,417,cs),
(401,417,o),
(418,436,o),
(418,457,cs),
(418,472,o),
(408,489,o),
(389,495,c),
(348,510,o),
(299,520,o),
(244,520,cs),
(114,520,o),
(49,452,o),
(49,362,cs),
(49,180,o),
(349,231,o),
(349,145,cs),
(349,100,o),
(315,74,o),
(238,74,cs),
(179,74,o),
(138,88,o),
(102,104,cs),
(95,107,o),
(90,108,o),
(84,108,cs),
(61,108,o),
(45,88,o),
(45,68,cs),
(45,54,o),
(52,42,o),
(62,35,c),
(113,7,o),
(171,-10,o),
(244,-10,cs)
);
}
);
width = 480;
}
);
note = s;
unicode = 115;
},
{
glyphname = germandbls;
kernLeft = l;
kernRight = germandbls;
layers = (
{
layerId = "A99C00BB-606F-4263-964D-93C8B7F0BADD";
shapes = (
{
closed = 1;
nodes = (
(468,-10,o),
(563,49,o),
(563,174,cs),
(563,292,o),
(476,337,o),
(414,352,c),
(467,369,o),
(524,410,o),
(524,512,cs),
(524,648,o),
(407,708,o),
(305,708,cs),
(173,708,o),
(79,629,o),
(79,486,cs),
(79,41,ls),
(79,16,o),
(99,-4,o),
(124,-4,cs),
(149,-4,o),
(170,16,o),
(170,41,cs),
(170,475,ls),
(170,594,o),
(239,623,o),
(304,623,cs),
(384,623,o),
(433,577,o),
(433,502,cs),
(433,438,o),
(382,392,o),
(300,383,cs),
(278,380,o),
(262,366,o),
(262,346,cs),
(262,324,o),
(276,309,o),
(300,309,cs),
(398,309,o),
(472,263,o),
(472,185,cs),
(472,91,o),
(396,71,o),
(358,71,cs),
(330,71,o),
(305,74,o),
(284,81,c),
(279,83,o),
(274,84,o),
(269,84,cs),
(246,84,o),
(230,67,o),
(230,45,cs),
(230,25,o),
(244,13,o),
(262,7,cs),
(291,-3,o),
(329,-10,o),
(373,-10,cs)
);
}
);
width = 608;
}
);
note = germandbls;
unicode = 223;
},
{
glyphname = longs;
kernLeft = f;
kernRight = longs;
layers = (
{
layerId = "A99C00BB-606F-4263-964D-93C8B7F0BADD";
shapes = (
{
closed = 1;
nodes = (
(188,-5,o),
(208,15,o),
(208,40,cs),
(208,565,ls),
(208,636,o),
(240,653,o),
(290,653,cs),
(309,653,o),
(324,647,o),
(340,647,cs),
(361,647,o),
(377,666,o),
(377,685,cs),
(377,701,o),
(366,714,o),
(354,720,cs),
(330,732,o),
(300,740,o),
(267,740,cs),
(196,740,o),
(117,694,o),
(117,568,cs),
(117,510,l),
(58,510,ls),
(36,510,o),
(19,493,o),
(19,471,cs),
(19,449,o),
(36,432,o),
(58,432,cs),
(117,432,l),
(117,40,ls),
(117,15,o),
(137,-5,o),
(162,-5,cs)
);
}
);
width = 287;
}
);
metricLeft = f;
note = longs;
unicode = 383;
},
{
glyphname = t;
kernLeft = t;
kernRight = t;
layers = (
{
anchors = (
{
name = bottom;
pos = (218,0);
},
{
name = center;
pos = (155,255);
},
{
name = top;
pos = (181,605);
},
{
name = topright;
pos = (240,732);
}
);
layerId = "A99C00BB-606F-4263-964D-93C8B7F0BADD";
shapes = (
{
closed = 1;
nodes = (
(287,-10,o),
(314,-3,o),
(338,8,cs),
(352,15,o),
(361,26,o),
(361,43,cs),
(361,64,o),
(343,79,o),
(325,79,cs),
(308,79,o),
(297,70,o),
(265,70,cs),
(240,70,o),
(200,71,o),
(200,130,cs),
(200,432,l),
(313,432,ls),
(335,432,o),
(352,449,o),
(352,471,cs),
(352,493,o),
(335,510,o),
(313,510,cs),
(200,510,l),
(200,590,ls),
(200,601,o),
(192,610,o),
(181,610,cs),
(173,610,o),
(167,604,o),
(164,601,cs),
(28,468,l),
(22,463,o),
(19,457,o),
(19,451,cs),
(19,440,o),
(27,432,o),
(38,432,cs),
(109,432,l),
(109,122,ls),
(109,-2,o),
(208,-10,o),
(255,-10,cs)
);
}
);
width = 382;
}
);
metricLeft = f;
note = t;
unicode = 116;
},
{
color = 3;
glyphname = tbar;
kernLeft = t;
kernRight = t;
layers = (
{
background = {
shapes = (
{
closed = 1;
nodes = (
(313,247,ls),
(332,247,o),
(347,261,o),
(347,280,cs),
(347,299,o),
(332,314,o),
(313,314,cs),
(67,314,ls),
(48,314,o),
(34,299,o),
(34,280,cs),
(34,261,o),
(48,247,o),
(67,247,cs)
);
},
{
closed = 1;
nodes = (
(292,-10,o),
(319,-3,o),
(343,8,cs),
(357,15,o),
(366,26,o),
(366,43,cs),
(366,64,o),
(348,79,o),
(330,79,cs),
(313,79,o),
(302,70,o),
(270,70,cs),
(245,70,o),
(205,71,o),
(205,130,cs),
(205,432,l),
(318,432,ls),
(340,432,o),
(357,449,o),
(357,471,cs),
(357,493,o),
(340,510,o),
(318,510,cs),
(205,510,l),
(205,590,ls),
(205,601,o),
(197,610,o),
(186,610,cs),
(178,610,o),
(172,604,o),
(169,601,cs),
(33,468,l),
(27,463,o),
(24,457,o),
(24,451,cs),
(24,440,o),
(32,432,o),
(43,432,cs),
(114,432,l),
(114,122,ls),
(114,-2,o),
(213,-10,o),
(260,-10,cs)
);
}
);
};
layerId = "A99C00BB-606F-4263-964D-93C8B7F0BADD";
shapes = (
{
closed = 1;
nodes = (
(292,-10,o),
(319,-3,o),
(343,8,cs),
(357,15,o),
(366,26,o),
(366,43,cs),
(366,64,o),
(348,79,o),
(330,79,cs),
(313,79,o),
(302,70,o),
(270,70,cs),
(245,70,o),
(205,71,o),
(205,130,cs),
(205,247,l),
(313,247,ls),
(332,247,o),
(347,261,o),
(347,280,cs),
(347,299,o),
(332,314,o),
(313,314,cs),
(205,314,l),
(205,432,l),
(318,432,ls),
(340,432,o),
(357,449,o),
(357,471,cs),
(357,493,o),
(340,510,o),
(318,510,cs),
(205,510,l),
(205,590,ls),
(205,601,o),
(197,610,o),
(186,610,cs),
(178,610,o),
(172,604,o),
(169,601,cs),
(33,468,l),
(27,463,o),
(24,457,o),
(24,451,cs),
(24,440,o),
(32,432,o),
(43,432,cs),
(114,432,l),
(114,314,l),
(67,314,ls),
(48,314,o),
(34,299,o),
(34,280,cs),
(34,261,o),
(48,247,o),
(67,247,cs),
(114,247,l),
(114,122,ls),
(114,-2,o),
(213,-10,o),
(260,-10,cs)
);
}
);
width = 392;
}
);
metricLeft = "=t+5";
metricRight = "=t+5";
unicode = 359;
},
{
color = 10;
glyphname = tcommaaccent;
kernLeft = t;
kernRight = t;
layers = (
{
background = {
shapes = (
{
closed = 1;
nodes = (
(289,-10,o),
(316,-3,o),
(340,8,cs),
(354,15,o),
(363,26,o),
(363,43,cs),
(363,64,o),
(345,79,o),
(327,79,cs),
(310,79,o),
(299,70,o),
(267,70,cs),
(242,70,o),
(202,71,o),
(202,130,cs),
(202,432,l),
(315,432,ls),
(337,432,o),
(354,449,o),
(354,471,cs),
(354,493,o),
(337,510,o),
(315,510,cs),
(202,510,l),
(202,590,ls),
(202,601,o),
(194,610,o),
(183,610,cs),
(175,610,o),
(169,604,o),
(166,601,cs),
(30,468,l),
(24,463,o),
(21,457,o),
(21,451,cs),
(21,440,o),
(29,432,o),
(40,432,cs),
(111,432,l),
(111,122,ls),
(111,-2,o),
(210,-10,o),
(257,-10,cs)
);
},
{
closed = 1;
nodes = (
(163,-286,o),
(170,-283,o),
(172,-281,c),
(207,-260,o),
(246,-222,o),
(246,-150,cs),
(246,-103,l),
(246,-98,ls),
(246,-70,o),
(223,-47,o),
(196,-47,cs),
(187,-47,ls),
(159,-47,o),
(136,-70,o),
(136,-98,cs),
(136,-103,ls),
(136,-131,o),
(159,-153,o),
(187,-153,cs),
(190,-153,l),
(190,-202,o),
(171,-221,o),
(145,-236,c),
(136,-242,o),
(131,-249,o),
(131,-259,cs),
(131,-273,o),
(142,-286,o),
(157,-286,cs)
);
}
);
};
layerId = "A99C00BB-606F-4263-964D-93C8B7F0BADD";
shapes = (
{
ref = t;
},
{
pos = (18,0);
ref = commaaccentcomb;
}
);
width = 382;
}
);
note = uni021B;
unicode = 539;
},
{
glyphname = u;
kernLeft = u;
kernRight = u;
layers = (
{
anchors = (
{
name = bottom;
pos = (305,0);
},
{
name = ogonek;
pos = (518,10);
},
{
name = top;
pos = (305,510);
},
{
name = topright;
pos = (485,510);
}
);
layerId = "A99C00BB-606F-4263-964D-93C8B7F0BADD";
shapes = (
{
closed = 1;
nodes = (
(342,-10,o),
(397,36,o),
(439,82,c),
(439,41,ls),
(439,15,o),
(460,-5,o),
(485,-5,cs),
(510,-5,o),
(530,15,o),
(530,41,cs),
(530,470,ls),
(530,495,o),
(510,515,o),
(485,515,cs),
(460,515,o),
(439,495,o),
(439,470,cs),
(439,170,l),
(399,120,o),
(347,74,o),
(275,74,cs),
(197,74,o),
(165,120,o),
(165,196,cs),
(165,470,ls),
(165,495,o),
(145,515,o),
(120,515,cs),
(95,515,o),
(74,495,o),
(74,470,cs),
(74,186,ls),
(74,79,o),
(139,-10,o),
(253,-10,cs)
);
}
);
width = 609;
}
);
metricLeft = "=|n";
metricRight = "=|n";
note = u;
unicode = 117;
},
{
color = 3;
glyphname = uhorn;
kernLeft = u;
kernRight = uhorn;
layers = (
{
anchors = (
{
name = bottom;
pos = (305,0);
},
{
name = top;
pos = (305,510);
}
);
background = {
shapes = (
{
closed = 1;
nodes = (
(342,-10,o),
(397,36,o),
(439,82,c),
(439,41,ls),
(439,15,o),
(460,-5,o),
(485,-5,cs),
(510,-5,o),
(530,15,o),
(530,41,cs),
(530,470,l),
(485,515,l),
(460,515,o),
(439,495,o),
(439,470,cs),
(439,170,l),
(399,120,o),
(347,74,o),
(275,74,cs),
(197,74,o),
(165,120,o),
(165,196,cs),
(165,470,ls),
(165,495,o),
(145,515,o),
(120,515,cs),
(95,515,o),
(74,495,o),
(74,470,cs),
(74,186,ls),
(74,79,o),
(139,-10,o),
(253,-10,cs)
);
},
{
closed = 1;
nodes = (
(641,438,o),
(684,499,o),
(684,565,cs),
(684,628,o),
(664,665,o),
(634,665,cs),
(616,665,o),
(601,651,o),
(601,632,cs),
(601,617,o),
(608,603,o),
(608,581,cs),
(608,536,o),
(583,510,o),
(541,510,cs),
(517,510,o),
(504,515,o),
(485,515,c),
(485,446,l),
(512,440,o),
(527,438,o),
(543,438,cs)
);
}
);
};
layerId = "A99C00BB-606F-4263-964D-93C8B7F0BADD";
shapes = (
{
closed = 1;
nodes = (
(342,-10,o),
(397,36,o),
(439,82,c),
(439,41,ls),
(439,15,o),
(460,-5,o),
(485,-5,cs),
(510,-5,o),
(530,15,o),
(530,41,cs),
(530,470,l),
(485,515,l),
(460,515,o),
(439,495,o),
(439,470,cs),
(439,170,l),
(399,120,o),
(347,74,o),
(275,74,cs),
(197,74,o),
(165,120,o),
(165,196,cs),
(165,470,ls),
(165,495,o),
(145,515,o),
(120,515,cs),
(95,515,o),
(74,495,o),
(74,470,cs),
(74,186,ls),
(74,79,o),
(139,-10,o),
(253,-10,cs)
);
},
{
closed = 1;
nodes = (
(627,438,o),
(670,499,o),
(670,565,cs),
(670,628,o),
(650,665,o),
(620,665,cs),
(602,665,o),
(587,651,o),
(587,632,cs),
(587,617,o),
(594,603,o),
(594,580,cs),
(594,534,o),
(569,510,o),
(534,510,cs),
(517,510,o),
(504,515,o),
(485,515,c),
(485,446,l),
(512,440,o),
(524,438,o),
(536,438,cs)
);
}
);
width = 619;
}
);
metricLeft = u;
metricWidth = "=u+10";
unicode = 432;
},
{
color = 3;
glyphname = uogonek;
kernLeft = u;
kernRight = u;
layers = (
{
background = {
shapes = (
{
closed = 1;
nodes = (
(942,-10,o),
(997,36,o),
(1039,82,c),
(1039,41,ls),
(1039,15,o),
(1060,-5,o),
(1085,-5,cs),
(1110,-5,o),
(1130,15,o),
(1130,41,cs),
(1130,470,ls),
(1130,495,o),
(1110,515,o),
(1085,515,cs),
(1060,515,o),
(1039,495,o),
(1039,470,cs),
(1039,170,l),
(999,120,o),
(947,74,o),
(875,74,cs),
(797,74,o),
(765,120,o),
(765,196,cs),
(765,470,ls),
(765,495,o),
(745,515,o),
(720,515,cs),
(695,515,o),
(674,495,o),
(674,470,cs),
(674,186,ls),
(674,79,o),
(739,-10,o),
(853,-10,cs)
);
},
{
closed = 1;
nodes = (
(1063,-203,o),
(1091,-194,o),
(1112,-179,cs),
(1119,-174,o),
(1123,-168,o),
(1123,-161,cs),
(1123,-148,o),
(1114,-139,o),
(1101,-139,cs),
(1098,-139,o),
(1095,-140,o),
(1092,-141,cs),
(1082,-144,o),
(1071,-147,o),
(1057,-147,cs),
(1021,-147,o),
(1006,-129,o),
(1006,-100,cs),
(1006,-50,o),
(1071,-12,o),
(1118,10,c),
(1037,10,l),
(984,-17,o),
(933,-55,o),
(933,-119,cs),
(933,-172,o),
(978,-203,o),
(1026,-203,cs)
);
},
{
closed = 1;
nodes = (
(530,323,ls),
(530,421,o),
(467,520,o),
(321,520,cs),
(250,520,o),
(195,503,o),
(148,484,cs),
(131,477,o),
(122,463,o),
(122,446,cs),
(122,424,o),
(139,408,o),
(159,408,cs),
(163,408,o),
(168,409,o),
(172,410,c),
(209,422,o),
(249,434,o),
(305,434,cs),
(395,434,o),
(439,399,o),
(439,310,cs),
(439,302,l),
(318,302,ls),
(162,302,o),
(88,234,o),
(88,140,cs),
(88,46,o),
(164,-10,o),
(251,-10,cs),
(345,-10,o),
(403,29,o),
(439,66,c),
(439,15,l),
(382,-15,o),
(332,-58,o),
(332,-119,cs),
(332,-172,o),
(377,-203,o),
(425,-203,cs),
(462,-203,o),
(490,-194,o),
(511,-179,cs),
(518,-174,o),
(522,-168,o),
(522,-161,cs),
(522,-148,o),
(513,-139,o),
(500,-139,cs),
(497,-139,o),
(494,-140,o),
(491,-141,cs),
(481,-144,o),
(470,-147,o),
(456,-147,cs),
(420,-147,o),
(406,-129,o),
(405,-100,cs),
(404,-66,o),
(437,-27,o),
(496,-4,cs),
(517,4,o),
(530,20,o),
(530,40,cs)
);
},
{
closed = 1;
nodes = (
(204,70,o),
(179,107,o),
(179,150,cs),
(179,207,o),
(236,229,o),
(330,229,cs),
(439,229,l),
(439,145,l),
(405,106,o),
(347,70,o),
(285,70,cs)
);
}
);
};
layerId = "A99C00BB-606F-4263-964D-93C8B7F0BADD";
shapes = (
{
closed = 1;
nodes = (
(462,-203,o),
(490,-194,o),
(511,-179,cs),
(518,-174,o),
(522,-168,o),
(522,-161,cs),
(522,-148,o),
(513,-139,o),
(500,-139,cs),
(497,-139,o),
(494,-140,o),
(491,-141,cs),
(481,-144,o),
(470,-147,o),
(456,-147,cs),
(420,-147,o),
(405,-129,o),
(405,-100,cs),
(405,-66,o),
(437,-27,o),
(496,-4,cs),
(517,4,o),
(530,20,o),
(530,40,cs),
(530,470,ls),
(530,495,o),
(510,515,o),
(485,515,cs),
(460,515,o),
(439,495,o),
(439,470,cs),
(439,170,l),
(399,120,o),
(347,74,o),
(275,74,cs),
(197,74,o),
(165,120,o),
(165,196,cs),
(165,470,ls),
(165,495,o),
(145,515,o),
(120,515,cs),
(95,515,o),
(74,495,o),
(74,470,cs),
(74,186,ls),
(74,79,o),
(139,-10,o),
(253,-10,cs),
(342,-10,o),
(397,36,o),
(439,82,c),
(439,15,l),
(382,-15,o),
(332,-57,o),
(332,-119,cs),
(332,-172,o),
(377,-203,o),
(425,-203,cs)
);
}
);
width = 609;
}
);
metricLeft = u;
metricWidth = u;
unicode = 371;
},
{
glyphname = v;
kernLeft = v;
kernRight = v;
layers = (
{
anchors = (
{
name = bottom;
pos = (265,0);
},
{
name = top;
pos = (265,510);
}
);
layerId = "A99C00BB-606F-4263-964D-93C8B7F0BADD";
shapes = (
{
closed = 1;
nodes = (
(270,-5,ls),
(295,-5,o),
(316,12,o),
(325,32,cs),
(499,448,ls),
(502,455,o),
(504,461,o),
(504,469,cs),
(504,494,o),
(484,515,o),
(459,515,cs),
(441,515,o),
(424,504,o),
(418,489,cs),
(265,101,l),
(112,489,ls),
(106,504,o),
(89,515,o),
(71,515,cs),
(46,515,o),
(26,494,o),
(26,469,cs),
(26,461,o),
(28,455,o),
(31,448,cs),
(205,32,ls),
(214,12,o),
(235,-5,o),
(260,-5,cs)
);
}
);
width = 530;
}
);
note = v;
unicode = 118;
},
{
glyphname = w;
kernLeft = v;
kernRight = v;
layers = (
{
anchors = (
{
name = bottom;
pos = (396,0);
},
{
name = top;
pos = (396,510);
}
);
layerId = "A99C00BB-606F-4263-964D-93C8B7F0BADD";
shapes = (
{
closed = 1;
nodes = (
(258,-5,o),
(281,14,o),
(290,38,c),
(396,369,l),
(502,38,l),
(511,14,o),
(534,-5,o),
(561,-5,cs),
(588,-5,o),
(611,14,o),
(619,37,cs),
(761,453,ls),
(763,459,o),
(764,464,o),
(764,470,cs),
(764,495,o),
(744,515,o),
(719,515,cs),
(701,515,o),
(683,505,o),
(678,488,cs),
(561,103,l),
(445,479,ls),
(439,500,o),
(419,515,o),
(396,515,cs),
(373,515,o),
(353,500,o),
(347,479,cs),
(231,103,l),
(114,488,ls),
(109,505,o),
(91,515,o),
(73,515,cs),
(48,515,o),
(28,495,o),
(28,470,cs),
(28,464,o),
(29,459,o),
(31,453,cs),
(173,37,ls),
(181,14,o),
(204,-5,o),
(231,-5,cs)
);
}
);
width = 792;
}
);
note = w;
unicode = 119;
},
{
glyphname = x;
kernLeft = x;
kernRight = x;
layers = (
{
anchors = (
{
name = bottom;
pos = (270,0);
},
{
name = top;
pos = (270,510);
}
);
layerId = "A99C00BB-606F-4263-964D-93C8B7F0BADD";
shapes = (
{
closed = 1;
nodes = (
(110,-5,o),
(124,3,o),
(133,15,cs),
(267,183,l),
(409,13,l),
(417,2,o),
(430,-5,o),
(444,-5,cs),
(475,-5,o),
(490,18,o),
(490,41,cs),
(490,49,o),
(487,61,o),
(479,70,cs),
(323,258,l),
(481,444,l),
(487,452,o),
(491,462,o),
(491,472,cs),
(491,496,o),
(472,515,o),
(445,515,cs),
(431,515,o),
(418,509,o),
(410,498,c),
(271,325,l),
(131,498,l),
(124,508,o),
(111,515,o),
(95,515,cs),
(70,515,o),
(50,498,o),
(50,470,cs),
(50,459,o),
(54,450,o),
(61,441,cs),
(216,252,l),
(61,69,l),
(54,60,o),
(51,51,o),
(51,41,cs),
(51,13,o),
(68,-5,o),
(94,-5,cs)
);
}
);
width = 541;
}
);
note = x;
unicode = 120;
},
{
glyphname = y;
kernLeft = v;
kernRight = v;
layers = (
{
anchors = (
{
name = bottom;
pos = (399,0);
},
{
name = top;
pos = (269,510);
}
);
layerId = "A99C00BB-606F-4263-964D-93C8B7F0BADD";
shapes = (
{
closed = 1;
nodes = (
(214,-235,o),
(227,-222,o),
(235,-204,cs),
(508,452,ls),
(510,457,o),
(511,463,o),
(511,469,cs),
(511,494,o),
(491,515,o),
(466,515,cs),
(446,515,o),
(432,503,o),
(424,485,cs),
(267,105,l),
(113,487,ls),
(106,503,o),
(90,515,o),
(71,515,cs),
(46,515,o),
(26,494,o),
(26,469,cs),
(26,462,o),
(28,455,o),
(30,450,cs),
(218,-8,l),
(153,-175,ls),
(151,-180,o),
(150,-186,o),
(150,-191,cs),
(150,-215,o),
(169,-235,o),
(193,-235,cs)
);
}
);
width = 537;
}
);
metricLeft = v;
metricRight = v;
note = y;
unicode = 121;
},
{
glyphname = z;
kernLeft = z;
kernRight = z;
layers = (
{
anchors = (
{
name = bottom;
pos = (251,0);
},
{
name = top;
pos = (251,510);
}
);
layerId = "A99C00BB-606F-4263-964D-93C8B7F0BADD";
shapes = (
{
closed = 1;
nodes = (
(415,0,ls),
(439,0,o),
(458,18,o),
(458,42,cs),
(458,66,o),
(439,85,o),
(415,85,cs),
(158,85,l),
(438,413,ls),
(447,424,o),
(452,437,o),
(452,453,cs),
(452,487,o),
(428,510,o),
(394,510,cs),
(91,510,ls),
(67,510,o),
(49,491,o),
(49,467,cs),
(49,443,o),
(67,425,o),
(91,425,cs),
(344,425,l),
(56,94,ls),
(46,83,o),
(40,69,o),
(40,53,cs),
(40,18,o),
(68,0,o),
(103,0,cs)
);
}
);
width = 498;
}
);
note = z;
unicode = 122;
},
{
glyphname = f_f;
kernLeft = f;
kernRight = f;
layers = (
{
layerId = "A99C00BB-606F-4263-964D-93C8B7F0BADD";
shapes = (
{
closed = 1;
nodes = (
(188,-5,o),
(208,15,o),
(208,40,cs),
(208,432,l),
(511,432,l),
(511,40,ls),
(511,15,o),
(531,-5,o),
(556,-5,cs),
(582,-5,o),
(602,15,o),
(602,40,cs),
(602,432,l),
(727,432,ls),
(749,432,o),
(766,449,o),
(766,471,cs),
(766,493,o),
(749,510,o),
(727,510,cs),
(602,510,l),
(602,565,ls),
(602,636,o),
(634,653,o),
(684,653,cs),
(703,653,o),
(718,647,o),
(734,647,cs),
(755,647,o),
(771,666,o),
(771,685,cs),
(771,701,o),
(760,714,o),
(748,720,cs),
(724,732,o),
(694,740,o),
(661,740,cs),
(590,740,o),
(511,694,o),
(511,568,cs),
(511,510,l),
(208,510,l),
(208,565,ls),
(208,636,o),
(240,653,o),
(290,653,cs),
(309,653,o),
(324,647,o),
(340,647,cs),
(361,647,o),
(377,666,o),
(377,685,cs),
(377,701,o),
(366,714,o),
(354,720,cs),
(330,732,o),
(300,740,o),
(267,740,cs),
(196,740,o),
(117,694,o),
(117,568,cs),
(117,510,l),
(58,510,ls),
(36,510,o),
(19,493,o),
(19,471,cs),
(19,449,o),
(36,432,o),
(58,432,cs),
(117,432,l),
(117,40,ls),
(117,15,o),
(137,-5,o),
(162,-5,cs)
);
}
);
width = 774;
}
);
metricLeft = f;
note = f_f;
},
{
glyphname = f_f_i;
kernLeft = f;
kernRight = i;
layers = (
{
layerId = "A99C00BB-606F-4263-964D-93C8B7F0BADD";
shapes = (
{
closed = 1;
nodes = (
(188,-5,o),
(208,15,o),
(208,40,cs),
(208,432,l),
(511,432,l),
(511,40,ls),
(511,15,o),
(531,-5,o),
(556,-5,cs),
(582,-5,o),
(602,15,o),
(602,40,cs),
(602,432,l),
(861,432,l),
(861,40,ls),
(861,15,o),
(881,-5,o),
(906,-5,cs),
(932,-5,o),
(952,15,o),
(952,40,cs),
(952,464,ls),
(952,490,o),
(932,510,o),
(906,510,cs),
(602,510,l),
(602,565,ls),
(602,636,o),
(634,653,o),
(684,653,cs),
(703,653,o),
(718,647,o),
(734,647,cs),
(755,647,o),
(771,666,o),
(771,685,cs),
(771,701,o),
(760,714,o),
(748,720,cs),
(724,732,o),
(694,740,o),
(661,740,cs),
(590,740,o),
(511,694,o),
(511,568,cs),
(511,510,l),
(208,510,l),
(208,565,ls),
(208,636,o),
(240,653,o),
(290,653,cs),
(309,653,o),
(324,647,o),
(340,647,cs),
(361,647,o),
(377,666,o),
(377,685,cs),
(377,701,o),
(366,714,o),
(354,720,cs),
(330,732,o),
(300,740,o),
(267,740,cs),
(196,740,o),
(117,694,o),
(117,568,cs),
(117,510,l),
(58,510,ls),
(36,510,o),
(19,493,o),
(19,471,cs),
(19,449,o),
(36,432,o),
(58,432,cs),
(117,432,l),
(117,40,ls),
(117,15,o),
(137,-5,o),
(162,-5,cs)
);
},
{
closed = 1;
nodes = (
(910,614,ls),
(938,614,o),
(961,637,o),
(961,665,cs),
(961,669,ls),
(961,697,o),
(938,720,o),
(910,720,cs),
(904,720,ls),
(876,720,o),
(853,697,o),
(853,669,cs),
(853,665,ls),
(853,637,o),
(876,614,o),
(904,614,cs)
);
}
);
width = 1031;
}
);
metricLeft = f;
metricRight = i;
note = f_f_i;
},
{
glyphname = f_f_l;
kernLeft = f;
kernRight = l;
layers = (
{
layerId = "A99C00BB-606F-4263-964D-93C8B7F0BADD";
shapes = (
{
closed = 1;
nodes = (
(188,-5,o),
(208,15,o),
(208,40,cs),
(208,432,l),
(511,432,l),
(511,40,ls),
(511,15,o),
(531,-5,o),
(556,-5,cs),
(582,-5,o),
(602,15,o),
(602,40,cs),
(602,432,l),
(727,432,ls),
(749,432,o),
(766,449,o),
(766,471,cs),
(766,493,o),
(749,510,o),
(727,510,cs),
(602,510,l),
(602,565,ls),
(602,636,o),
(634,653,o),
(684,653,cs),
(703,653,o),
(718,647,o),
(734,647,cs),
(755,647,o),
(771,666,o),
(771,685,cs),
(771,701,o),
(760,714,o),
(748,720,cs),
(724,732,o),
(694,740,o),
(661,740,cs),
(590,740,o),
(511,694,o),
(511,568,cs),
(511,510,l),
(208,510,l),
(208,565,ls),
(208,636,o),
(240,653,o),
(290,653,cs),
(309,653,o),
(324,647,o),
(340,647,cs),
(361,647,o),
(377,666,o),
(377,685,cs),
(377,701,o),
(366,714,o),
(354,720,cs),
(330,732,o),
(300,740,o),
(267,740,cs),
(196,740,o),
(117,694,o),
(117,568,cs),
(117,510,l),
(58,510,ls),
(36,510,o),
(19,493,o),
(19,471,cs),
(19,449,o),
(36,432,o),
(58,432,cs),
(117,432,l),
(117,40,ls),
(117,15,o),
(137,-5,o),
(162,-5,cs)
);
},
{
closed = 1;
nodes = (
(931,-5,o),
(951,15,o),
(951,40,cs),
(951,689,ls),
(951,715,o),
(931,735,o),
(905,735,cs),
(880,735,o),
(860,715,o),
(860,689,cs),
(860,40,ls),
(860,15,o),
(880,-5,o),
(905,-5,cs)
);
}
);
width = 1030;
}
);
metricLeft = f;
metricRight = l;
note = f_f_l;
},
{
glyphname = f_j;
kernLeft = f;
kernRight = i;
layers = (
{
layerId = "A99C00BB-606F-4263-964D-93C8B7F0BADD";
shapes = (
{
closed = 1;
nodes = (
(523,-240,o),
(558,-180,o),
(558,-103,cs),
(558,464,ls),
(558,489,o),
(540,508,o),
(515,510,c),
(208,510,l),
(208,565,ls),
(208,636,o),
(240,653,o),
(290,653,cs),
(309,653,o),
(324,647,o),
(340,647,cs),
(361,647,o),
(377,666,o),
(377,685,cs),
(377,701,o),
(366,714,o),
(354,720,cs),
(330,732,o),
(300,740,o),
(267,740,cs),
(196,740,o),
(117,694,o),
(117,568,cs),
(117,510,l),
(58,510,ls),
(36,510,o),
(19,493,o),
(19,471,cs),
(19,449,o),
(36,432,o),
(58,432,cs),
(117,432,l),
(117,40,ls),
(117,15,o),
(137,-5,o),
(162,-5,cs),
(188,-5,o),
(208,15,o),
(208,40,cs),
(208,432,l),
(467,432,l),
(467,-101,ls),
(467,-155,o),
(441,-160,o),
(406,-160,cs),
(394,-160,o),
(385,-157,o),
(376,-157,cs),
(354,-157,o),
(338,-175,o),
(338,-195,cs),
(338,-212,o),
(348,-226,o),
(364,-231,cs),
(382,-237,o),
(403,-240,o),
(427,-240,cs)
);
},
{
closed = 1;
nodes = (
(516,614,ls),
(544,614,o),
(567,637,o),
(567,665,cs),
(567,669,ls),
(567,697,o),
(544,720,o),
(516,720,cs),
(510,720,ls),
(482,720,o),
(459,697,o),
(459,669,cs),
(459,665,ls),
(459,637,o),
(482,614,o),
(510,614,cs)
);
}
);
width = 637;
}
);
metricLeft = f;
metricRight = j;
note = f_j;
},
{
glyphname = fi;
kernLeft = f;
kernRight = i;
layers = (
{
layerId = "A99C00BB-606F-4263-964D-93C8B7F0BADD";
shapes = (
{
closed = 1;
nodes = (
(188,-5,o),
(208,15,o),
(208,40,cs),
(208,432,l),
(467,432,l),
(467,40,ls),
(467,15,o),
(487,-5,o),
(512,-5,cs),
(538,-5,o),
(558,15,o),
(558,40,cs),
(558,464,ls),
(558,489,o),
(540,508,o),
(515,510,c),
(208,510,l),
(208,565,ls),
(208,636,o),
(240,653,o),
(290,653,cs),
(309,653,o),
(324,647,o),
(340,647,cs),
(361,647,o),
(377,666,o),
(377,685,cs),
(377,701,o),
(366,714,o),
(354,720,cs),
(330,732,o),
(300,740,o),
(267,740,cs),
(196,740,o),
(117,694,o),
(117,568,cs),
(117,510,l),
(58,510,ls),
(36,510,o),
(19,493,o),
(19,471,cs),
(19,449,o),
(36,432,o),
(58,432,cs),
(117,432,l),
(117,40,ls),
(117,15,o),
(137,-5,o),
(162,-5,cs)
);
},
{
closed = 1;
nodes = (
(516,614,ls),
(544,614,o),
(567,637,o),
(567,665,cs),
(567,669,ls),
(567,697,o),
(544,720,o),
(516,720,cs),
(510,720,ls),
(482,720,o),
(459,697,o),
(459,669,cs),
(459,665,ls),
(459,637,o),
(482,614,o),
(510,614,cs)
);
}
);
width = 637;
}
);
metricLeft = f;
metricRight = i;
note = fi;
unicode = 64257;
},
{
glyphname = fl;
kernLeft = f;
kernRight = l;
layers = (
{
layerId = "A99C00BB-606F-4263-964D-93C8B7F0BADD";
shapes = (
{
closed = 1;
nodes = (
(188,-5,o),
(208,15,o),
(208,40,cs),
(208,432,l),
(333,432,ls),
(355,432,o),
(372,449,o),
(372,471,cs),
(372,493,o),
(355,510,o),
(333,510,cs),
(208,510,l),
(208,565,ls),
(208,636,o),
(240,653,o),
(290,653,cs),
(309,653,o),
(324,647,o),
(340,647,cs),
(361,647,o),
(377,666,o),
(377,685,cs),
(377,701,o),
(366,714,o),
(354,720,cs),
(330,732,o),
(300,740,o),
(267,740,cs),
(196,740,o),
(117,694,o),
(117,568,cs),
(117,510,l),
(58,510,ls),
(36,510,o),
(19,493,o),
(19,471,cs),
(19,449,o),
(36,432,o),
(58,432,cs),
(117,432,l),
(117,40,ls),
(117,15,o),
(137,-5,o),
(162,-5,cs)
);
},
{
closed = 1;
nodes = (
(537,-5,o),
(557,15,o),
(557,40,cs),
(557,689,ls),
(557,715,o),
(537,735,o),
(511,735,cs),
(486,735,o),
(466,715,o),
(466,689,cs),
(466,40,ls),
(466,15,o),
(486,-5,o),
(511,-5,cs)
);
}
);
width = 636;
}
);
metricLeft = f;
metricRight = l;
note = fl;
unicode = 64258;
},
{
glyphname = s_t;
kernLeft = s;
kernRight = t;
layers = (
{
layerId = "A99C00BB-606F-4263-964D-93C8B7F0BADD";
shapes = (
{
closed = 1;
nodes = (
(372,-10,o),
(437,57,o),
(437,138,cs),
(437,334,o),
(136,263,o),
(136,367,cs),
(136,407,o),
(177,437,o),
(251,437,cs),
(295,437,o),
(333,429,o),
(365,419,c),
(369,418,o),
(373,417,o),
(378,417,cs),
(401,417,o),
(418,436,o),
(418,457,cs),
(418,469,o),
(411,483,o),
(398,491,cs),
(366,511,o),
(342,543,o),
(342,594,cs),
(342,667,o),
(393,707,o),
(454,707,cs),
(541,707,o),
(567,647,o),
(567,594,cs),
(567,510,l),
(506,510,ls),
(484,510,o),
(467,493,o),
(467,471,cs),
(467,449,o),
(484,432,o),
(506,432,cs),
(567,432,l),
(567,122,ls),
(567,-2,o),
(666,-10,o),
(713,-10,cs),
(745,-10,o),
(772,-3,o),
(796,8,cs),
(810,15,o),
(819,26,o),
(819,43,cs),
(819,64,o),
(801,79,o),
(783,79,cs),
(766,79,o),
(755,70,o),
(723,70,cs),
(698,70,o),
(658,71,o),
(658,130,cs),
(658,432,l),
(771,432,ls),
(793,432,o),
(810,449,o),
(810,471,cs),
(810,493,o),
(793,510,o),
(771,510,cs),
(658,510,l),
(658,584,ls),
(658,684,o),
(594,774,o),
(476,774,cs),
(359,774,o),
(294,700,o),
(294,601,cs),
(294,565,o),
(304,536,o),
(320,513,c),
(296,517,o),
(271,520,o),
(244,520,cs),
(114,520,o),
(49,452,o),
(49,362,cs),
(49,180,o),
(349,231,o),
(349,145,cs),
(349,100,o),
(315,74,o),
(238,74,cs),
(179,74,o),
(138,88,o),
(102,104,cs),
(95,107,o),
(90,108,o),
(84,108,cs),
(61,108,o),
(45,88,o),
(45,68,cs),
(45,54,o),
(52,42,o),
(62,35,c),
(113,7,o),
(171,-10,o),
(244,-10,cs)
);
}
);
width = 840;
}
);
metricLeft = s;
metricRight = t;
note = s_t;
},
{
glyphname = ordfeminine;
kernLeft = ordfeminine;
kernRight = ordfeminine;
layers = (
{
layerId = "A99C00BB-606F-4263-964D-93C8B7F0BADD";
shapes = (
{
closed = 1;
nodes = (
(258,339,o),
(297,363,o),
(318,387,c),
(318,378,ls),
(318,358,o),
(334,342,o),
(354,342,cs),
(374,342,o),
(390,358,o),
(390,378,cs),
(390,569,ls),
(390,638,o),
(346,708,o),
(244,708,cs),
(197,708,o),
(157,697,o),
(123,684,cs),
(110,679,o),
(100,667,o),
(100,654,cs),
(100,637,o),
(114,622,o),
(132,622,cs),
(135,622,o),
(139,623,o),
(142,624,cs),
(167,633,o),
(197,640,o),
(233,640,cs),
(289,640,o),
(318,616,o),
(318,555,cs),
(318,553,l),
(242,553,ls),
(133,553,o),
(81,512,o),
(81,446,cs),
(81,379,o),
(135,339,o),
(197,339,cs)
);
},
{
closed = 1;
nodes = (
(377,229,ls),
(392,229,o),
(405,242,o),
(405,257,cs),
(405,272,o),
(392,285,o),
(377,285,cs),
(94,285,ls),
(79,285,o),
(66,272,o),
(66,257,cs),
(66,242,o),
(79,229,o),
(94,229,cs)
);
},
{
closed = 1;
nodes = (
(169,404,o),
(153,426,o),
(153,452,cs),
(153,487,o),
(190,499,o),
(250,499,cs),
(318,499,l),
(318,451,l),
(295,426,o),
(259,404,o),
(220,404,cs)
);
}
);
width = 485;
}
);
note = ordfeminine;
unicode = 170;
},
{
glyphname = ordmasculine;
kernLeft = ordfeminine;
kernRight = ordfeminine;
layers = (
{
layerId = "A99C00BB-606F-4263-964D-93C8B7F0BADD";
shapes = (
{
closed = 1;
nodes = (
(365,339,o),
(435,414,o),
(435,524,cs),
(435,634,o),
(365,708,o),
(257,708,cs),
(149,708,o),
(79,634,o),
(79,524,cs),
(79,414,o),
(149,339,o),
(257,339,cs)
);
},
{
closed = 1;
nodes = (
(416,229,ls),
(431,229,o),
(444,242,o),
(444,257,cs),
(444,272,o),
(431,285,o),
(416,285,cs),
(98,285,ls),
(83,285,o),
(70,272,o),
(70,257,cs),
(70,242,o),
(83,229,o),
(98,229,cs)
);
},
{
closed = 1;
nodes = (
(208,403,o),
(151,437,o),
(151,525,cs),
(151,612,o),
(208,645,o),
(257,645,cs),
(305,645,o),
(363,612,o),
(363,525,cs),
(363,437,o),
(305,403,o),
(257,403,cs)
);
}
);
width = 514;
}
);
note = ordmasculine;
unicode = 186;
},
{
glyphname = Omega;
kernLeft = Omega;
kernRight = Omega;
layers = (
{
layerId = "A99C00BB-606F-4263-964D-93C8B7F0BADD";
shapes = (
{
closed = 1;
nodes = (
(278,0,ls),
(303,0,o),
(325,21,o),
(325,46,cs),
(325,62,o),
(315,78,o),
(302,86,cs),
(243,120,o),
(151,194,o),
(151,358,cs),
(151,494,o),
(242,617,o),
(395,617,cs),
(548,617,o),
(639,494,o),
(639,358,cs),
(639,194,o),
(547,120,o),
(488,86,cs),
(475,78,o),
(465,62,o),
(465,46,cs),
(465,21,o),
(487,0,o),
(512,0,cs),
(697,0,ls),
(719,0,o),
(736,17,o),
(736,39,cs),
(736,61,o),
(719,78,o),
(697,78,cs),
(596,78,l),
(658,129,o),
(721,217,o),
(721,369,cs),
(721,531,o),
(599,708,o),
(395,708,cs),
(191,708,o),
(69,531,o),
(69,369,cs),
(69,217,o),
(132,129,o),
(194,78,c),
(93,78,ls),
(71,78,o),
(54,61,o),
(54,39,cs),
(54,17,o),
(71,0,o),
(93,0,cs)
);
}
);
width = 790;
}
);
note = uni03A9;
unicode = 937;
},
{
glyphname = pi;
kernLeft = pi;
kernRight = pi;
layers = (
{
layerId = "A99C00BB-606F-4263-964D-93C8B7F0BADD";
shapes = (
{
closed = 1;
nodes = (
(172,-5,o),
(189,8,o),
(194,27,cs),
(233,166,o),
(250,294,o),
(254,431,c),
(430,431,l),
(430,38,ls),
(430,14,o),
(449,-5,o),
(473,-5,cs),
(497,-5,o),
(516,14,o),
(516,38,cs),
(516,431,l),
(576,431,ls),
(598,431,o),
(616,448,o),
(616,470,cs),
(616,492,o),
(598,510,o),
(576,510,cs),
(146,510,ls),
(96,510,o),
(61,499,o),
(37,487,cs),
(25,481,o),
(16,468,o),
(16,454,cs),
(16,435,o),
(34,418,o),
(53,418,cs),
(59,418,o),
(67,421,o),
(70,422,cs),
(93,429,o),
(114,431,o),
(146,431,cs),
(168,431,l),
(164,300,o),
(159,181,o),
(113,59,c),
(110,52,o),
(108,44,o),
(108,38,cs),
(108,13,o),
(129,-5,o),
(152,-5,cs)
);
}
);
width = 634;
}
);
note = pi;
unicode = 960;
},
{
glyphname = "alef-hb";
kernLeft = "alef-hb";
kernRight = "alef-hb";
layers = (
{
anchors = (
{
name = bottom;
pos = (329,0);
},
{
name = bottomleft;
pos = (20,0);
},
{
name = center;
pos = (288,113);
},
{
name = top;
pos = (329,510);
},
{
name = topleft;
pos = (-12,510);
}
);
layerId = "A99C00BB-606F-4263-964D-93C8B7F0BADD";
shapes = (
{
closed = 1;
nodes = (
(603,22,o),
(607,51,o),
(591,70,cs),
(152,578,ls),
(137,595,o),
(110,602,o),
(87,583,cs),
(69,567,o),
(68,538,o),
(83,521,cs),
(521,14,ls),
(538,-5,o),
(567,-9,o),
(584,6,cs)
);
},
{
closed = 1;
nodes = (
(107,-8,o),
(140,-4,o),
(149,26,cs),
(266,408,l),
(185,437,l),
(65,56,ls),
(58,34,o),
(65,10,o),
(86,1,cs)
);
},
{
closed = 1;
nodes = (
(595,527,ls),
(606,549,o),
(602,576,o),
(577,588,cs),
(556,598,o),
(528,594,o),
(516,568,cs),
(366,246,l),
(442,206,l)
);
}
);
width = 658;
}
);
unicode = 1488;
},
{
glyphname = "bet-hb";
kernLeft = "bet-hb";
kernRight = "bet-hb";
layers = (
{
anchors = (
{
name = bottom;
pos = (319,0);
},
{
name = bottomleft;
pos = (17,0);
},
{
name = center;
pos = (231,294);
},
{
name = top;
pos = (319,510);
},
{
name = topleft;
pos = (-3,510);
}
);
layerId = "A99C00BB-606F-4263-964D-93C8B7F0BADD";
shapes = (
{
closed = 1;
nodes = (
(522,46,l),
(522,377,ls),
(522,532,o),
(462,596,o),
(297,596,cs),
(234,596,o),
(165,588,o),
(92,571,cs),
(69,566,o),
(53,546,o),
(56,525,cs),
(60,503,o),
(82,488,o),
(105,492,cs),
(180,506,o),
(235,516,o),
(293,516,cs),
(397,516,o),
(431,483,o),
(431,377,cs),
(431,46,l)
);
},
{
closed = 1;
nodes = (
(573,0,ls),
(596,0,o),
(614,18,o),
(614,40,cs),
(614,62,o),
(596,80,o),
(573,80,cs),
(93,80,ls),
(71,80,o),
(53,62,o),
(53,40,cs),
(53,18,o),
(71,0,o),
(93,0,cs)
);
}
);
width = 641;
}
);
unicode = 1489;
},
{
glyphname = "gimel-hb";
kernLeft = "gimel-hb";
kernRight = "gimel-hb";
layers = (
{
anchors = (
{
name = bottom;
pos = (204,0);
},
{
name = bottomleft;
pos = (20,0);
},
{
name = center;
pos = (110,300);
},
{
name = top;
pos = (204,510);
},
{
name = topleft;
pos = (10,510);
}
);
layerId = "A99C00BB-606F-4263-964D-93C8B7F0BADD";
shapes = (
{
closed = 1;
nodes = (
(300,-5,o),
(321,16,o),
(321,41,cs),
(321,437,ls),
(321,587,o),
(240,595,o),
(175,595,cs),
(148,595,o),
(110,586,o),
(89,575,cs),
(68,564,o),
(63,543,o),
(69,525,cs),
(76,505,o),
(97,498,o),
(111,504,cs),
(130,512,o),
(156,518,o),
(171,518,cs),
(209,518,o),
(230,507,o),
(230,444,cs),
(230,41,ls),
(230,16,o),
(250,-5,o),
(275,-5,cs)
);
},
{
closed = 1;
nodes = (
(144,0,o),
(202,70,o),
(235,114,c),
(235,206,l),
(194,136,o),
(138,91,o),
(58,83,cs),
(33,80,o),
(16,58,o),
(21,32,cs),
(26,8,o),
(49,-4,o),
(73,-3,cs)
);
}
);
width = 407;
}
);
unicode = 1490;
},
{
glyphname = "dalet-hb";
kernLeft = "dalet-hb";
kernRight = "dalet-hb";
layers = (
{
anchors = (
{
name = bottom;
pos = (373,-2);
},
{
name = bottomleft;
pos = (14,0);
},
{
name = center;
pos = (164,292);
},
{
name = top;
pos = (291,510);
},
{
name = topleft;
pos = (-16,510);
}
);
layerId = "A99C00BB-606F-4263-964D-93C8B7F0BADD";
shapes = (
{
closed = 1;
nodes = (
(398,-5,o),
(419,15,o),
(419,40,cs),
(419,345,ls),
(419,413,o),
(428,470,o),
(455,510,c),
(371,510,l),
(339,471,o),
(328,416,o),
(328,349,cs),
(328,40,ls),
(328,15,o),
(348,-5,o),
(373,-5,cs)
);
},
{
closed = 1;
nodes = (
(500,510,ls),
(523,510,o),
(541,528,o),
(541,550,cs),
(541,572,o),
(523,590,o),
(500,590,cs),
(68,590,ls),
(46,590,o),
(28,572,o),
(28,550,cs),
(28,528,o),
(46,510,o),
(68,510,cs)
);
}
);
width = 587;
}
);
unicode = 1491;
},
{
glyphname = "he-hb";
kernLeft = "he-hb";
kernRight = "he-hb";
layers = (
{
anchors = (
{
name = bottom;
pos = (333,0);
},
{
name = bottomleft;
pos = (20,0);
},
{
name = center;
pos = (333,289);
},
{
name = top;
pos = (333,510);
},
{
name = topleft;
pos = (10,510);
}
);
layerId = "A99C00BB-606F-4263-964D-93C8B7F0BADD";
shapes = (
{
closed = 1;
nodes = (
(560,-5,o),
(580,16,o),
(580,41,cs),
(580,377,ls),
(580,532,o),
(510,594,o),
(325,594,cs),
(262,594,o),
(176,586,o),
(102,571,cs),
(79,566,o),
(63,546,o),
(66,525,cs),
(70,503,o),
(92,488,o),
(115,492,cs),
(190,506,o),
(263,514,o),
(321,514,cs),
(445,514,o),
(489,483,o),
(489,377,cs),
(489,41,ls),
(489,16,o),
(510,-5,o),
(535,-5,cs)
);
},
{
closed = 1;
nodes = (
(165,-5,o),
(185,16,o),
(185,41,cs),
(185,310,ls),
(185,335,o),
(164,356,o),
(139,356,cs),
(114,356,o),
(94,335,o),
(94,310,cs),
(94,41,ls),
(94,16,o),
(115,-5,o),
(140,-5,cs)
);
}
);
width = 660;
}
);
unicode = 1492;
},
{
glyphname = "vav-hb";
kernLeft = "vav-hb";
kernRight = "vav-hb";
layers = (
{
anchors = (
{
name = bottom;
pos = (134,-2);
},
{
name = bottomleft;
pos = (20,0);
},
{
name = center;
pos = (10,306);
},
{
name = top;
pos = (134,510);
},
{
name = topleft;
pos = (132,510);
}
);
layerId = "A99C00BB-606F-4263-964D-93C8B7F0BADD";
shapes = (
{
closed = 1;
nodes = (
(159,-5,o),
(179,16,o),
(179,41,cs),
(179,548,ls),
(179,573,o),
(158,594,o),
(133,594,cs),
(108,594,o),
(88,573,o),
(88,548,cs),
(88,41,ls),
(88,16,o),
(109,-5,o),
(134,-5,cs)
);
}
);
width = 267;
}
);
metricRight = "=|";
unicode = 1493;
},
{
glyphname = "zayin-hb";
kernLeft = "zayin-hb";
kernRight = "zayin-hb";
layers = (
{
anchors = (
{
name = bottom;
pos = (196,0);
},
{
name = bottomleft;
pos = (20,0);
},
{
name = center;
pos = (47,296);
},
{
name = top;
pos = (208,510);
},
{
name = topleft;
pos = (-10,510);
}
);
layerId = "A99C00BB-606F-4263-964D-93C8B7F0BADD";
shapes = (
{
closed = 1;
nodes = (
(221,-5,o),
(242,15,o),
(242,40,cs),
(242,345,ls),
(242,413,o),
(251,470,o),
(278,510,c),
(194,510,l),
(162,471,o),
(151,416,o),
(151,349,cs),
(151,40,ls),
(151,15,o),
(171,-5,o),
(196,-5,cs)
);
},
{
closed = 1;
nodes = (
(349,510,ls),
(372,510,o),
(390,528,o),
(390,550,cs),
(390,572,o),
(372,590,o),
(349,590,cs),
(87,590,ls),
(65,590,o),
(47,572,o),
(47,550,cs),
(47,528,o),
(65,510,o),
(87,510,cs)
);
}
);
width = 416;
}
);
unicode = 1494;
},
{
glyphname = "het-hb";
kernLeft = "het-hb";
kernRight = "het-hb";
layers = (
{
anchors = (
{
name = bottom;
pos = (342,0);
},
{
name = bottomleft;
pos = (20,0);
},
{
name = center;
pos = (342,285);
},
{
name = top;
pos = (342,510);
},
{
name = topleft;
pos = (0,510);
}
);
layerId = "A99C00BB-606F-4263-964D-93C8B7F0BADD";
shapes = (
{
closed = 1;
nodes = (
(579,-5,o),
(599,16,o),
(599,41,cs),
(599,377,ls),
(599,536,o),
(519,590,o),
(401,590,cs),
(110,590,ls),
(86,590,o),
(67,572,o),
(67,550,cs),
(67,528,o),
(86,510,o),
(110,510,cs),
(401,510,ls),
(462,510,o),
(508,486,o),
(508,377,cs),
(508,41,ls),
(508,16,o),
(529,-5,o),
(554,-5,cs)
);
},
{
closed = 1;
nodes = (
(183,-5,o),
(203,15,o),
(203,41,cs),
(203,340,ls),
(203,409,o),
(208,470,o),
(240,517,c),
(161,517,l),
(127,477,o),
(112,404,o),
(112,345,cs),
(112,41,ls),
(112,15,o),
(133,-5,o),
(158,-5,cs)
);
}
);
width = 683;
}
);
unicode = 1495;
},
{
glyphname = "tet-hb";
kernLeft = "tet-hb";
kernRight = "tet-hb";
layers = (
{
anchors = (
{
name = bottom;
pos = (348,0);
},
{
name = bottomleft;
pos = (20,0);
},
{
name = center;
pos = (348,255);
},
{
name = top;
pos = (348,510);
},
{
name = topleft;
pos = (0,510);
}
);
layerId = "A99C00BB-606F-4263-964D-93C8B7F0BADD";
shapes = (
{
closed = 1;
nodes = (
(534,-5,o),
(627,85,o),
(627,244,cs),
(627,435,ls),
(627,576,o),
(546,595,o),
(471,595,cs),
(404,595,o),
(317,548,o),
(296,460,cs),
(290,436,o),
(299,414,o),
(319,407,cs),
(343,399,o),
(363,410,o),
(371,431,cs),
(393,490,o),
(433,515,o),
(468,515,cs),
(516,515,o),
(536,494,o),
(536,441,cs),
(536,244,ls),
(536,129,o),
(467,75,o),
(361,75,cs),
(243,75,o),
(168,129,o),
(168,244,cs),
(168,550,ls),
(168,575,o),
(147,596,o),
(122,596,cs),
(97,596,o),
(77,575,o),
(77,550,cs),
(77,244,ls),
(77,85,o),
(186,-5,o),
(361,-5,cs)
);
}
);
width = 696;
}
);
unicode = 1496;
},
{
glyphname = "yod-hb";
kernLeft = "yod-hb";
kernRight = "yod-hb";
layers = (
{
anchors = (
{
name = bottom;
pos = (128,0);
},
{
name = bottomleft;
pos = (18,0);
},
{
name = center;
pos = (1,374);
},
{
name = top;
pos = (128,510);
},
{
name = topleft;
pos = (-2,510);
}
);
layerId = "A99C00BB-606F-4263-964D-93C8B7F0BADD";
shapes = (
{
closed = 1;
nodes = (
(153,237,o),
(173,258,o),
(173,283,cs),
(173,548,ls),
(173,573,o),
(152,594,o),
(127,594,cs),
(102,594,o),
(82,573,o),
(82,548,cs),
(82,283,ls),
(82,258,o),
(103,237,o),
(128,237,cs)
);
}
);
width = 255;
}
);
unicode = 1497;
},
{
glyphname = "finalkaf-hb";
kernLeft = "finalkaf-hb";
kernRight = "finalkaf-hb";
layers = (
{
anchors = (
{
name = bottom;
pos = (161,295);
},
{
name = bottomleft;
pos = (20,0);
},
{
name = center;
pos = (170,295);
},
{
name = top;
pos = (266,510);
},
{
name = topleft;
pos = (20,510);
}
);
layerId = "A99C00BB-606F-4263-964D-93C8B7F0BADD";
shapes = (
{
closed = 1;
nodes = (
(432,-193,o),
(452,-172,o),
(452,-147,cs),
(452,377,ls),
(452,536,o),
(372,590,o),
(254,590,cs),
(77,590,ls),
(53,590,o),
(34,572,o),
(34,550,cs),
(34,528,o),
(53,510,o),
(77,510,cs),
(254,510,ls),
(315,510,o),
(361,486,o),
(361,377,cs),
(361,-147,ls),
(361,-172,o),
(382,-193,o),
(407,-193,cs)
);
}
);
width = 529;
}
);
unicode = 1498;
},
{
glyphname = "kaf-hb";
kernLeft = "kaf-hb";
kernRight = "kaf-hb";
layers = (
{
anchors = (
{
name = bottom;
pos = (262,0);
},
{
name = bottomleft;
pos = (12,0);
},
{
name = center;
pos = (184,305);
},
{
name = top;
pos = (282,510);
},
{
name = topleft;
pos = (-18,510);
}
);
layerId = "A99C00BB-606F-4263-964D-93C8B7F0BADD";
shapes = (
{
closed = 1;
nodes = (
(511,295,l),
(511,501,o),
(429,590,o),
(263,590,cs),
(90,590,ls),
(66,590,o),
(47,572,o),
(47,550,cs),
(47,528,o),
(66,510,o),
(90,510,cs),
(263,510,ls),
(365,510,o),
(420,445,o),
(420,295,c)
);
},
{
closed = 1;
nodes = (
(263,0,ls),
(429,0,o),
(511,89,o),
(511,295,c),
(420,295,l),
(420,145,o),
(365,80,o),
(263,80,cs),
(90,80,ls),
(66,80,o),
(47,62,o),
(47,40,cs),
(47,18,o),
(66,0,o),
(90,0,cs)
);
}
);
width = 572;
}
);
unicode = 1499;
},
{
glyphname = "lamed-hb";
kernLeft = "lamed-hb";
kernRight = "lamed-hb";
layers = (
{
anchors = (
{
name = bottom;
pos = (215,-6);
},
{
name = bottomleft;
pos = (20,0);
},
{
name = center;
pos = (141,326);
},
{
name = top;
pos = (270,510);
},
{
name = topleft;
pos = (-51,510);
}
);
layerId = "A99C00BB-606F-4263-964D-93C8B7F0BADD";
shapes = (
{
closed = 1;
nodes = (
(216,-9,o),
(242,1,o),
(253,23,cs),
(478,487,ls),
(505,543,o),
(474,590,o),
(430,590,cs),
(132,590,l),
(132,688,ls),
(132,713,o),
(111,734,o),
(88,734,cs),
(65,734,o),
(45,713,o),
(45,688,cs),
(45,553,ls),
(45,523,o),
(58,510,o),
(90,510,cs),
(394,510,l),
(174,65,ls),
(163,42,o),
(171,14,o),
(193,3,cs)
);
}
);
width = 540;
}
);
unicode = 1500;
},
{
glyphname = "finalmem-hb";
kernLeft = "finalmem-hb";
kernRight = "finalmem-hb";
layers = (
{
anchors = (
{
name = bottom;
pos = (347,0);
},
{
name = bottomleft;
pos = (20,0);
},
{
name = center;
pos = (347,255);
},
{
name = top;
pos = (347,510);
},
{
name = topleft;
pos = (20,510);
}
);
layerId = "A99C00BB-606F-4263-964D-93C8B7F0BADD";
shapes = (
{
closed = 1;
nodes = (
(569,0,ls),
(592,0,o),
(610,18,o),
(610,40,cs),
(610,377,ls),
(610,536,o),
(530,590,o),
(412,590,cs),
(104,590,ls),
(80,590,o),
(61,572,o),
(61,550,cs),
(61,528,o),
(80,510,o),
(104,510,cs),
(412,510,ls),
(473,510,o),
(519,486,o),
(519,377,cs),
(519,80,l),
(191,80,l),
(191,325,ls),
(191,404,o),
(200,474,o),
(233,516,c),
(152,516,l),
(113,480,o),
(100,380,o),
(100,325,cs),
(100,40,ls),
(100,18,o),
(118,0,o),
(140,0,cs)
);
}
);
width = 690;
}
);
unicode = 1501;
},
{
glyphname = "mem-hb";
kernLeft = "mem-hb";
kernRight = "mem-hb";
layers = (
{
anchors = (
{
name = bottom;
pos = (347,0);
},
{
name = bottomleft;
pos = (20,0);
},
{
name = center;
pos = (357,275);
},
{
name = top;
pos = (347,510);
},
{
name = topleft;
pos = (20,510);
}
);
layerId = "A99C00BB-606F-4263-964D-93C8B7F0BADD";
shapes = (
{
closed = 1;
nodes = (
(158,-5,o),
(179,15,o),
(179,40,cs),
(179,415,l),
(224,463,o),
(320,514,o),
(399,514,cs),
(493,514,o),
(523,475,o),
(523,349,cs),
(523,80,l),
(348,80,ls),
(326,80,o),
(308,62,o),
(308,40,cs),
(308,18,o),
(326,0,o),
(348,0,cs),
(573,0,ls),
(599,0,o),
(614,14,o),
(614,40,cs),
(614,359,ls),
(614,516,o),
(545,596,o),
(415,596,cs),
(323,596,o),
(226,547,o),
(179,503,c),
(179,549,ls),
(179,575,o),
(158,595,o),
(133,595,cs),
(108,595,o),
(88,575,o),
(88,549,cs),
(88,40,ls),
(88,15,o),
(108,-5,o),
(133,-5,cs)
);
}
);
width = 694;
}
);
unicode = 1502;
},
{
glyphname = "finalnun-hb";
kernLeft = "finalnun-hb";
kernRight = "finalnun-hb";
layers = (
{
anchors = (
{
name = bottom;
pos = (135,0);
},
{
name = bottomleft;
pos = (20,0);
},
{
name = center;
pos = (135,255);
},
{
name = top;
pos = (135,510);
},
{
name = topleft;
pos = (20,510);
}
);
layerId = "A99C00BB-606F-4263-964D-93C8B7F0BADD";
shapes = (
{
closed = 1;
nodes = (
(160,-193,o),
(180,-172,o),
(180,-147,cs),
(180,548,ls),
(180,573,o),
(159,594,o),
(134,594,cs),
(109,594,o),
(89,573,o),
(89,548,cs),
(89,-147,ls),
(89,-172,o),
(110,-193,o),
(135,-193,cs)
);
}
);
width = 269;
}
);
unicode = 1503;
},
{
glyphname = "nun-hb";
kernLeft = "nun-hb";
kernRight = "nun-hb";
layers = (
{
anchors = (
{
name = bottom;
pos = (158,0);
},
{
name = bottomleft;
pos = (20,0);
},
{
name = center;
pos = (62,321);
},
{
name = top;
pos = (178,510);
},
{
name = topleft;
pos = (-10,510);
}
);
layerId = "A99C00BB-606F-4263-964D-93C8B7F0BADD";
shapes = (
{
closed = 1;
nodes = (
(103,0,ls),
(226,0,o),
(271,55,o),
(271,203,cs),
(271,537,ls),
(271,567,o),
(245,590,o),
(211,590,cs),
(105,590,ls),
(81,590,o),
(62,572,o),
(62,550,cs),
(62,528,o),
(81,510,o),
(105,510,cs),
(180,510,l),
(180,203,ls),
(180,113,o),
(159,80,o),
(103,80,cs),
(57,80,ls),
(33,80,o),
(14,62,o),
(14,40,cs),
(14,18,o),
(33,0,o),
(57,0,cs)
);
}
);
width = 352;
}
);
unicode = 1504;
},
{
glyphname = "samekh-hb";
kernLeft = "samekh-hb";
kernRight = "samekh-hb";
layers = (
{
anchors = (
{
name = bottom;
pos = (331,-10);
},
{
name = bottomleft;
pos = (20,0);
},
{
name = center;
pos = (355,291);
},
{
name = top;
pos = (331,510);
},
{
name = topleft;
pos = (10,510);
}
);
layerId = "A99C00BB-606F-4263-964D-93C8B7F0BADD";
shapes = (
{
closed = 1;
nodes = (
(527,-10,o),
(612,111,o),
(612,290,cs),
(612,469,o),
(547,590,o),
(366,590,cs),
(90,590,ls),
(68,590,o),
(50,572,o),
(50,550,cs),
(50,528,o),
(68,510,o),
(90,510,cs),
(366,510,ls),
(489,510,o),
(522,431,o),
(522,290,cs),
(522,149,o),
(469,69,o),
(346,69,cs),
(223,69,o),
(172,149,o),
(172,290,cs),
(172,367,o),
(186,463,o),
(223,523,c),
(167,572,l),
(112,502,o),
(82,384,o),
(82,290,cs),
(82,111,o),
(164,-10,o),
(346,-10,cs)
);
}
);
width = 664;
}
);
unicode = 1505;
},
{
glyphname = "ayin-hb";
kernLeft = "ayin-hb";
kernRight = "ayin-hb";
layers = (
{
anchors = (
{
name = bottom;
pos = (286,0);
},
{
name = bottomleft;
pos = (20,0);
},
{
name = center;
pos = (286,395);
},
{
name = top;
pos = (286,510);
},
{
name = topleft;
pos = (-20,510);
}
);
layerId = "A99C00BB-606F-4263-964D-93C8B7F0BADD";
shapes = (
{
closed = 1;
nodes = (
(305,15,ls),
(450,64,o),
(503,169,o),
(503,364,cs),
(503,549,ls),
(503,574,o),
(483,595,o),
(458,595,cs),
(433,595,o),
(412,574,o),
(412,549,cs),
(412,364,ls),
(412,208,o),
(380,124,o),
(294,95,cs),
(52,14,ls),
(30,7,o),
(18,-17,o),
(26,-38,cs),
(32,-59,o),
(57,-70,o),
(79,-62,cs)
);
},
{
closed = 1;
nodes = (
(284,61,l),
(147,561,ls),
(140,585,o),
(114,599,o),
(91,592,cs),
(67,585,o),
(51,561,o),
(58,537,cs),
(196,38,l)
);
}
);
width = 572;
}
);
unicode = 1506;
},
{
glyphname = "finalpe-hb";
kernLeft = "finalpe-hb";
kernRight = "finalpe-hb";
layers = (
{
anchors = (
{
name = bottom;
pos = (303,0);
},
{
name = bottomleft;
pos = (20,0);
},
{
name = center;
pos = (303,379);
},
{
name = top;
pos = (303,510);
},
{
name = topleft;
pos = (20,510);
}
);
layerId = "A99C00BB-606F-4263-964D-93C8B7F0BADD";
shapes = (
{
closed = 1;
nodes = (
(526,-193,o),
(546,-172,o),
(546,-147,cs),
(546,290,ls),
(546,479,o),
(468,596,o),
(286,596,cs),
(125,596,o),
(32,503,o),
(32,367,cs),
(32,191,o),
(163,179,o),
(210,179,cs),
(242,179,o),
(271,188,o),
(294,201,cs),
(308,208,o),
(316,220,o),
(315,237,cs),
(314,258,o),
(295,272,o),
(277,271,cs),
(260,270,o),
(252,257,o),
(220,257,cs),
(195,257,o),
(123,260,o),
(123,375,cs),
(123,463,o),
(184,517,o),
(286,517,cs),
(406,517,o),
(455,446,o),
(455,290,cs),
(455,-147,ls),
(455,-172,o),
(476,-193,o),
(501,-193,cs)
);
}
);
width = 609;
}
);
unicode = 1507;
},
{
glyphname = "pe-hb";
kernLeft = "pe-hb";
kernRight = "pe-hb";
layers = (
{
anchors = (
{
name = bottom;
pos = (302,-3);
},
{
name = bottomleft;
pos = (20,0);
},
{
name = center;
pos = (333,401);
},
{
name = top;
pos = (314,510);
},
{
name = topleft;
pos = (20,510);
}
);
layerId = "A99C00BB-606F-4263-964D-93C8B7F0BADD";
shapes = (
{
closed = 1;
nodes = (
(471,-11,o),
(577,95,o),
(577,300,cs),
(577,479,o),
(479,596,o),
(297,596,cs),
(136,596,o),
(48,514,o),
(48,385,cs),
(48,228,o),
(174,216,o),
(221,216,cs),
(267,216,o),
(332,230,o),
(332,275,cs),
(332,297,o),
(317,308,o),
(300,308,cs),
(284,308,o),
(254,294,o),
(231,294,cs),
(206,294,o),
(138,298,o),
(138,393,cs),
(138,472,o),
(200,517,o),
(297,517,cs),
(421,517,o),
(487,441,o),
(487,300,cs),
(487,139,o),
(421,68,o),
(262,68,cs),
(219,68,o),
(184,75,o),
(143,83,cs),
(121,87,o),
(101,73,o),
(97,50,cs),
(93,28,o),
(107,9,o),
(128,4,cs),
(167,-6,o),
(212,-11,o),
(262,-11,cs)
);
}
);
width = 628;
}
);
unicode = 1508;
},
{
glyphname = "finaltsadi-hb";
kernLeft = "finaltsadi-hb";
kernRight = "finaltsadi-hb";
layers = (
{
anchors = (
{
name = bottom;
pos = (264,0);
},
{
name = bottomleft;
pos = (20,0);
},
{
name = center;
pos = (264,255);
},
{
name = top;
pos = (264,510);
},
{
name = topleft;
pos = (-10,510);
}
);
layerId = "A99C00BB-606F-4263-964D-93C8B7F0BADD";
shapes = (
{
closed = 1;
nodes = (
(409,-183,o),
(422,-157,o),
(413,-134,cs),
(123,564,ls),
(114,585,o),
(91,600,o),
(63,590,cs),
(41,581,o),
(31,552,o),
(39,533,cs),
(329,-165,ls),
(338,-188,o),
(365,-201,o),
(386,-192,cs)
);
},
{
closed = 1;
nodes = (
(476,527,ls),
(486,549,o),
(483,576,o),
(458,588,cs),
(437,598,o),
(409,594,o),
(397,568,cs),
(217,181,l),
(292,142,l)
);
}
);
width = 526;
}
);
unicode = 1509;
},
{
glyphname = "tsadi-hb";
kernLeft = "tsadi-hb";
kernRight = "tsadi-hb";
layers = (
{
anchors = (
{
name = bottom;
pos = (304,0);
},
{
name = bottomleft;
pos = (20,0);
},
{
name = center;
pos = (111,201);
},
{
name = top;
pos = (307,510);
},
{
name = topleft;
pos = (0,510);
}
);
layerId = "A99C00BB-606F-4263-964D-93C8B7F0BADD";
shapes = (
{
closed = 1;
nodes = (
(490,0,ls),
(519,0,o),
(539,5,o),
(548,22,cs),
(557,38,o),
(554,57,o),
(536,79,cs),
(121,578,ls),
(105,598,o),
(77,602,o),
(58,587,cs),
(38,571,o),
(33,543,o),
(49,524,cs),
(449,45,l),
(466,80,l),
(93,80,ls),
(71,80,o),
(53,62,o),
(53,40,cs),
(53,18,o),
(71,0,o),
(93,0,cs)
);
},
{
closed = 1;
nodes = (
(542,528,ls),
(548,541,o),
(549,556,o),
(542,570,cs),
(528,593,o),
(501,600,o),
(481,588,cs),
(472,584,o),
(466,576,o),
(462,568,cs),
(318,239,l),
(395,201,l)
);
}
);
width = 613;
}
);
unicode = 1510;
},
{
glyphname = "qof-hb";
kernLeft = "qof-hb";
kernRight = "qof-hb";
layers = (
{
anchors = (
{
name = bottom;
pos = (379,0);
},
{
name = bottomleft;
pos = (20,0);
},
{
name = center;
pos = (311,270);
},
{
name = top;
pos = (317,510);
},
{
name = topleft;
pos = (0,510);
}
);
layerId = "A99C00BB-606F-4263-964D-93C8B7F0BADD";
shapes = (
{
closed = 1;
nodes = (
(468,-3,o),
(554,54,o),
(554,213,cs),
(554,537,ls),
(554,567,o),
(528,590,o),
(494,590,cs),
(100,590,ls),
(76,590,o),
(57,572,o),
(57,550,cs),
(57,528,o),
(76,510,o),
(100,510,cs),
(463,510,l),
(463,213,ls),
(463,104,o),
(411,77,o),
(356,77,cs),
(327,77,o),
(314,80,o),
(294,84,cs),
(270,89,o),
(249,71,o),
(247,49,cs),
(245,27,o),
(259,9,o),
(283,4,cs),
(303,0,o),
(327,-3,o),
(356,-3,cs)
);
},
{
closed = 1;
nodes = (
(147,-193,o),
(167,-172,o),
(167,-147,cs),
(167,320,ls),
(167,345,o),
(146,366,o),
(121,366,cs),
(96,366,o),
(76,345,o),
(76,320,cs),
(76,-147,ls),
(76,-172,o),
(97,-193,o),
(122,-193,cs)
);
}
);
width = 634;
}
);
unicode = 1511;
},
{
glyphname = "resh-hb";
kernLeft = "resh-hb";
kernRight = "resh-hb";
layers = (
{
anchors = (
{
name = bottom;
pos = (435,-4);
},
{
name = bottomleft;
pos = (20,0);
},
{
name = center;
pos = (223,305);
},
{
name = top;
pos = (282,510);
},
{
name = topleft;
pos = (0,510);
}
);
layerId = "A99C00BB-606F-4263-964D-93C8B7F0BADD";
shapes = (
{
closed = 1;
nodes = (
(464,-4,o),
(484,17,o),
(484,42,cs),
(484,377,ls),
(484,532,o),
(424,594,o),
(259,594,cs),
(196,594,o),
(131,587,o),
(71,576,cs),
(48,572,o),
(32,551,o),
(35,530,cs),
(39,508,o),
(58,492,o),
(83,496,cs),
(144,506,o),
(197,514,o),
(255,514,cs),
(359,514,o),
(393,483,o),
(393,377,cs),
(393,42,ls),
(393,17,o),
(414,-4,o),
(439,-4,cs)
);
}
);
width = 564;
}
);
unicode = 1512;
},
{
glyphname = "shin-hb";
kernLeft = "shin-hb";
kernRight = "shin-hb";
layers = (
{
anchors = (
{
name = bottom;
pos = (390,-5);
},
{
name = bottomleft;
pos = (22,0);
},
{
name = center;
pos = (519,348);
},
{
name = shin;
pos = (656,510);
},
{
name = sin;
pos = (115,510);
},
{
name = top;
pos = (390,510);
},
{
name = topleft;
pos = (-1,510);
}
);
layerId = "A99C00BB-606F-4263-964D-93C8B7F0BADD";
shapes = (
{
closed = 1;
nodes = (
(595,-5,o),
(704,83,o),
(704,270,cs),
(704,549,ls),
(704,574,o),
(684,595,o),
(659,595,cs),
(634,595,o),
(613,574,o),
(613,549,cs),
(613,270,ls),
(613,134,o),
(538,75,o),
(390,75,c),
(390,-5,l)
);
},
{
closed = 1;
nodes = (
(390,75,l),
(242,75,o),
(167,134,o),
(167,270,cs),
(167,549,ls),
(167,574,o),
(146,595,o),
(121,595,cs),
(96,595,o),
(76,574,o),
(76,549,cs),
(76,270,ls),
(76,83,o),
(185,-5,o),
(390,-5,c)
);
},
{
closed = 1;
nodes = (
(415,186,o),
(435,207,o),
(435,232,cs),
(436,549,ls),
(436,574,o),
(415,595,o),
(390,595,cs),
(365,595,o),
(345,574,o),
(345,549,cs),
(344,232,ls),
(344,207,o),
(365,186,o),
(390,186,cs)
);
}
);
width = 780;
}
);
unicode = 1513;
},
{
glyphname = "tav-hb";
kernLeft = "tav-hb";
kernRight = "tav-hb";
layers = (
{
anchors = (
{
name = bottom;
pos = (350,0);
},
{
name = bottomleft;
pos = (20,0);
},
{
name = center;
pos = (390,265);
},
{
name = top;
pos = (350,510);
},
{
name = topleft;
pos = (10,510);
}
);
layerId = "A99C00BB-606F-4263-964D-93C8B7F0BADD";
shapes = (
{
closed = 1;
nodes = (
(599,-5,o),
(619,16,o),
(619,41,cs),
(619,377,ls),
(619,536,o),
(539,590,o),
(421,590,cs),
(116,590,ls),
(92,590,o),
(73,572,o),
(73,550,cs),
(73,528,o),
(92,510,o),
(116,510,cs),
(421,510,ls),
(482,510,o),
(528,486,o),
(528,377,cs),
(528,41,ls),
(528,16,o),
(549,-5,o),
(574,-5,cs)
);
},
{
closed = 1;
nodes = (
(195,0,ls),
(218,0,o),
(236,17,o),
(236,40,cs),
(236,351,ls),
(236,410,o),
(236,468,o),
(257,515,c),
(173,515,l),
(151,470,o),
(145,410,o),
(145,355,cs),
(145,80,l),
(69,80,ls),
(47,80,o),
(29,62,o),
(29,40,cs),
(29,18,o),
(47,0,o),
(69,0,cs)
);
}
);
width = 698;
}
);
unicode = 1514;
},
{
glyphname = zero;
kernLeft = zero;
kernRight = zero;
layers = (
{
layerId = "A99C00BB-606F-4263-964D-93C8B7F0BADD";
shapes = (
{
closed = 1;
nodes = (
(493,-10,o),
(585,135,o),
(585,349,cs),
(585,563,o),
(493,708,o),
(314,708,cs),
(134,708,o),
(43,563,o),
(43,349,cs),
(43,135,o),
(134,-10,o),
(314,-10,cs)
);
},
{
closed = 1;
nodes = (
(196,74,o),
(134,180,o),
(134,349,cs),
(134,517,o),
(196,623,o),
(314,623,cs),
(432,623,o),
(494,517,o),
(494,349,cs),
(494,180,o),
(432,74,o),
(314,74,cs)
);
}
);
width = 628;
}
);
note = zero;
unicode = 48;
},
{
glyphname = one;
kernLeft = one;
kernRight = one;
layers = (
{
layerId = "A99C00BB-606F-4263-964D-93C8B7F0BADD";
shapes = (
{
closed = 1;
nodes = (
(486,0,ls),
(510,0,o),
(529,18,o),
(529,42,cs),
(529,66,o),
(510,85,o),
(486,85,cs),
(387,85,l),
(387,650,ls),
(387,676,o),
(365,698,o),
(339,698,cs),
(318,698,ls),
(308,698,o),
(298,695,o),
(290,691,cs),
(154,620,ls),
(136,611,o),
(128,598,o),
(128,579,cs),
(128,554,o),
(146,536,o),
(171,536,cs),
(181,536,o),
(187,539,o),
(194,542,c),
(296,592,l),
(296,85,l),
(177,85,ls),
(153,85,o),
(135,66,o),
(135,42,cs),
(135,18,o),
(153,0,o),
(177,0,cs)
);
}
);
width = 628;
}
);
note = one;
unicode = 49;
},
{
glyphname = two;
kernLeft = two;
kernRight = two;
layers = (
{
layerId = "A99C00BB-606F-4263-964D-93C8B7F0BADD";
shapes = (
{
closed = 1;
nodes = (
(504,0,ls),
(528,0,o),
(547,18,o),
(547,42,cs),
(547,66,o),
(528,85,o),
(504,85,cs),
(156,85,l),
(210,202,o),
(553,299,o),
(553,505,cs),
(553,627,o),
(451,708,o),
(323,708,cs),
(231,708,o),
(157,685,o),
(101,657,cs),
(86,649,o),
(79,637,o),
(79,620,cs),
(79,598,o),
(95,581,o),
(117,581,cs),
(125,581,o),
(134,585,o),
(136,586,c),
(181,606,o),
(239,622,o),
(307,622,cs),
(423,622,o),
(465,569,o),
(465,498,cs),
(465,335,o),
(65,263,o),
(65,52,cs),
(65,21,o),
(87,0,o),
(118,0,cs)
);
}
);
width = 628;
}
);
note = two;
unicode = 50;
},
{
glyphname = three;
kernLeft = three;
kernRight = three;
layers = (
{
layerId = "A99C00BB-606F-4263-964D-93C8B7F0BADD";
shapes = (
{
closed = 1;
nodes = (
(440,-10,o),
(553,56,o),
(553,183,cs),
(553,306,o),
(463,348,o),
(407,361,c),
(464,382,o),
(528,427,o),
(528,528,cs),
(528,642,o),
(441,708,o),
(287,708,cs),
(203,708,o),
(136,682,o),
(89,657,cs),
(76,650,o),
(69,637,o),
(69,623,cs),
(69,601,o),
(86,586,o),
(106,586,cs),
(114,586,o),
(119,588,o),
(124,590,c),
(165,609,o),
(216,623,o),
(279,623,cs),
(386,623,o),
(437,581,o),
(437,519,cs),
(437,438,o),
(362,398,o),
(231,398,cs),
(225,398,ls),
(202,398,o),
(183,379,o),
(183,356,cs),
(183,333,o),
(202,314,o),
(225,314,cs),
(241,314,ls),
(406,314,o),
(462,262,o),
(462,188,cs),
(462,100,o),
(364,77,o),
(277,77,cs),
(212,77,o),
(158,90,o),
(118,106,cs),
(113,108,o),
(105,110,o),
(99,110,cs),
(75,110,o),
(59,89,o),
(59,68,cs),
(59,49,o),
(70,36,o),
(85,30,cs),
(134,10,o),
(205,-10,o),
(294,-10,cs)
);
}
);
width = 628;
}
);
note = three;
unicode = 51;
},
{
glyphname = four;
kernLeft = four;
kernRight = four;
layers = (
{
layerId = "A99C00BB-606F-4263-964D-93C8B7F0BADD";
shapes = (
{
closed = 1;
nodes = (
(458,-5,o),
(479,15,o),
(479,40,cs),
(479,176,l),
(555,176,ls),
(578,176,o),
(596,193,o),
(596,216,cs),
(596,239,o),
(578,257,o),
(555,257,cs),
(479,257,l),
(479,645,ls),
(479,677,o),
(456,703,o),
(421,703,cs),
(401,703,ls),
(381,703,o),
(362,693,o),
(351,679,cs),
(37,278,ls),
(30,269,o),
(25,255,o),
(25,242,cs),
(25,233,ls),
(25,201,o),
(51,176,o),
(83,176,cs),
(388,176,l),
(388,40,ls),
(388,15,o),
(408,-5,o),
(433,-5,cs)
);
},
{
closed = 1;
nodes = (
(388,600,l),
(388,257,l),
(122,257,l)
);
}
);
width = 628;
}
);
note = four;
unicode = 52;
},
{
glyphname = five;
kernLeft = five;
kernRight = five;
layers = (
{
layerId = "A99C00BB-606F-4263-964D-93C8B7F0BADD";
shapes = (
{
closed = 1;
nodes = (
(487,-10,o),
(571,88,o),
(571,216,cs),
(571,346,o),
(489,442,o),
(338,442,cs),
(264,442,o),
(210,423,o),
(169,401,c),
(201,613,l),
(491,613,ls),
(515,613,o),
(534,631,o),
(534,655,cs),
(534,679,o),
(515,698,o),
(491,698,cs),
(170,698,ls),
(142,698,o),
(121,679,o),
(117,648,c),
(72,382,ls),
(71,376,o),
(70,365,o),
(70,358,cs),
(70,322,o),
(99,300,o),
(136,300,cs),
(152,300,o),
(162,307,o),
(171,312,c),
(204,332,o),
(257,355,o),
(325,355,cs),
(421,355,o),
(480,303,o),
(480,221,cs),
(480,113,o),
(403,80,o),
(285,80,cs),
(222,80,o),
(168,99,o),
(125,122,cs),
(119,125,o),
(112,127,o),
(104,127,cs),
(80,127,o),
(64,107,o),
(64,84,cs),
(64,63,o),
(74,55,o),
(84,48,c),
(134,16,o),
(204,-10,o),
(297,-10,cs)
);
}
);
width = 628;
}
);
note = five;
unicode = 53;
},
{
glyphname = six;
kernLeft = six;
kernRight = six;
layers = (
{
layerId = "A99C00BB-606F-4263-964D-93C8B7F0BADD";
shapes = (
{
closed = 1;
nodes = (
(486,-10,o),
(580,91,o),
(580,217,cs),
(580,360,o),
(487,452,o),
(351,452,cs),
(241,452,o),
(179,406,o),
(146,364,c),
(151,454,o),
(184,620,o),
(356,620,cs),
(411,620,o),
(455,607,o),
(489,591,c),
(494,589,o),
(500,588,o),
(506,588,cs),
(531,588,o),
(547,608,o),
(547,629,cs),
(547,644,o),
(538,659,o),
(526,665,cs),
(486,686,o),
(432,708,o),
(349,708,cs),
(129,708,o),
(59,504,o),
(59,348,cs),
(59,211,o),
(86,-10,o),
(333,-10,cs)
);
},
{
closed = 1;
nodes = (
(209,75,o),
(165,162,o),
(151,259,c),
(172,298,o),
(222,369,o),
(340,369,cs),
(440,369,o),
(489,307,o),
(489,219,cs),
(489,142,o),
(429,75,o),
(334,75,cs)
);
}
);
width = 628;
}
);
note = six;
unicode = 54;
},
{
glyphname = seven;
kernLeft = seven;
kernRight = seven;
layers = (
{
layerId = "A99C00BB-606F-4263-964D-93C8B7F0BADD";
shapes = (
{
closed = 1;
nodes = (
(248,-5,o),
(265,5,o),
(273,20,c),
(557,601,ls),
(563,614,o),
(567,629,o),
(567,645,cs),
(567,675,o),
(543,698,o),
(511,698,cs),
(103,698,ls),
(79,698,o),
(60,678,o),
(60,654,cs),
(60,630,o),
(79,611,o),
(103,611,cs),
(466,611,l),
(191,64,ls),
(187,56,o),
(185,48,o),
(185,40,cs),
(185,14,o),
(204,-5,o),
(230,-5,cs)
);
}
);
width = 628;
}
);
note = seven;
unicode = 55;
},
{
glyphname = eight;
kernLeft = eight;
kernRight = eight;
layers = (
{
layerId = "A99C00BB-606F-4263-964D-93C8B7F0BADD";
shapes = (
{
closed = 1;
nodes = (
(513,-10,o),
(581,96,o),
(581,185,cs),
(581,287,o),
(521,344,o),
(432,374,c),
(494,395,o),
(548,444,o),
(548,526,cs),
(548,604,o),
(489,708,o),
(314,708,cs),
(139,708,o),
(80,604,o),
(80,526,cs),
(80,444,o),
(134,395,o),
(196,374,c),
(107,344,o),
(47,287,o),
(47,185,cs),
(47,96,o),
(115,-10,o),
(314,-10,cs)
);
},
{
closed = 1;
nodes = (
(180,70,o),
(138,150,o),
(138,195,cs),
(138,285,o),
(222,330,o),
(314,330,cs),
(406,330,o),
(490,285,o),
(490,195,cs),
(490,150,o),
(448,70,o),
(314,70,cs)
);
},
{
closed = 1;
nodes = (
(205,412,o),
(171,474,o),
(171,520,cs),
(171,579,o),
(217,628,o),
(314,628,cs),
(411,628,o),
(457,579,o),
(457,520,cs),
(457,474,o),
(423,412,o),
(314,412,cs)
);
}
);
width = 628;
}
);
note = eight;
unicode = 56;
},
{
glyphname = nine;
kernLeft = nine;
kernRight = nine;
layers = (
{
layerId = "A99C00BB-606F-4263-964D-93C8B7F0BADD";
shapes = (
{
closed = 1;
nodes = (
(499,-10,o),
(569,194,o),
(569,350,cs),
(569,487,o),
(542,708,o),
(295,708,cs),
(142,708,o),
(48,607,o),
(48,481,cs),
(48,338,o),
(141,246,o),
(277,246,cs),
(387,246,o),
(449,292,o),
(482,334,c),
(477,244,o),
(444,78,o),
(272,78,cs),
(217,78,o),
(173,91,o),
(139,107,c),
(134,109,o),
(128,110,o),
(122,110,cs),
(97,110,o),
(81,90,o),
(81,69,cs),
(81,54,o),
(90,39,o),
(102,33,cs),
(142,12,o),
(196,-10,o),
(279,-10,cs)
);
},
{
closed = 1;
nodes = (
(188,329,o),
(139,391,o),
(139,479,cs),
(139,556,o),
(199,623,o),
(294,623,cs),
(419,623,o),
(463,536,o),
(477,439,c),
(456,400,o),
(406,329,o),
(288,329,cs)
);
}
);
width = 628;
}
);
note = nine;
unicode = 57;
},
{
color = 3;
glyphname = zero.lf;
kernLeft = O;
kernRight = O;
layers = (
{
layerId = "A99C00BB-606F-4263-964D-93C8B7F0BADD";
shapes = (
{
closed = 1;
nodes = (
(505,-10,o),
(597,135,o),
(597,349,cs),
(597,563,o),
(505,708,o),
(326,708,cs),
(146,708,o),
(55,563,o),
(55,349,cs),
(55,135,o),
(146,-10,o),
(326,-10,cs)
);
},
{
closed = 1;
nodes = (
(208,74,o),
(146,180,o),
(146,349,cs),
(146,517,o),
(208,623,o),
(326,623,cs),
(444,623,o),
(506,517,o),
(506,349,cs),
(506,180,o),
(444,74,o),
(326,74,cs)
);
}
);
width = 652;
}
);
metricLeft = O;
metricRight = O;
},
{
color = 3;
glyphname = one.lf;
kernLeft = onelf;
kernRight = onelf;
layers = (
{
layerId = "A99C00BB-606F-4263-964D-93C8B7F0BADD";
shapes = (
{
closed = 1;
nodes = (
(434,0,ls),
(458,0,o),
(477,18,o),
(477,42,cs),
(477,66,o),
(458,85,o),
(434,85,cs),
(335,85,l),
(335,650,ls),
(335,676,o),
(313,698,o),
(287,698,cs),
(266,698,ls),
(256,698,o),
(246,695,o),
(238,691,cs),
(102,620,ls),
(84,611,o),
(76,598,o),
(76,579,cs),
(76,554,o),
(94,536,o),
(119,536,cs),
(129,536,o),
(135,539,o),
(142,542,c),
(244,592,l),
(244,85,l),
(125,85,ls),
(101,85,o),
(83,66,o),
(83,42,cs),
(83,18,o),
(101,0,o),
(125,0,cs)
);
}
);
width = 518;
}
);
},
{
color = 3;
glyphname = two.lf;
kernLeft = two;
kernRight = two;
layers = (
{
layerId = "A99C00BB-606F-4263-964D-93C8B7F0BADD";
shapes = (
{
closed = 1;
nodes = (
(493,0,ls),
(517,0,o),
(536,18,o),
(536,42,cs),
(536,66,o),
(517,85,o),
(493,85,cs),
(145,85,l),
(199,202,o),
(542,299,o),
(542,505,cs),
(542,627,o),
(440,708,o),
(312,708,cs),
(220,708,o),
(146,685,o),
(90,657,cs),
(75,649,o),
(68,637,o),
(68,620,cs),
(68,598,o),
(84,581,o),
(106,581,cs),
(114,581,o),
(123,585,o),
(125,586,c),
(170,606,o),
(228,622,o),
(296,622,cs),
(412,622,o),
(454,569,o),
(454,498,cs),
(454,335,o),
(54,263,o),
(54,52,cs),
(54,21,o),
(76,0,o),
(107,0,cs)
);
}
);
width = 606;
}
);
},
{
color = 3;
glyphname = three.lf;
kernLeft = three;
kernRight = B;
layers = (
{
layerId = "A99C00BB-606F-4263-964D-93C8B7F0BADD";
shapes = (
{
closed = 1;
nodes = (
(414,-10,o),
(527,56,o),
(527,183,cs),
(527,306,o),
(437,348,o),
(381,361,c),
(438,382,o),
(502,427,o),
(502,528,cs),
(502,642,o),
(415,708,o),
(261,708,cs),
(177,708,o),
(110,682,o),
(63,657,cs),
(50,650,o),
(43,637,o),
(43,623,cs),
(43,601,o),
(60,586,o),
(80,586,cs),
(88,586,o),
(93,588,o),
(98,590,c),
(139,609,o),
(190,623,o),
(253,623,cs),
(360,623,o),
(411,581,o),
(411,519,cs),
(411,438,o),
(336,398,o),
(205,398,cs),
(199,398,ls),
(176,398,o),
(157,379,o),
(157,356,cs),
(157,333,o),
(176,314,o),
(199,314,cs),
(215,314,ls),
(380,314,o),
(436,262,o),
(436,188,cs),
(436,100,o),
(338,77,o),
(251,77,cs),
(186,77,o),
(132,90,o),
(92,106,cs),
(87,108,o),
(79,110,o),
(73,110,cs),
(49,110,o),
(33,89,o),
(33,68,cs),
(33,49,o),
(44,36,o),
(59,30,cs),
(108,10,o),
(179,-10,o),
(268,-10,cs)
);
}
);
width = 579;
}
);
metricRight = B;
},
{
color = 3;
glyphname = four.lf;
kernLeft = four;
kernRight = four;
layers = (
{
layerId = "A99C00BB-606F-4263-964D-93C8B7F0BADD";
shapes = (
{
closed = 1;
nodes = (
(458,-5,o),
(479,15,o),
(479,40,cs),
(479,176,l),
(555,176,ls),
(578,176,o),
(596,193,o),
(596,216,cs),
(596,239,o),
(578,257,o),
(555,257,cs),
(479,257,l),
(479,645,ls),
(479,677,o),
(456,703,o),
(421,703,cs),
(401,703,ls),
(381,703,o),
(362,693,o),
(351,679,cs),
(37,278,ls),
(30,269,o),
(25,255,o),
(25,242,cs),
(25,233,ls),
(25,201,o),
(51,176,o),
(83,176,cs),
(388,176,l),
(388,40,ls),
(388,15,o),
(408,-5,o),
(433,-5,cs)
);
},
{
closed = 1;
nodes = (
(388,600,l),
(388,257,l),
(122,257,l)
);
}
);
width = 628;
}
);
},
{
color = 3;
glyphname = five.lf;
kernLeft = five;
kernRight = five;
layers = (
{
layerId = "A99C00BB-606F-4263-964D-93C8B7F0BADD";
shapes = (
{
closed = 1;
nodes = (
(482,-10,o),
(566,88,o),
(566,216,cs),
(566,346,o),
(484,442,o),
(333,442,cs),
(259,442,o),
(205,423,o),
(164,401,c),
(196,613,l),
(486,613,ls),
(510,613,o),
(529,631,o),
(529,655,cs),
(529,679,o),
(510,698,o),
(486,698,cs),
(165,698,ls),
(137,698,o),
(116,679,o),
(112,648,c),
(67,382,ls),
(66,376,o),
(65,365,o),
(65,358,cs),
(65,322,o),
(94,300,o),
(131,300,cs),
(147,300,o),
(157,307,o),
(166,312,c),
(199,332,o),
(252,355,o),
(320,355,cs),
(416,355,o),
(475,303,o),
(475,221,cs),
(475,113,o),
(398,80,o),
(280,80,cs),
(217,80,o),
(163,99,o),
(120,122,cs),
(114,125,o),
(107,127,o),
(99,127,cs),
(75,127,o),
(59,107,o),
(59,84,cs),
(59,63,o),
(69,55,o),
(79,48,c),
(129,16,o),
(199,-10,o),
(292,-10,cs)
);
}
);
width = 615;
}
);
},
{
color = 3;
glyphname = six.lf;
kernLeft = O;
kernRight = six;
layers = (
{
layerId = "A99C00BB-606F-4263-964D-93C8B7F0BADD";
shapes = (
{
closed = 1;
nodes = (
(482,-10,o),
(576,91,o),
(576,217,cs),
(576,360,o),
(483,452,o),
(347,452,cs),
(237,452,o),
(175,406,o),
(142,364,c),
(147,454,o),
(180,620,o),
(352,620,cs),
(407,620,o),
(451,607,o),
(485,591,c),
(490,589,o),
(496,588,o),
(502,588,cs),
(527,588,o),
(543,608,o),
(543,629,cs),
(543,644,o),
(534,659,o),
(522,665,cs),
(482,686,o),
(428,708,o),
(345,708,cs),
(125,708,o),
(55,504,o),
(55,348,cs),
(55,211,o),
(82,-10,o),
(329,-10,cs)
);
},
{
closed = 1;
nodes = (
(205,75,o),
(161,162,o),
(147,259,c),
(168,298,o),
(218,369,o),
(336,369,cs),
(436,369,o),
(485,307,o),
(485,219,cs),
(485,142,o),
(425,75,o),
(330,75,cs)
);
}
);
width = 624;
}
);
metricLeft = O;
},
{
color = 3;
glyphname = seven.lf;
kernLeft = seven;
kernRight = seven;
layers = (
{
layerId = "A99C00BB-606F-4263-964D-93C8B7F0BADD";
shapes = (
{
closed = 1;
nodes = (
(206,-5,o),
(223,5,o),
(231,20,c),
(515,601,ls),
(521,614,o),
(525,629,o),
(525,645,cs),
(525,675,o),
(501,698,o),
(469,698,cs),
(61,698,ls),
(37,698,o),
(18,678,o),
(18,654,cs),
(18,630,o),
(37,611,o),
(61,611,cs),
(424,611,l),
(149,64,ls),
(145,56,o),
(143,48,o),
(143,40,cs),
(143,14,o),
(162,-5,o),
(188,-5,cs)
);
}
);
width = 546;
}
);
},
{
color = 3;
glyphname = eight.lf;
kernLeft = eight;
kernRight = B;
layers = (
{
layerId = "A99C00BB-606F-4263-964D-93C8B7F0BADD";
shapes = (
{
closed = 1;
nodes = (
(518,-10,o),
(586,96,o),
(586,185,cs),
(586,287,o),
(526,344,o),
(437,374,c),
(499,395,o),
(553,444,o),
(553,526,cs),
(553,604,o),
(494,708,o),
(319,708,cs),
(144,708,o),
(85,604,o),
(85,526,cs),
(85,444,o),
(139,395,o),
(201,374,c),
(112,344,o),
(52,287,o),
(52,185,cs),
(52,96,o),
(120,-10,o),
(319,-10,cs)
);
},
{
closed = 1;
nodes = (
(185,70,o),
(143,150,o),
(143,195,cs),
(143,285,o),
(227,330,o),
(319,330,cs),
(411,330,o),
(495,285,o),
(495,195,cs),
(495,150,o),
(453,70,o),
(319,70,cs)
);
},
{
closed = 1;
nodes = (
(210,412,o),
(176,474,o),
(176,520,cs),
(176,579,o),
(222,628,o),
(319,628,cs),
(416,628,o),
(462,579,o),
(462,520,cs),
(462,474,o),
(428,412,o),
(319,412,cs)
);
}
);
width = 638;
}
);
metricLeft = "=|B";
metricRight = B;
},
{
color = 3;
glyphname = nine.lf;
kernLeft = nine;
kernRight = O;
layers = (
{
layerId = "A99C00BB-606F-4263-964D-93C8B7F0BADD";
shapes = (
{
closed = 1;
nodes = (
(499,-10,o),
(569,194,o),
(569,350,cs),
(569,487,o),
(542,708,o),
(295,708,cs),
(142,708,o),
(48,607,o),
(48,481,cs),
(48,338,o),
(141,246,o),
(277,246,cs),
(387,246,o),
(449,292,o),
(482,334,c),
(477,244,o),
(444,78,o),
(272,78,cs),
(217,78,o),
(173,91,o),
(139,107,c),
(134,109,o),
(128,110,o),
(122,110,cs),
(97,110,o),
(81,90,o),
(81,69,cs),
(81,54,o),
(90,39,o),
(102,33,cs),
(142,12,o),
(196,-10,o),
(279,-10,cs)
);
},
{
closed = 1;
nodes = (
(188,329,o),
(139,391,o),
(139,479,cs),
(139,556,o),
(199,623,o),
(294,623,cs),
(419,623,o),
(463,536,o),
(477,439,c),
(456,400,o),
(406,329,o),
(288,329,cs)
);
}
);
width = 624;
}
);
metricLeft = "=|six";
metricRight = O;
},
{
color = 3;
glyphname = zero.dnom;
kernLeft = zero.dnom;
kernRight = zero.dnom;
layers = (
{
background = {
shapes = (
{
closed = 1;
nodes = (
(285,265,l),
(265,219,o),
(219,196,o),
(176,196,cs),
(129,196,o),
(100,220,o),
(100,267,cs),
(100,308,o),
(129,342,o),
(179,342,cs),
(244,342,o),
(277,292,o),
(277,203,cs),
(277,108,o),
(237,55,o),
(165,55,cs),
(121,55,o),
(101,73,o),
(81,73,cs),
(65,73,o),
(52,63,o),
(52,48,cs),
(52,31,o),
(58,24,o),
(74,15,cs),
(96,3,o),
(131,-5,o),
(169,-5,cs),
(274,-5,o),
(338,73,o),
(338,198,cs),
(338,329,o),
(283,399,o),
(180,399,cs),
(91,399,o),
(37,341,o),
(37,267,cs),
(37,190,o),
(85,139,o),
(170,139,cs),
(224,139,o),
(266,164,o),
(291,201,c)
);
},
{
closed = 1;
nodes = (
(86,129,l),
(106,175,o),
(152,198,o),
(195,198,cs),
(242,198,o),
(271,174,o),
(271,127,cs),
(271,86,o),
(242,52,o),
(192,52,cs),
(127,52,o),
(94,102,o),
(94,191,cs),
(94,286,o),
(134,339,o),
(206,339,cs),
(250,339,o),
(270,321,o),
(290,321,cs),
(306,321,o),
(319,331,o),
(319,346,cs),
(319,363,o),
(313,370,o),
(297,379,cs),
(275,391,o),
(240,399,o),
(202,399,cs),
(97,399,o),
(33,321,o),
(33,196,cs),
(33,65,o),
(88,-5,o),
(191,-5,cs),
(280,-5,o),
(334,53,o),
(334,127,cs),
(334,204,o),
(286,255,o),
(201,255,cs),
(147,255,o),
(105,230,o),
(80,193,c)
);
}
);
};
layerId = "A99C00BB-606F-4263-964D-93C8B7F0BADD";
shapes = (
{
closed = 1;
nodes = (
(282,-5,o),
(338,77,o),
(338,197,cs),
(338,318,o),
(282,399,o),
(185,399,cs),
(86,399,o),
(32,318,o),
(32,197,cs),
(32,77,o),
(86,-5,o),
(185,-5,cs)
);
},
{
closed = 1;
nodes = (
(127,52,o),
(94,105,o),
(94,197,cs),
(94,289,o),
(127,342,o),
(185,342,cs),
(242,342,o),
(276,288,o),
(276,197,cs),
(276,106,o),
(242,52,o),
(185,52,cs)
);
}
);
width = 370;
}
);
},
{
glyphname = one.dnom;
kernLeft = one.dnom;
kernRight = one.dnom;
layers = (
{
background = {
shapes = (
{
closed = 1;
nodes = (
(283,450,ls),
(297,450,o),
(308,460,o),
(308,474,cs),
(308,488,o),
(297,498,o),
(283,498,cs),
(227,498,l),
(227,821,ls),
(227,835,o),
(214,848,o),
(199,848,cs),
(188,848,ls),
(182,848,o),
(176,846,o),
(172,844,cs),
(94,804,ls),
(84,799,o),
(79,791,o),
(79,780,cs),
(79,766,o),
(89,756,o),
(104,756,cs),
(109,756,o),
(113,757,o),
(117,759,c),
(175,788,l),
(175,498,l),
(107,498,ls),
(93,498,o),
(83,488,o),
(83,474,cs),
(83,460,o),
(93,450,o),
(107,450,cs)
);
}
);
};
layerId = "A99C00BB-606F-4263-964D-93C8B7F0BADD";
shapes = (
{
closed = 1;
nodes = (
(282,0,ls),
(299,0,o),
(312,12,o),
(312,29,cs),
(312,46,o),
(299,59,o),
(282,59,cs),
(232,59,l),
(232,355,ls),
(232,379,o),
(215,398,o),
(189,398,cs),
(182,398,o),
(175,396,o),
(169,393,cs),
(97,356,ls),
(85,350,o),
(78,339,o),
(78,328,cs),
(78,311,o),
(92,298,o),
(108,298,cs),
(114,298,o),
(118,300,o),
(123,302,c),
(168,324,l),
(168,59,l),
(108,59,ls),
(91,59,o),
(79,46,o),
(79,29,cs),
(79,12,o),
(91,0,o),
(108,0,cs)
);
}
);
width = 370;
}
);
},
{
glyphname = two.dnom;
kernLeft = two.dnom;
kernRight = two.dnom;
layers = (
{
layerId = "A99C00BB-606F-4263-964D-93C8B7F0BADD";
shapes = (
{
closed = 1;
nodes = (
(297,0,ls),
(314,0,o),
(327,12,o),
(327,29,cs),
(327,46,o),
(314,59,o),
(297,59,cs),
(107,59,l),
(144,113,o),
(323,170,o),
(323,282,cs),
(323,348,o),
(268,399,o),
(190,399,cs),
(135,399,o),
(90,384,o),
(60,366,cs),
(50,360,o),
(46,351,o),
(46,341,cs),
(46,324,o),
(58,313,o),
(74,313,cs),
(79,313,o),
(83,314,o),
(87,316,c),
(109,328,o),
(141,338,o),
(182,338,cs),
(239,338,o),
(260,311,o),
(260,278,cs),
(260,198,o),
(38,152,o),
(38,40,cs),
(38,20,o),
(54,0,o),
(77,0,cs)
);
}
);
width = 370;
}
);
},
{
glyphname = three.dnom;
kernLeft = three.dnom;
kernRight = three.dnom;
layers = (
{
layerId = "A99C00BB-606F-4263-964D-93C8B7F0BADD";
shapes = (
{
closed = 1;
nodes = (
(283,-6,o),
(322,49,o),
(322,106,cs),
(322,165,o),
(282,192,o),
(246,203,c),
(274,214,o),
(308,240,o),
(308,293,cs),
(308,352,o),
(269,399,o),
(172,399,cs),
(130,399,o),
(92,386,o),
(60,369,cs),
(47,362,o),
(41,352,o),
(41,343,cs),
(41,327,o),
(55,316,o),
(69,316,cs),
(73,316,o),
(78,317,o),
(82,319,cs),
(103,329,o),
(131,338,o),
(168,338,cs),
(204,338,o),
(246,327,o),
(246,288,cs),
(246,244,o),
(198,230,o),
(141,230,cs),
(136,230,ls),
(119,230,o),
(106,217,o),
(106,200,cs),
(106,183,o),
(119,170,o),
(136,170,cs),
(147,170,ls),
(220,170,o),
(259,150,o),
(259,108,cs),
(259,71,o),
(219,56,o),
(167,56,cs),
(129,56,o),
(99,66,o),
(76,73,c),
(72,74,o),
(69,75,o),
(65,75,cs),
(50,75,o),
(36,62,o),
(36,46,cs),
(36,34,o),
(44,24,o),
(53,19,cs),
(82,3,o),
(123,-6,o),
(176,-6,cs)
);
}
);
width = 370;
}
);
},
{
color = 3;
glyphname = four.dnom;
kernLeft = four.dnom;
kernRight = four.dnom;
layers = (
{
background = {
shapes = (
{
closed = 1;
nodes = (
(265,-5,o),
(279,8,o),
(279,27,cs),
(279,92,l),
(316,92,ls),
(334,92,o),
(346,104,o),
(346,121,cs),
(346,138,o),
(334,151,o),
(316,151,cs),
(279,151,l),
(279,366,ls),
(279,384,o),
(266,399,o),
(246,399,cs),
(235,399,ls),
(223,399,o),
(212,393,o),
(206,385,cs),
(27,156,ls),
(23,151,o),
(20,143,o),
(20,136,cs),
(20,125,ls),
(20,107,o),
(35,92,o),
(53,92,cs),
(215,92,l),
(215,27,ls),
(215,8,o),
(229,-5,o),
(247,-5,cs)
);
},
{
closed = 1;
nodes = (
(242,344,l),
(215,385,l),
(215,151,l),
(50,151,l),
(72,129,l)
);
}
);
};
layerId = "A99C00BB-606F-4263-964D-93C8B7F0BADD";
shapes = (
{
closed = 1;
nodes = (
(266,-5,o),
(280,9,o),
(280,27,cs),
(280,96,l),
(316,96,ls),
(333,96,o),
(346,108,o),
(346,125,cs),
(346,142,o),
(333,155,o),
(316,155,cs),
(280,155,l),
(280,357,ls),
(280,380,o),
(262,399,o),
(238,399,cs),
(230,399,ls),
(214,399,o),
(203,389,o),
(194,378,cs),
(29,167,ls),
(22,158,o),
(18,149,o),
(18,138,cs),
(18,115,o),
(37,96,o),
(60,96,cs),
(216,96,l),
(216,27,ls),
(216,9,o),
(230,-5,o),
(248,-5,cs)
);
},
{
closed = 1;
nodes = (
(216,320,l),
(216,155,l),
(89,155,l)
);
}
);
width = 370;
}
);
},
{
color = 3;
glyphname = five.dnom;
kernLeft = five.dnom;
kernRight = five.dnom;
layers = (
{
background = {
shapes = (
{
closed = 1;
nodes = (
(783,-10,o),
(831,46,o),
(831,119,cs),
(831,193,o),
(785,248,o),
(698,248,cs),
(656,248,o),
(625,237,o),
(602,225,c),
(620,345,l),
(786,345,ls),
(799,345,o),
(810,356,o),
(810,369,cs),
(810,383,o),
(799,394,o),
(786,394,cs),
(602,394,ls),
(587,394,o),
(575,383,o),
(572,365,c),
(547,214,ls),
(546,210,o),
(545,204,o),
(545,200,cs),
(545,179,o),
(562,167,o),
(583,167,cs),
(592,167,o),
(598,171,o),
(603,174,c),
(622,185,o),
(652,198,o),
(691,198,cs),
(746,198,o),
(779,169,o),
(779,122,cs),
(779,60,o),
(735,41,o),
(668,41,cs),
(632,41,o),
(602,53,o),
(577,65,cs),
(573,67,o),
(569,68,o),
(565,68,cs),
(551,68,o),
(542,57,o),
(542,44,cs),
(542,32,o),
(548,27,o),
(553,23,c),
(582,5,o),
(622,-10,o),
(675,-10,cs)
);
},
{
closed = 1;
nodes = (
(292,-6,o),
(331,49,o),
(331,106,cs),
(331,165,o),
(291,192,o),
(255,203,c),
(283,214,o),
(317,240,o),
(317,293,cs),
(317,352,o),
(278,399,o),
(181,399,cs),
(139,399,o),
(101,386,o),
(69,369,cs),
(56,362,o),
(50,352,o),
(50,343,cs),
(50,327,o),
(64,316,o),
(78,316,cs),
(82,316,o),
(87,317,o),
(91,319,cs),
(112,329,o),
(140,338,o),
(177,338,cs),
(213,338,o),
(255,327,o),
(255,288,cs),
(255,244,o),
(207,230,o),
(150,230,cs),
(145,230,ls),
(128,230,o),
(115,217,o),
(115,200,cs),
(115,183,o),
(128,170,o),
(145,170,cs),
(156,170,ls),
(229,170,o),
(268,150,o),
(268,108,cs),
(268,71,o),
(228,56,o),
(176,56,cs),
(138,56,o),
(108,66,o),
(85,73,c),
(81,74,o),
(78,75,o),
(74,75,cs),
(59,75,o),
(45,62,o),
(45,46,cs),
(45,34,o),
(53,24,o),
(62,19,cs),
(91,3,o),
(132,-6,o),
(185,-6,cs)
);
}
);
};
layerId = "A99C00BB-606F-4263-964D-93C8B7F0BADD";
shapes = (
{
closed = 1;
nodes = (
(278,-5,o),
(332,39,o),
(332,122,cs),
(332,198,o),
(281,246,o),
(203,246,cs),
(160,246,o),
(122,236,o),
(85,212,c),
(114,214,l),
(137,364,l),
(96,333,l),
(280,333,ls),
(297,333,o),
(310,346,o),
(310,363,cs),
(310,381,o),
(297,394,o),
(280,394,cs),
(104,394,ls),
(89,394,o),
(77,383,o),
(74,365,cs),
(50,223,ls),
(48,210,o),
(47,200,o),
(47,194,cs),
(47,174,o),
(62,160,o),
(82,160,cs),
(100,160,o),
(137,186,o),
(192,186,cs),
(239,186,o),
(268,162,o),
(268,122,cs),
(268,78,o),
(237,57,o),
(174,57,cs),
(134,57,o),
(104,67,o),
(81,74,c),
(77,75,o),
(74,76,o),
(70,76,cs),
(55,76,o),
(41,63,o),
(41,47,cs),
(41,37,o),
(47,26,o),
(58,20,cs),
(88,4,o),
(129,-5,o),
(173,-5,cs)
);
}
);
width = 370;
}
);
},
{
color = 3;
glyphname = six.dnom;
kernLeft = six.dnom;
kernRight = six.dnom;
layers = (
{
background = {
shapes = (
{
closed = 1;
nodes = (
(282,-5,o),
(335,52,o),
(335,123,cs),
(335,203,o),
(283,255,o),
(206,255,cs),
(144,255,o),
(110,229,o),
(91,205,c),
(94,256,o),
(112,349,o),
(209,349,cs),
(240,349,o),
(265,342,o),
(284,333,c),
(287,332,o),
(290,331,o),
(294,331,cs),
(308,331,o),
(317,343,o),
(317,355,cs),
(317,363,o),
(312,371,o),
(305,375,cs),
(283,388,o),
(252,399,o),
(205,399,cs),
(81,399,o),
(42,284,o),
(42,196,cs),
(42,119,o),
(57,-5,o),
(196,-5,cs)
);
},
{
closed = 1;
nodes = (
(126,43,o),
(102,92,o),
(94,146,c),
(106,168,o),
(134,208,o),
(200,208,cs),
(256,208,o),
(284,173,o),
(284,124,cs),
(284,81,o),
(250,43,o),
(197,43,cs)
);
}
);
};
layerId = "A99C00BB-606F-4263-964D-93C8B7F0BADD";
shapes = (
{
closed = 1;
nodes = (
(285,-5,o),
(339,53,o),
(339,127,cs),
(339,204,o),
(291,255,o),
(206,255,cs),
(152,255,o),
(110,230,o),
(85,193,c),
(91,129,l),
(111,175,o),
(157,198,o),
(200,198,cs),
(247,198,o),
(276,174,o),
(276,127,cs),
(276,86,o),
(247,52,o),
(197,52,cs),
(132,52,o),
(99,102,o),
(99,191,cs),
(99,286,o),
(139,339,o),
(211,339,cs),
(255,339,o),
(275,321,o),
(295,321,cs),
(311,321,o),
(324,331,o),
(324,346,cs),
(324,363,o),
(318,370,o),
(302,379,cs),
(280,391,o),
(245,399,o),
(207,399,cs),
(102,399,o),
(38,321,o),
(38,196,cs),
(38,65,o),
(93,-5,o),
(196,-5,cs)
);
}
);
width = 370;
}
);
},
{
color = 3;
glyphname = seven.dnom;
kernLeft = seven.dnom;
kernRight = seven.dnom;
layers = (
{
background = {
shapes = (
{
closed = 1;
nodes = (
(148,0,o),
(157,6,o),
(162,14,c),
(323,344,ls),
(327,352,o),
(329,360,o),
(329,369,cs),
(329,386,o),
(315,399,o),
(297,399,cs),
(65,399,ls),
(52,399,o),
(41,388,o),
(41,374,cs),
(41,361,o),
(52,350,o),
(65,350,cs),
(272,350,l),
(115,39,ls),
(113,35,o),
(112,30,o),
(112,26,cs),
(112,11,o),
(123,0,o),
(138,0,cs)
);
}
);
};
layerId = "A99C00BB-606F-4263-964D-93C8B7F0BADD";
shapes = (
{
closed = 1;
nodes = (
(148,-5,o),
(158,1,o),
(166,17,cs),
(320,333,ls),
(327,347,o),
(329,355,o),
(329,364,cs),
(329,381,o),
(315,394,o),
(295,394,cs),
(71,394,ls),
(54,394,o),
(41,381,o),
(41,363,cs),
(41,346,o),
(54,333,o),
(71,333,cs),
(292,333,l),
(280,385,l),
(107,42,ls),
(95,19,o),
(105,-5,o),
(132,-5,cs)
);
}
);
width = 370;
}
);
},
{
color = 3;
glyphname = eight.dnom;
kernLeft = eight.dnom;
kernRight = eight.dnom;
layers = (
{
background = {
shapes = (
{
closed = 1;
nodes = (
(297,-5,o),
(335,55,o),
(335,105,cs),
(335,162,o),
(302,194,o),
(252,211,c),
(287,223,o),
(317,250,o),
(317,297,cs),
(317,340,o),
(284,399,o),
(185,399,cs),
(87,399,o),
(54,340,o),
(54,297,cs),
(54,250,o),
(84,223,o),
(119,211,c),
(69,194,o),
(35,162,o),
(35,105,cs),
(35,55,o),
(73,-5,o),
(185,-5,cs)
);
},
{
closed = 1;
nodes = (
(110,40,o),
(86,85,o),
(86,110,cs),
(86,161,o),
(133,186,o),
(185,186,cs),
(237,186,o),
(284,161,o),
(284,110,cs),
(284,85,o),
(261,40,o),
(185,40,cs)
);
},
{
closed = 1;
nodes = (
(124,232,o),
(105,267,o),
(105,293,cs),
(105,326,o),
(131,354,o),
(185,354,cs),
(240,354,o),
(266,326,o),
(266,293,cs),
(266,267,o),
(247,232,o),
(185,232,cs)
);
}
);
};
layerId = "A99C00BB-606F-4263-964D-93C8B7F0BADD";
shapes = (
{
closed = 1;
nodes = (
(275,-5,o),
(335,42,o),
(335,105,cs),
(335,157,o),
(307,192,o),
(249,211,c),
(293,225,o),
(317,256,o),
(317,297,cs),
(317,354,o),
(262,399,o),
(185,399,cs),
(108,399,o),
(54,354,o),
(54,297,cs),
(54,256,o),
(78,225,o),
(122,211,c),
(63,192,o),
(35,157,o),
(35,105,cs),
(35,42,o),
(95,-5,o),
(185,-5,cs)
);
},
{
closed = 1;
nodes = (
(137,50,o),
(97,75,o),
(97,112,cs),
(97,152,o),
(134,180,o),
(185,180,cs),
(236,180,o),
(273,152,o),
(273,112,cs),
(273,75,o),
(234,50,o),
(185,50,cs)
);
},
{
closed = 1;
nodes = (
(144,238,o),
(116,260,o),
(116,291,cs),
(116,323,o),
(143,344,o),
(185,344,cs),
(227,344,o),
(255,323,o),
(255,291,cs),
(255,260,o),
(226,238,o),
(185,238,cs)
);
}
);
width = 370;
}
);
},
{
color = 3;
glyphname = nine.dnom;
kernLeft = nine.dnom;
kernRight = nine.dnom;
layers = (
{
layerId = "A99C00BB-606F-4263-964D-93C8B7F0BADD";
shapes = (
{
closed = 1;
nodes = (
(268,-5,o),
(332,73,o),
(332,198,cs),
(332,329,o),
(277,399,o),
(174,399,cs),
(85,399,o),
(31,341,o),
(31,267,cs),
(31,190,o),
(79,139,o),
(164,139,cs),
(218,139,o),
(260,164,o),
(285,201,c),
(279,265,l),
(259,219,o),
(213,196,o),
(170,196,cs),
(123,196,o),
(94,220,o),
(94,267,cs),
(94,308,o),
(123,342,o),
(173,342,cs),
(238,342,o),
(271,292,o),
(271,203,cs),
(271,108,o),
(231,55,o),
(159,55,cs),
(115,55,o),
(95,73,o),
(75,73,cs),
(59,73,o),
(46,63,o),
(46,48,cs),
(46,31,o),
(52,24,o),
(68,15,cs),
(90,3,o),
(125,-5,o),
(163,-5,cs)
);
}
);
width = 370;
}
);
},
{
color = 10;
glyphname = onesuperior;
kernLeft = one.dnom;
kernRight = one.dnom;
layers = (
{
background = {
shapes = (
{
closed = 1;
nodes = (
(683,450,ls),
(697,450,o),
(708,460,o),
(708,474,cs),
(708,488,o),
(697,498,o),
(683,498,cs),
(627,498,l),
(627,821,ls),
(627,835,o),
(614,848,o),
(599,848,cs),
(588,848,ls),
(582,848,o),
(576,846,o),
(572,844,cs),
(494,804,ls),
(484,799,o),
(479,791,o),
(479,780,cs),
(479,766,o),
(489,756,o),
(504,756,cs),
(509,756,o),
(513,757,o),
(517,759,c),
(575,788,l),
(575,498,l),
(507,498,ls),
(493,498,o),
(483,488,o),
(483,474,cs),
(483,460,o),
(493,450,o),
(507,450,cs)
);
},
{
closed = 1;
nodes = (
(282,451,ls),
(299,451,o),
(312,463,o),
(312,480,cs),
(312,497,o),
(299,510,o),
(282,510,cs),
(232,510,l),
(232,806,ls),
(232,830,o),
(215,849,o),
(189,849,cs),
(182,849,o),
(175,847,o),
(169,844,cs),
(97,807,ls),
(85,801,o),
(78,790,o),
(78,779,cs),
(78,762,o),
(92,749,o),
(108,749,cs),
(114,749,o),
(118,751,o),
(123,753,c),
(168,775,l),
(168,510,l),
(108,510,ls),
(91,510,o),
(79,497,o),
(79,480,cs),
(79,463,o),
(91,451,o),
(108,451,cs)
);
}
);
};
layerId = "A99C00BB-606F-4263-964D-93C8B7F0BADD";
shapes = (
{
pos = (0,310);
ref = one.dnom;
}
);
width = 370;
}
);
note = onesuperior;
unicode = 185;
},
{
color = 10;
glyphname = twosuperior;
kernLeft = two.dnom;
kernRight = two.dnom;
layers = (
{
background = {
shapes = (
{
closed = 1;
nodes = (
(297,451,ls),
(314,451,o),
(327,463,o),
(327,480,cs),
(327,497,o),
(314,510,o),
(297,510,cs),
(107,510,l),
(144,564,o),
(323,621,o),
(323,733,cs),
(323,799,o),
(268,850,o),
(190,850,cs),
(135,850,o),
(90,836,o),
(60,817,cs),
(50,811,o),
(46,802,o),
(46,792,cs),
(46,775,o),
(58,764,o),
(74,764,cs),
(79,764,o),
(83,765,o),
(87,767,c),
(109,779,o),
(141,789,o),
(182,789,cs),
(239,789,o),
(260,762,o),
(260,729,cs),
(260,649,o),
(38,603,o),
(38,491,cs),
(38,471,o),
(54,451,o),
(77,451,cs)
);
}
);
};
layerId = "A99C00BB-606F-4263-964D-93C8B7F0BADD";
shapes = (
{
pos = (0,310);
ref = two.dnom;
}
);
width = 370;
}
);
note = twosuperior;
unicode = 178;
},
{
color = 10;
glyphname = threesuperior;
kernLeft = three.dnom;
kernRight = three.dnom;
layers = (
{
background = {
shapes = (
{
closed = 1;
nodes = (
(283,445,o),
(322,500,o),
(322,557,cs),
(322,616,o),
(282,643,o),
(246,654,c),
(274,665,o),
(308,691,o),
(308,744,cs),
(308,803,o),
(269,850,o),
(172,850,cs),
(130,850,o),
(92,837,o),
(60,820,cs),
(47,813,o),
(41,803,o),
(41,794,cs),
(41,778,o),
(55,767,o),
(69,767,cs),
(73,767,o),
(78,768,o),
(82,770,cs),
(103,780,o),
(131,789,o),
(168,789,cs),
(204,789,o),
(246,778,o),
(246,739,cs),
(246,695,o),
(198,681,o),
(141,681,cs),
(136,681,ls),
(119,681,o),
(106,668,o),
(106,651,cs),
(106,634,o),
(119,621,o),
(136,621,cs),
(147,621,ls),
(220,621,o),
(259,601,o),
(259,559,cs),
(259,522,o),
(219,507,o),
(167,507,cs),
(129,507,o),
(99,517,o),
(76,524,c),
(72,525,o),
(69,526,o),
(65,526,cs),
(50,526,o),
(36,513,o),
(36,497,cs),
(36,485,o),
(44,475,o),
(53,470,cs),
(82,454,o),
(123,445,o),
(176,445,cs)
);
}
);
};
layerId = "A99C00BB-606F-4263-964D-93C8B7F0BADD";
shapes = (
{
pos = (0,310);
ref = three.dnom;
}
);
width = 370;
}
);
note = threesuperior;
unicode = 179;
},
{
color = 3;
glyphname = fraction;
kernLeft = fraction;
kernRight = fraction;
layers = (
{
layerId = "A99C00BB-606F-4263-964D-93C8B7F0BADD";
shapes = (
{
closed = 1;
nodes = (
(-100,-24,o),
(-89,-20,o),
(-83,-10,cs),
(331,672,l),
(334,678,o),
(336,684,o),
(336,690,cs),
(336,710,o),
(320,724,o),
(302,724,cs),
(291,724,o),
(280,720,o),
(274,710,cs),
(-140,28,l),
(-143,22,o),
(-145,16,o),
(-145,10,cs),
(-145,-10,o),
(-129,-24,o),
(-111,-24,cs)
);
}
);
width = 191;
}
);
note = fraction;
unicode = 8260;
},
{
color = 10;
glyphname = onehalf;
kernLeft = one.numr;
kernRight = one.dnom;
layers = (
{
background = {
shapes = (
{
closed = 1;
nodes = (
(267,-24,o),
(278,-20,o),
(284,-10,cs),
(698,672,l),
(701,678,o),
(703,684,o),
(703,690,cs),
(703,710,o),
(687,724,o),
(669,724,cs),
(658,724,o),
(647,720,o),
(641,710,cs),
(227,28,l),
(224,22,o),
(222,16,o),
(222,10,cs),
(222,-10,o),
(238,-24,o),
(256,-24,cs)
);
},
{
closed = 1;
nodes = (
(283,310,ls),
(300,310,o),
(313,322,o),
(313,339,cs),
(313,356,o),
(300,369,o),
(283,369,cs),
(233,369,l),
(233,665,ls),
(233,689,o),
(216,708,o),
(190,708,cs),
(183,708,o),
(176,706,o),
(170,703,cs),
(98,666,ls),
(86,660,o),
(79,649,o),
(79,638,cs),
(79,621,o),
(93,608,o),
(109,608,cs),
(115,608,o),
(119,610,o),
(124,612,c),
(169,634,l),
(169,369,l),
(109,369,ls),
(92,369,o),
(80,356,o),
(80,339,cs),
(80,322,o),
(92,310,o),
(109,310,cs)
);
},
{
closed = 1;
nodes = (
(835,0,ls),
(852,0,o),
(865,12,o),
(865,29,cs),
(865,46,o),
(852,59,o),
(835,59,cs),
(645,59,l),
(682,113,o),
(861,170,o),
(861,282,cs),
(861,348,o),
(806,399,o),
(728,399,cs),
(673,399,o),
(628,385,o),
(598,366,cs),
(588,360,o),
(584,351,o),
(584,341,cs),
(584,324,o),
(596,313,o),
(612,313,cs),
(617,313,o),
(621,314,o),
(625,316,c),
(647,328,o),
(679,338,o),
(720,338,cs),
(777,338,o),
(798,311,o),
(798,278,cs),
(798,198,o),
(576,152,o),
(576,40,cs),
(576,20,o),
(592,0,o),
(615,0,cs)
);
}
);
};
layerId = "A99C00BB-606F-4263-964D-93C8B7F0BADD";
shapes = (
{
ref = one.numr;
},
{
pos = (370,0);
ref = fraction;
},
{
pos = (561,0);
ref = two.dnom;
}
);
width = 931;
}
);
note = onehalf;
unicode = 189;
},
